  0
SECTION
  2
HEADER
  9
$ACADVER
  1
AC1032
  9
$ACADMAINTVER
 90
4
  9
$DWGCODEPAGE
  3
ANSI_1252
  9
$LASTSAVEDBY
  1
ezdxf
  9
$REQUIREDVERSIONS
160
0
  9
$INSBASE
 10
0.0
 20
0.0
 30
0.0
  9
$EXTMIN
 10
1e+20
 20
1e+20
 30
1e+20
  9
$EXTMAX
 10
-1e+20
 20
-1e+20
 30
-1e+20
  9
$LIMMIN
 10
0.0
 20
0.0
  9
$LIMMAX
 10
420.0
 20
297.0
  9
$ORTHOMODE
 70
0
  9
$REGENMODE
 70
1
  9
$FILLMODE
 70
1
  9
$QTEXTMODE
 70
0
  9
$MIRRTEXT
 70
1
  9
$LTSCALE
 40
1.0
  9
$ATTMODE
 70
1
  9
$TEXTSIZE
 40
2.5
  9
$TRACEWID
 40
1.0
  9
$TEXTSTYLE
  7
OpenSans
  9
$CLAYER
  8
0
  9
$CELTYPE
  6
ByLayer
  9
$CECOLOR
 62
256
  9
$CELTSCALE
 40
1.0
  9
$DISPSILH
 70
0
  9
$DIMSCALE
 40
1.0
  9
$DIMASZ
 40
0.175
  9
$DIMEXO
 40
0.125
  9
$DIMDLI
 40
3.75
  9
$DIMRND
 40
0.0
  9
$DIMDLE
 40
0.0
  9
$DIMEXE
 40
0.375
  9
$DIMTP
 40
0.0
  9
$DIMTM
 40
0.0
  9
$DIMTXT
 40
0.25
  9
$DIMCEN
 40
2.5
  9
$DIMTSZ
 40
0.0
  9
$DIMTOL
 70
0
  9
$DIMLIM
 70
0
  9
$DIMTIH
 70
0
  9
$DIMTOH
 70
0
  9
$DIMSE1
 70
0
  9
$DIMSE2
 70
0
  9
$DIMTAD
 70
1
  9
$DIMZIN
 70
12
  9
$DIMBLK
  1
ARCHTICK
  9
$DIMASO
 70
1
  9
$DIMSHO
 70
1
  9
$DIMPOST
  1

  9
$DIMAPOST
  1

  9
$DIMALT
 70
0
  9
$DIMALTD
 70
3
  9
$DIMALTF
 40
0.03937007874
  9
$DIMLFAC
 40
100.0
  9
$DIMTOFL
 70
1
  9
$DIMTVP
 40
0.0
  9
$DIMTIX
 70
0
  9
$DIMSOXD
 70
0
  9
$DIMSAH
 70
0
  9
$DIMBLK1
  1

  9
$DIMBLK2
  1

  9
$DIMSTYLE
  2
EZDXF
  9
$DIMCLRD
 70
0
  9
$DIMCLRE
 70
0
  9
$DIMCLRT
 70
0
  9
$DIMTFAC
 40
0.5
  9
$DIMGAP
 40
0.1
  9
$DIMJUST
 70
0
  9
$DIMSD1
 70
0
  9
$DIMSD2
 70
0
  9
$DIMTOLJ
 70
0
  9
$DIMTZIN
 70
8
  9
$DIMALTZ
 70
0
  9
$DIMALTTZ
 70
0
  9
$DIMUPT
 70
1
  9
$DIMDEC
 70
2
  9
$DIMTDEC
 70
2
  9
$DIMALTU
 70
2
  9
$DIMALTTD
 70
3
  9
$DIMTXSTY
  7
OpenSansCondensed-Light
  9
$DIMAUNIT
 70
0
  9
$DIMADEC
 70
2
  9
$DIMALTRND
 40
0.0
  9
$DIMAZIN
 70
3
  9
$DIMDSEP
 70
46
  9
$DIMATFIT
 70
3
  9
$DIMFRAC
 70
0
  9
$DIMLDRBLK
  1

  9
$DIMLUNIT
 70
2
  9
$DIMLWD
 70
-2
  9
$DIMLWE
 70
-2
  9
$DIMTMOVE
 70
2
  9
$DIMFXL
 40
1.0
  9
$DIMFXLON
 70
0
  9
$DIMJOGANG
 40
0.785398163397
  9
$DIMTFILL
 70
0
  9
$DIMTFILLCLR
 70
0
  9
$DIMARCSYM
 70
0
  9
$DIMLTYPE
  6

  9
$DIMLTEX1
  6

  9
$DIMLTEX2
  6

  9
$DIMTXTDIRECTION
 70
0
  9
$LUNITS
 70
2
  9
$LUPREC
 70
4
  9
$SKETCHINC
 40
1.0
  9
$FILLETRAD
 40
10.0
  9
$AUNITS
 70
0
  9
$AUPREC
 70
2
  9
$MENU
  1
.
  9
$ELEVATION
 40
0.0
  9
$PELEVATION
 40
0.0
  9
$THICKNESS
 40
0.0
  9
$LIMCHECK
 70
0
  9
$CHAMFERA
 40
0.0
  9
$CHAMFERB
 40
0.0
  9
$CHAMFERC
 40
0.0
  9
$CHAMFERD
 40
0.0
  9
$SKPOLY
 70
0
  9
$TDCREATE
 40
2461222.535763889
  9
$TDUCREATE
 40
2458532.153996898
  9
$TDUPDATE
 40
2461222.535763889
  9
$TDUUPDATE
 40
2458532.1544311
  9
$TDINDWG
 40
0.0
  9
$TDUSRTIMER
 40
0.0
  9
$USRTIMER
 70
1
  9
$ANGBASE
 50
0.0
  9
$ANGDIR
 70
0
  9
$PDMODE
 70
0
  9
$PDSIZE
 40
0.0
  9
$PLINEWID
 40
0.0
  9
$SPLFRAME
 70
0
  9
$SPLINETYPE
 70
6
  9
$SPLINESEGS
 70
8
  9
$HANDSEED
  5
33C
  9
$SURFTAB1
 70
6
  9
$SURFTAB2
 70
6
  9
$SURFTYPE
 70
6
  9
$SURFU
 70
6
  9
$SURFV
 70
6
  9
$UCSBASE
  2

  9
$UCSNAME
  2

  9
$UCSORG
 10
0.0
 20
0.0
 30
0.0
  9
$UCSXDIR
 10
1.0
 20
0.0
 30
0.0
  9
$UCSYDIR
 10
0.0
 20
1.0
 30
0.0
  9
$UCSORTHOREF
  2

  9
$UCSORTHOVIEW
 70
0
  9
$UCSORGTOP
 10
0.0
 20
0.0
 30
0.0
  9
$UCSORGBOTTOM
 10
0.0
 20
0.0
 30
0.0
  9
$UCSORGLEFT
 10
0.0
 20
0.0
 30
0.0
  9
$UCSORGRIGHT
 10
0.0
 20
0.0
 30
0.0
  9
$UCSORGFRONT
 10
0.0
 20
0.0
 30
0.0
  9
$UCSORGBACK
 10
0.0
 20
0.0
 30
0.0
  9
$PUCSBASE
  2

  9
$PUCSNAME
  2

  9
$PUCSORG
 10
0.0
 20
0.0
 30
0.0
  9
$PUCSXDIR
 10
1.0
 20
0.0
 30
0.0
  9
$PUCSYDIR
 10
0.0
 20
1.0
 30
0.0
  9
$PUCSORTHOREF
  2

  9
$PUCSORTHOVIEW
 70
0
  9
$PUCSORGTOP
 10
0.0
 20
0.0
 30
0.0
  9
$PUCSORGBOTTOM
 10
0.0
 20
0.0
 30
0.0
  9
$PUCSORGLEFT
 10
0.0
 20
0.0
 30
0.0
  9
$PUCSORGRIGHT
 10
0.0
 20
0.0
 30
0.0
  9
$PUCSORGFRONT
 10
0.0
 20
0.0
 30
0.0
  9
$PUCSORGBACK
 10
0.0
 20
0.0
 30
0.0
  9
$USERI1
 70
0
  9
$USERI2
 70
0
  9
$USERI3
 70
0
  9
$USERI4
 70
0
  9
$USERI5
 70
0
  9
$USERR1
 40
0.0
  9
$USERR2
 40
0.0
  9
$USERR3
 40
0.0
  9
$USERR4
 40
0.0
  9
$USERR5
 40
0.0
  9
$WORLDVIEW
 70
1
  9
$SHADEDGE
 70
3
  9
$SHADEDIF
 70
70
  9
$TILEMODE
 70
1
  9
$MAXACTVP
 70
64
  9
$PINSBASE
 10
0.0
 20
0.0
 30
0.0
  9
$PLIMCHECK
 70
0
  9
$PEXTMIN
 10
1e+20
 20
1e+20
 30
1e+20
  9
$PEXTMAX
 10
-1e+20
 20
-1e+20
 30
-1e+20
  9
$PLIMMIN
 10
0.0
 20
0.0
  9
$PLIMMAX
 10
420.0
 20
297.0
  9
$UNITMODE
 70
0
  9
$VISRETAIN
 70
1
  9
$PLINEGEN
 70
0
  9
$PSLTSCALE
 70
1
  9
$TREEDEPTH
 70
3020
  9
$CMLSTYLE
  2
Standard
  9
$CMLJUST
 70
0
  9
$CMLSCALE
 40
20.0
  9
$PROXYGRAPHICS
 70
1
  9
$MEASUREMENT
 70
1
  9
$CELWEIGHT
370
-1
  9
$ENDCAPS
280
0
  9
$JOINSTYLE
280
0
  9
$LWDISPLAY
290
0
  9
$INSUNITS
 70
6
  9
$HYPERLINKBASE
  1

  9
$STYLESHEET
  1

  9
$XEDIT
290
1
  9
$CEPSNTYPE
380
0
  9
$PSTYLEMODE
290
1
  9
$FINGERPRINTGUID
  2
{17F06D97-B4F7-463E-A6E2-45E7BF757839}
  9
$VERSIONGUID
  2
{761A35DA-6E0D-478B-8E19-F809D3D61466}
  9
$EXTNAMES
290
1
  9
$PSVPSCALE
 40
0.0
  9
$OLESTARTUP
290
0
  9
$SORTENTS
280
127
  9
$INDEXCTL
280
0
  9
$HIDETEXT
280
1
  9
$XCLIPFRAME
280
1
  9
$HALOGAP
280
0
  9
$OBSCOLOR
 70
257
  9
$OBSLTYPE
280
0
  9
$INTERSECTIONDISPLAY
280
0
  9
$INTERSECTIONCOLOR
 70
257
  9
$DIMASSOC
280
2
  9
$PROJECTNAME
  1

  9
$CAMERADISPLAY
290
0
  9
$LENSLENGTH
 40
50.0
  9
$CAMERAHEIGHT
 40
0.0
  9
$STEPSPERSEC
 40
24.0
  9
$STEPSIZE
 40
100.0
  9
$3DDWFPREC
 40
2.0
  9
$PSOLWIDTH
 40
0.005
  9
$PSOLHEIGHT
 40
0.08
  9
$LOFTANG1
 40
1.570796326795
  9
$LOFTANG2
 40
1.570796326795
  9
$LOFTMAG1
 40
0.0
  9
$LOFTMAG2
 40
0.0
  9
$LOFTPARAM
 70
7
  9
$LOFTNORMALS
280
1
  9
$LATITUDE
 40
37.795
  9
$LONGITUDE
 40
-122.394
  9
$NORTHDIRECTION
 40
0.0
  9
$TIMEZONE
 70
-8000
  9
$LIGHTGLYPHDISPLAY
280
1
  9
$TILEMODELIGHTSYNCH
280
1
  9
$CMATERIAL
347
20
  9
$SOLIDHIST
280
0
  9
$SHOWHIST
280
1
  9
$DWFFRAME
280
2
  9
$DGNFRAME
280
2
  9
$REALWORLDSCALE
290
1
  9
$INTERFERECOLOR
 62
256
  9
$CSHADOW
280
0
  9
$SHADOWPLANELOCATION
 40
0.0
  0
ENDSEC
  0
SECTION
  2
CLASSES
  0
CLASS
  1
ACDBDICTIONARYWDFLT
  2
AcDbDictionaryWithDefault
  3
ObjectDBX Classes
 90
0
 91
0
280
0
281
0
  0
CLASS
  1
SUN
  2
AcDbSun
  3
SCENEOE
 90
1153
 91
0
280
0
281
0
  0
CLASS
  1
VISUALSTYLE
  2
AcDbVisualStyle
  3
ObjectDBX Classes
 90
4095
 91
0
280
0
281
0
  0
CLASS
  1
MATERIAL
  2
AcDbMaterial
  3
ObjectDBX Classes
 90
1153
 91
0
280
0
281
0
  0
CLASS
  1
SCALE
  2
AcDbScale
  3
ObjectDBX Classes
 90
1153
 91
0
280
0
281
0
  0
CLASS
  1
TABLESTYLE
  2
AcDbTableStyle
  3
ObjectDBX Classes
 90
4095
 91
0
280
0
281
0
  0
CLASS
  1
MLEADERSTYLE
  2
AcDbMLeaderStyle
  3
ACDB_MLEADERSTYLE_CLASS
 90
4095
 91
0
280
0
281
0
  0
CLASS
  1
DICTIONARYVAR
  2
AcDbDictionaryVar
  3
ObjectDBX Classes
 90
0
 91
0
280
0
281
0
  0
CLASS
  1
CELLSTYLEMAP
  2
AcDbCellStyleMap
  3
ObjectDBX Classes
 90
1152
 91
0
280
0
281
0
  0
CLASS
  1
MENTALRAYRENDERSETTINGS
  2
AcDbMentalRayRenderSettings
  3
SCENEOE
 90
1024
 91
0
280
0
281
0
  0
CLASS
  1
ACDBDETAILVIEWSTYLE
  2
AcDbDetailViewStyle
  3
ObjectDBX Classes
 90
1025
 91
0
280
0
281
0
  0
CLASS
  1
ACDBSECTIONVIEWSTYLE
  2
AcDbSectionViewStyle
  3
ObjectDBX Classes
 90
1025
 91
0
280
0
281
0
  0
CLASS
  1
RASTERVARIABLES
  2
AcDbRasterVariables
  3
ISM
 90
0
 91
0
280
0
281
0
  0
CLASS
  1
LAYOUT
  2
AcDbLayout
  3
ObjectDBX Classes
 90
0
 91
0
280
0
281
0
  0
CLASS
  1
ACDBPLACEHOLDER
  2
AcDbPlaceHolder
  3
ObjectDBX Classes
 90
0
 91
0
280
0
281
0
  0
ENDSEC
  0
SECTION
  2
TABLES
  0
TABLE
  2
VPORT
  5
8
330
0
100
AcDbSymbolTable
 70
1
  0
VPORT
  5
338
330
8
100
AcDbSymbolTableRecord
100
AcDbViewportTableRecord
  2
*Active
 70
0
 10
0.0
 20
0.0
 11
1.0
 21
1.0
 12
415.78308321964505
 22
1661.43860845839
 13
0.0
 23
0.0
 14
0.5
 24
0.5
 15
0.5
 25
0.5
 16
0.0
 26
0.0
 36
1.0
 17
0.0
 27
0.0
 37
0.0
 40
4569.783083219645
 41
1.34
 42
50.0
 43
0.0
 44
0.0
 50
0.0
 51
0.0
 71
0
 72
1000
 73
1
 74
3
 75
0
 76
0
 77
0
 78
0
281
0
 65
1
110
0.0
120
0.0
130
0.0
111
1.0
121
0.0
131
0.0
112
0.0
122
1.0
132
0.0
 79
0
146
0.0
  0
ENDTAB
  0
TABLE
  2
LTYPE
  5
2
330
0
100
AcDbSymbolTable
 70
21
  0
LTYPE
  5
24
330
2
100
AcDbSymbolTableRecord
100
AcDbLinetypeTableRecord
  2
ByBlock
 70
0
  3

 72
65
 73
0
 40
0.0
  0
LTYPE
  5
25
330
2
100
AcDbSymbolTableRecord
100
AcDbLinetypeTableRecord
  2
ByLayer
 70
0
  3

 72
65
 73
0
 40
0.0
  0
LTYPE
  5
26
330
2
100
AcDbSymbolTableRecord
100
AcDbLinetypeTableRecord
  2
Continuous
 70
0
  3

 72
65
 73
0
 40
0.0
  0
LTYPE
  5
2F
330
2
100
AcDbSymbolTableRecord
100
AcDbLinetypeTableRecord
  2
CENTER
 70
0
  3
Center ____ _ ____ _ ____ _ ____ _ ____ _ ____
 72
65
 73
4
 40
5.08
 49
3.175
 74
0
 49
-0.635
 74
0
 49
0.635
 74
0
 49
-0.635
 74
0
  0
LTYPE
  5
30
330
2
100
AcDbSymbolTableRecord
100
AcDbLinetypeTableRecord
  2
CENTERX2
 70
0
  3
Center (2x) ________  __  ________  __  ________
 72
65
 73
4
 40
8.89
 49
6.35
 74
0
 49
-0.635
 74
0
 49
1.27
 74
0
 49
-0.635
 74
0
  0
LTYPE
  5
31
330
2
100
AcDbSymbolTableRecord
100
AcDbLinetypeTableRecord
  2
CENTER2
 70
0
  3
Center (.5x) ____ _ ____ _ ____ _ ____ _ ____
 72
65
 73
4
 40
2.54
 49
1.587
 74
0
 49
-0.318
 74
0
 49
0.318
 74
0
 49
-0.318
 74
0
  0
LTYPE
  5
32
330
2
100
AcDbSymbolTableRecord
100
AcDbLinetypeTableRecord
  2
DASHED
 70
0
  3
Dashed __ __ __ __ __ __ __ __ __ __ __ __ __ _
 72
65
 73
2
 40
1.524
 49
1.27
 74
0
 49
-0.254
 74
0
  0
LTYPE
  5
33
330
2
100
AcDbSymbolTableRecord
100
AcDbLinetypeTableRecord
  2
DASHEDX2
 70
0
  3
Dashed (2x) ____  ____  ____  ____  ____  ____
 72
65
 73
2
 40
3.048
 49
2.54
 74
0
 49
-0.508
 74
0
  0
LTYPE
  5
34
330
2
100
AcDbSymbolTableRecord
100
AcDbLinetypeTableRecord
  2
DASHED2
 70
0
  3
Dashed (.5x) _ _ _ _ _ _ _ _ _ _ _ _ _ _
 72
65
 73
2
 40
0.762
 49
0.635
 74
0
 49
-0.127
 74
0
  0
LTYPE
  5
35
330
2
100
AcDbSymbolTableRecord
100
AcDbLinetypeTableRecord
  2
PHANTOM
 70
0
  3
Phantom ______  __  __  ______  __  __  ______
 72
65
 73
6
 40
6.35
 49
3.175
 74
0
 49
-0.635
 74
0
 49
0.635
 74
0
 49
-0.635
 74
0
 49
0.635
 74
0
 49
-0.635
 74
0
  0
LTYPE
  5
36
330
2
100
AcDbSymbolTableRecord
100
AcDbLinetypeTableRecord
  2
PHANTOMX2
 70
0
  3
Phantom (2x)____________    ____    ____    ____________
 72
65
 73
6
 40
10.795
 49
6.35
 74
0
 49
-0.635
 74
0
 49
1.27
 74
0
 49
-0.635
 74
0
 49
1.27
 74
0
 49
-0.635
 74
0
  0
LTYPE
  5
37
330
2
100
AcDbSymbolTableRecord
100
AcDbLinetypeTableRecord
  2
PHANTOM2
 70
0
  3
Phantom (.5x) ___ _ _ ___ _ _ ___ _ _ ___ _ _ ___
 72
65
 73
6
 40
3.175
 49
1.587
 74
0
 49
-0.318
 74
0
 49
0.318
 74
0
 49
-0.318
 74
0
 49
0.318
 74
0
 49
-0.318
 74
0
  0
LTYPE
  5
38
330
2
100
AcDbSymbolTableRecord
100
AcDbLinetypeTableRecord
  2
DASHDOT
 70
0
  3
Dash dot __ . __ . __ . __ . __ . __ . __ . __
 72
65
 73
4
 40
3.556
 49
2.54
 74
0
 49
-0.508
 74
0
 49
0.0
 74
0
 49
-0.508
 74
0
  0
LTYPE
  5
39
330
2
100
AcDbSymbolTableRecord
100
AcDbLinetypeTableRecord
  2
DASHDOTX2
 70
0
  3
Dash dot (2x) ____  .  ____  .  ____  .  ____
 72
65
 73
4
 40
6.096
 49
5.08
 74
0
 49
-0.508
 74
0
 49
0.0
 74
0
 49
-0.508
 74
0
  0
LTYPE
  5
3A
330
2
100
AcDbSymbolTableRecord
100
AcDbLinetypeTableRecord
  2
DASHDOT2
 70
0
  3
Dash dot (.5x) _ . _ . _ . _ . _ . _ . _ . _
 72
65
 73
4
 40
1.778
 49
1.27
 74
0
 49
-0.254
 74
0
 49
0.0
 74
0
 49
-0.254
 74
0
  0
LTYPE
  5
3B
330
2
100
AcDbSymbolTableRecord
100
AcDbLinetypeTableRecord
  2
DOT
 70
0
  3
Dot .  .  .  .  .  .  .  .  .  .  .  .  .  .  .  .
 72
65
 73
2
 40
0.508
 49
0.0
 74
0
 49
-0.508
 74
0
  0
LTYPE
  5
3C
330
2
100
AcDbSymbolTableRecord
100
AcDbLinetypeTableRecord
  2
DOTX2
 70
0
  3
Dot (2x) .    .    .    .    .    .    .    . 
 72
65
 73
2
 40
1.016
 49
0.0
 74
0
 49
-1.016
 74
0
  0
LTYPE
  5
3D
330
2
100
AcDbSymbolTableRecord
100
AcDbLinetypeTableRecord
  2
DOT2
 70
0
  3
Dot (.5) . . . . . . . . . . . . . . . . . . . 
 72
65
 73
2
 40
0.254
 49
0.0
 74
0
 49
-0.254
 74
0
  0
LTYPE
  5
3E
330
2
100
AcDbSymbolTableRecord
100
AcDbLinetypeTableRecord
  2
DIVIDE
 70
0
  3
Divide __ . . __ . . __ . . __ . . __ . . __
 72
65
 73
6
 40
4.064
 49
2.54
 74
0
 49
-0.508
 74
0
 49
0.0
 74
0
 49
-0.508
 74
0
 49
0.0
 74
0
 49
-0.508
 74
0
  0
LTYPE
  5
3F
330
2
100
AcDbSymbolTableRecord
100
AcDbLinetypeTableRecord
  2
DIVIDEX2
 70
0
  3
Divide (2x) ____  . .  ____  . .  ____  . .  ____
 72
65
 73
6
 40
6.604
 49
5.08
 74
0
 49
-0.508
 74
0
 49
0.0
 74
0
 49
-0.508
 74
0
 49
0.0
 74
0
 49
-0.508
 74
0
  0
LTYPE
  5
40
330
2
100
AcDbSymbolTableRecord
100
AcDbLinetypeTableRecord
  2
DIVIDE2
 70
0
  3
Divide(.5x) _ . _ . _ . _ . _ . _ . _ . _
 72
65
 73
6
 40
2.032
 49
1.27
 74
0
 49
-0.254
 74
0
 49
0.0
 74
0
 49
-0.254
 74
0
 49
0.0
 74
0
 49
-0.254
 74
0
  0
ENDTAB
  0
TABLE
  2
LAYER
  5
1
330
0
100
AcDbSymbolTable
 70
22
  0
LAYER
  5
27
330
1
100
AcDbSymbolTableRecord
100
AcDbLayerTableRecord
  2
0
 70
0
 62
7
  6
Continuous
370
-3
390
13
347
21
  0
LAYER
  5
28
330
1
100
AcDbSymbolTableRecord
100
AcDbLayerTableRecord
  2
Defpoints
 70
0
 62
7
  6
Continuous
290
0
370
-3
390
13
347
21
  0
LAYER
  5
8B
330
1
100
AcDbSymbolTableRecord
100
AcDbLayerTableRecord
  2
BOUNDARY
 70
0
 62
7
  6
CONTINUOUS
370
50
390
13
347
21
1001
AcCmTransparency
1071
33554687
1001
AcAecLayerStandard
1000

1000
Port / site boundary
  0
LAYER
  5
8E
330
1
100
AcDbSymbolTableRecord
100
AcDbLayerTableRecord
  2
LAND
 70
0
 62
42
  6
CONTINUOUS
370
18
390
13
347
21
1001
AcCmTransparency
1071
33554687
1001
AcAecLayerStandard
1000

1000
Reclaimed land area
  0
LAYER
  5
8F
330
1
100
AcDbSymbolTableRecord
100
AcDbLayerTableRecord
  2
WATER
 70
0
 62
140
  6
CONTINUOUS
370
18
390
13
347
21
1001
AcCmTransparency
1071
33554546
1001
AcAecLayerStandard
1000

1000
Harbour & sea water
  0
LAYER
  5
90
330
1
100
AcDbSymbolTableRecord
100
AcDbLayerTableRecord
  2
BREAKWATER
 70
0
 62
32
  6
CONTINUOUS
370
50
390
13
347
21
1001
AcCmTransparency
1071
33554687
1001
AcAecLayerStandard
1000

1000
Rubble-mound breakwaters
  0
LAYER
  5
91
330
1
100
AcDbSymbolTableRecord
100
AcDbLayerTableRecord
  2
CHANNEL
 70
0
 62
150
  6
CONTINUOUS
370
25
390
13
347
21
1001
AcCmTransparency
1071
33554610
1001
AcAecLayerStandard
1000

1000
Navigation channel
  0
LAYER
  5
92
330
1
100
AcDbSymbolTableRecord
100
AcDbLayerTableRecord
  2
TURNING_BASIN
 70
0
 62
151
  6
CONTINUOUS
370
25
390
13
347
21
1001
AcCmTransparency
1071
33554610
1001
AcAecLayerStandard
1000

1000
Turning basin
  0
LAYER
  5
93
330
1
100
AcDbSymbolTableRecord
100
AcDbLayerTableRecord
  2
BERTHS
 70
0
 62
30
  6
CONTINUOUS
370
35
390
13
347
21
1001
AcCmTransparency
1071
33554687
1001
AcAecLayerStandard
1000

1000
Berth faces
  0
LAYER
  5
94
330
1
100
AcDbSymbolTableRecord
100
AcDbLayerTableRecord
  2
QUAYS
 70
0
 62
33
  6
CONTINUOUS
370
50
390
13
347
21
1001
AcCmTransparency
1071
33554687
1001
AcAecLayerStandard
1000

1000
Quay walls / aprons
  0
LAYER
  5
95
330
1
100
AcDbSymbolTableRecord
100
AcDbLayerTableRecord
  2
TERMINALS
 70
0
 62
8
  6
CONTINUOUS
370
25
390
13
347
21
1001
AcCmTransparency
1071
33554687
1001
AcAecLayerStandard
1000

1000
Terminal parcels
  0
LAYER
  5
96
330
1
100
AcDbSymbolTableRecord
100
AcDbLayerTableRecord
  2
ROADS
 70
0
 62
9
  6
CONTINUOUS
370
20
390
13
347
21
1001
AcCmTransparency
1071
33554687
1001
AcAecLayerStandard
1000

1000
Internal road network
  0
LAYER
  5
97
330
1
100
AcDbSymbolTableRecord
100
AcDbLayerTableRecord
  2
TANKS
 70
0
 62
20
  6
CONTINUOUS
370
35
390
13
347
21
1001
AcCmTransparency
1071
33554687
1001
AcAecLayerStandard
1000

1000
Liquid bulk tanks
  0
LAYER
  5
98
330
1
100
AcDbSymbolTableRecord
100
AcDbLayerTableRecord
  2
SILOS
 70
0
 62
40
  6
CONTINUOUS
370
35
390
13
347
21
1001
AcCmTransparency
1071
33554687
1001
AcAecLayerStandard
1000

1000
Dry bulk silos
  0
LAYER
  5
99
330
1
100
AcDbSymbolTableRecord
100
AcDbLayerTableRecord
  2
FACILITIES
 70
0
 62
50
  6
CONTINUOUS
370
25
390
13
347
21
1001
AcCmTransparency
1071
33554687
1001
AcAecLayerStandard
1000

1000
Buildings & port facilities
  0
LAYER
  5
9A
330
1
100
AcDbSymbolTableRecord
100
AcDbLayerTableRecord
  2
DIMENSIONS
 70
0
 62
1
  6
CONTINUOUS
370
18
390
13
347
21
1001
AcCmTransparency
1071
33554687
1001
AcAecLayerStandard
1000

1000
Dimension lines
  0
LAYER
  5
9B
330
1
100
AcDbSymbolTableRecord
100
AcDbLayerTableRecord
  2
CENTERLINES
 70
0
 62
4
  6
CENTER2
370
13
390
13
347
21
1001
AcCmTransparency
1071
33554687
1001
AcAecLayerStandard
1000

1000
Centrelines
  0
LAYER
  5
9C
330
1
100
AcDbSymbolTableRecord
100
AcDbLayerTableRecord
  2
TEXT
 70
0
 62
7
  6
CONTINUOUS
370
18
390
13
347
21
1001
AcCmTransparency
1071
33554687
1001
AcAecLayerStandard
1000

1000
General annotation text
  0
LAYER
  5
9D
330
1
100
AcDbSymbolTableRecord
100
AcDbLayerTableRecord
  2
HATCH
 70
0
 62
250
  6
CONTINUOUS
370
13
390
13
347
21
1001
AcCmTransparency
1071
33554521
1001
AcAecLayerStandard
1000

1000
Fill hatching
  0
LAYER
  5
9E
330
1
100
AcDbSymbolTableRecord
100
AcDbLayerTableRecord
  2
GRID
 70
0
 62
8
  6
DASHED2
370
9
390
13
347
21
1001
AcCmTransparency
1071
33554482
1001
AcAecLayerStandard
1000

1000
Coordinate grid
  0
LAYER
  5
9F
330
1
100
AcDbSymbolTableRecord
100
AcDbLayerTableRecord
  2
LEGEND
 70
0
 62
7
  6
CONTINUOUS
370
18
390
13
347
21
1001
AcCmTransparency
1071
33554687
1001
AcAecLayerStandard
1000

1000
Legend block
  0
LAYER
  5
A0
330
1
100
AcDbSymbolTableRecord
100
AcDbLayerTableRecord
  2
TITLEBLOCK
 70
0
 62
7
  6
CONTINUOUS
370
50
390
13
347
21
1001
AcCmTransparency
1071
33554687
1001
AcAecLayerStandard
1000

1000
Title block & border
  0
ENDTAB
  0
TABLE
  2
STYLE
  5
5
330
0
100
AcDbSymbolTable
 70
27
  0
STYLE
  5
29
330
5
100
AcDbSymbolTableRecord
100
AcDbTextStyleTableRecord
  2
Standard
 70
0
 40
0.0
 41
1.0
 50
0.0
 71
0
 42
2.5
  3
txt
  4

  0
STYLE
  5
41
330
5
100
AcDbSymbolTableRecord
100
AcDbTextStyleTableRecord
  2
OpenSans-Light
 70
0
 40
0.0
 41
1.0
 50
0.0
 71
0
 42
2.5
  3
OpenSans-Light.ttf
  4

  0
STYLE
  5
42
330
5
100
AcDbSymbolTableRecord
100
AcDbTextStyleTableRecord
  2
OpenSans-Light-Italic
 70
0
 40
0.0
 41
1.0
 50
0.0
 71
0
 42
2.5
  3
OpenSans-LightItalic.ttf
  4

  0
STYLE
  5
43
330
5
100
AcDbSymbolTableRecord
100
AcDbTextStyleTableRecord
  2
OpenSans
 70
0
 40
0.0
 41
1.0
 50
0.0
 71
0
 42
2.5
  3
OpenSans-Regular.ttf
  4

  0
STYLE
  5
44
330
5
100
AcDbSymbolTableRecord
100
AcDbTextStyleTableRecord
  2
OpenSans-Italic
 70
0
 40
0.0
 41
1.0
 50
0.0
 71
0
 42
2.5
  3
OpenSans-Italic.ttf
  4

  0
STYLE
  5
45
330
5
100
AcDbSymbolTableRecord
100
AcDbTextStyleTableRecord
  2
OpenSans-SemiBold
 70
0
 40
0.0
 41
1.0
 50
0.0
 71
0
 42
2.5
  3
OpenSans-SemiBold.ttf
  4

  0
STYLE
  5
46
330
5
100
AcDbSymbolTableRecord
100
AcDbTextStyleTableRecord
  2
OpenSans-SemiBoldItalic
 70
0
 40
0.0
 41
1.0
 50
0.0
 71
0
 42
2.5
  3
OpenSans-SemiBoldItalic.ttf
  4

  0
STYLE
  5
47
330
5
100
AcDbSymbolTableRecord
100
AcDbTextStyleTableRecord
  2
OpenSans-Bold
 70
0
 40
0.0
 41
1.0
 50
0.0
 71
0
 42
2.5
  3
OpenSans-Bold.ttf
  4

  0
STYLE
  5
48
330
5
100
AcDbSymbolTableRecord
100
AcDbTextStyleTableRecord
  2
OpenSans-BoldItalic
 70
0
 40
0.0
 41
1.0
 50
0.0
 71
0
 42
2.5
  3
OpenSans-BoldItalic.ttf
  4

  0
STYLE
  5
49
330
5
100
AcDbSymbolTableRecord
100
AcDbTextStyleTableRecord
  2
OpenSans-ExtraBold
 70
0
 40
0.0
 41
1.0
 50
0.0
 71
0
 42
2.5
  3
OpenSans-ExtraBold.ttf
  4

  0
STYLE
  5
4A
330
5
100
AcDbSymbolTableRecord
100
AcDbTextStyleTableRecord
  2
OpenSans-ExtraBoldItalic
 70
0
 40
0.0
 41
1.0
 50
0.0
 71
0
 42
2.5
  3
OpenSans-ExtraBoldItalic.ttf
  4

  0
STYLE
  5
4B
330
5
100
AcDbSymbolTableRecord
100
AcDbTextStyleTableRecord
  2
OpenSansCondensed-Bold
 70
0
 40
0.0
 41
1.0
 50
0.0
 71
0
 42
2.5
  3
OpenSansCondensed-Bold.ttf
  4

  0
STYLE
  5
4C
330
5
100
AcDbSymbolTableRecord
100
AcDbTextStyleTableRecord
  2
OpenSansCondensed-Light
 70
0
 40
0.0
 41
1.0
 50
0.0
 71
0
 42
2.5
  3
OpenSansCondensed-Light.ttf
  4

  0
STYLE
  5
4D
330
5
100
AcDbSymbolTableRecord
100
AcDbTextStyleTableRecord
  2
OpenSansCondensed-Italic
 70
0
 40
0.0
 41
1.0
 50
0.0
 71
0
 42
2.5
  3
OpenSansCondensed-LightItalic.ttf
  4

  0
STYLE
  5
4E
330
5
100
AcDbSymbolTableRecord
100
AcDbTextStyleTableRecord
  2
LiberationSans
 70
0
 40
0.0
 41
1.0
 50
0.0
 71
0
 42
2.5
  3
LiberationSans-Regular.ttf
  4

  0
STYLE
  5
4F
330
5
100
AcDbSymbolTableRecord
100
AcDbTextStyleTableRecord
  2
LiberationSans-Bold
 70
0
 40
0.0
 41
1.0
 50
0.0
 71
0
 42
2.5
  3
LiberationSans-Bold.ttf
  4

  0
STYLE
  5
50
330
5
100
AcDbSymbolTableRecord
100
AcDbTextStyleTableRecord
  2
LiberationSans-BoldItalic
 70
0
 40
0.0
 41
1.0
 50
0.0
 71
0
 42
2.5
  3
LiberationSans-BoldItalic.ttf
  4

  0
STYLE
  5
51
330
5
100
AcDbSymbolTableRecord
100
AcDbTextStyleTableRecord
  2
LiberationSans-Italic
 70
0
 40
0.0
 41
1.0
 50
0.0
 71
0
 42
2.5
  3
LiberationSans-Italic.ttf
  4

  0
STYLE
  5
52
330
5
100
AcDbSymbolTableRecord
100
AcDbTextStyleTableRecord
  2
LiberationSerif
 70
0
 40
0.0
 41
1.0
 50
0.0
 71
0
 42
2.5
  3
LiberationSerif-Regular.ttf
  4

  0
STYLE
  5
53
330
5
100
AcDbSymbolTableRecord
100
AcDbTextStyleTableRecord
  2
LiberationSerif-Bold
 70
0
 40
0.0
 41
1.0
 50
0.0
 71
0
 42
2.5
  3
LiberationSerif-Bold.ttf
  4

  0
STYLE
  5
54
330
5
100
AcDbSymbolTableRecord
100
AcDbTextStyleTableRecord
  2
LiberationSerif-BoldItalic
 70
0
 40
0.0
 41
1.0
 50
0.0
 71
0
 42
2.5
  3
LiberationSerif-BoldItalic.ttf
  4

  0
STYLE
  5
55
330
5
100
AcDbSymbolTableRecord
100
AcDbTextStyleTableRecord
  2
LiberationSerif-Italic
 70
0
 40
0.0
 41
1.0
 50
0.0
 71
0
 42
2.5
  3
LiberationSerif-Italic.ttf
  4

  0
STYLE
  5
56
330
5
100
AcDbSymbolTableRecord
100
AcDbTextStyleTableRecord
  2
LiberationMono
 70
0
 40
0.0
 41
1.0
 50
0.0
 71
0
 42
2.5
  3
LiberationMono-Regular.ttf
  4

  0
STYLE
  5
57
330
5
100
AcDbSymbolTableRecord
100
AcDbTextStyleTableRecord
  2
LiberationMono-Bold
 70
0
 40
0.0
 41
1.0
 50
0.0
 71
0
 42
2.5
  3
LiberationMono-Bold.ttf
  4

  0
STYLE
  5
58
330
5
100
AcDbSymbolTableRecord
100
AcDbTextStyleTableRecord
  2
LiberationMono-BoldItalic
 70
0
 40
0.0
 41
1.0
 50
0.0
 71
0
 42
2.5
  3
LiberationMono-BoldItalic.ttf
  4

  0
STYLE
  5
59
330
5
100
AcDbSymbolTableRecord
100
AcDbTextStyleTableRecord
  2
LiberationMono-Italic
 70
0
 40
0.0
 41
1.0
 50
0.0
 71
0
 42
2.5
  3
LiberationMono-Italic.ttf
  4

  0
STYLE
  5
8A
330
5
100
AcDbSymbolTableRecord
100
AcDbTextStyleTableRecord
  2
PORT_TXT
 70
0
 40
0.0
 41
1.0
 50
0.0
 71
0
 42
2.5
  3
isocp.shx
  4

  0
ENDTAB
  0
TABLE
  2
VIEW
  5
7
330
0
100
AcDbSymbolTable
 70
0
  0
ENDTAB
  0
TABLE
  2
UCS
  5
6
330
0
100
AcDbSymbolTable
 70
0
  0
ENDTAB
  0
TABLE
  2
APPID
  5
3
330
0
100
AcDbSymbolTable
 70
5
  0
APPID
  5
2A
330
3
100
AcDbSymbolTableRecord
100
AcDbRegAppTableRecord
  2
ACAD
 70
0
  0
APPID
  5
8C
330
3
100
AcDbSymbolTableRecord
100
AcDbRegAppTableRecord
  2
AcCmTransparency
 70
0
  0
APPID
  5
8D
330
3
100
AcDbSymbolTableRecord
100
AcDbRegAppTableRecord
  2
AcAecLayerStandard
 70
0
  0
APPID
  5
339
330
3
100
AcDbSymbolTableRecord
100
AcDbRegAppTableRecord
  2
HATCHBACKGROUNDCOLOR
 70
0
  0
APPID
  5
33A
330
3
100
AcDbSymbolTableRecord
100
AcDbRegAppTableRecord
  2
EZDXF
 70
0
  0
ENDTAB
  0
TABLE
  2
DIMSTYLE
  5
4
330
0
100
AcDbSymbolTable
 70
13
100
AcDbDimStyleTable
  0
DIMSTYLE
105
2B
330
4
100
AcDbSymbolTableRecord
100
AcDbDimStyleTableRecord
  2
Standard
 70
0
 40
1.0
 41
2.5
 42
0.625
 43
3.75
 44
1.25
 45
0.0
 46
0.0
 47
0.0
 48
0.0
 49
2.5
140
2.5
141
2.5
142
0.0
143
0.03937007874
144
1.0
145
0.0
146
1.0
147
0.625
148
0.0
 69
0
 70
0
 71
0
 72
0
 73
0
 74
0
 75
0
 76
0
 77
1
 78
8
 79
3
170
0
171
3
172
1
173
0
174
0
175
0
176
0
177
0
178
0
179
2
271
2
272
2
273
2
274
3
275
0
276
0
277
2
278
44
279
0
280
0
281
0
282
0
283
0
284
8
285
0
286
0
288
0
289
3
290
0
371
-2
372
-2
  0
DIMSTYLE
105
73
330
4
100
AcDbSymbolTableRecord
100
AcDbDimStyleTableRecord
  2
EZDXF
 70
0
 40
1.0
 41
0.175
 42
0.125
 43
3.75
 44
0.375
 45
0.0
 46
0.0
 47
0.0
 48
0.0
 49
2.5
140
0.25
141
2.5
142
0.0
143
0.03937007874
144
100.0
145
0.0
146
0.5
147
0.1
148
0.0
 69
0
 70
0
 71
0
 72
0
 73
0
 74
0
 75
0
 76
0
 77
1
 78
12
 79
3
170
0
171
3
172
1
173
0
174
0
175
0
176
0
177
0
178
0
179
2
271
2
272
2
273
2
274
3
275
0
276
0
277
2
278
46
279
2
280
0
281
0
282
0
283
0
284
8
285
0
286
0
288
1
289
3
290
0
340
4C
342
74
371
-2
372
-2
  0
DIMSTYLE
105
7C
330
4
100
AcDbSymbolTableRecord
100
AcDbDimStyleTableRecord
  2
EZ_M_100_H25_CM
 70
0
 40
1.0
 41
0.25
 42
0.125
 43
3.75
 44
0.375
 45
0.0
 46
0.0
 47
0.0
 48
0.0
 49
2.5
140
0.25
141
2.5
142
0.125
143
0.03937007874
144
100.0
145
0.0
146
0.5
147
0.1
148
0.0
 69
0
 70
0
 71
0
 72
0
 73
0
 74
0
 75
0
 76
0
 77
1
 78
12
 79
3
170
0
171
3
172
1
173
0
174
0
175
0
176
0
177
0
178
0
179
2
271
2
272
2
273
2
274
3
275
0
276
0
277
2
278
46
279
2
280
0
281
0
282
0
283
0
284
8
285
0
286
0
288
1
289
3
290
0
340
4C
371
-2
372
-2
  0
DIMSTYLE
105
7D
330
4
100
AcDbSymbolTableRecord
100
AcDbDimStyleTableRecord
  2
EZ_M_50_H25_CM
 70
0
 40
1.0
 41
0.125
 42
0.0625
 43
3.75
 44
0.1875
 45
0.0
 46
0.0
 47
0.0
 48
0.0
 49
2.5
140
0.125
141
2.5
142
0.0625
143
0.03937007874
144
100.0
145
0.0
146
0.5
147
0.05
148
0.0
 69
0
 70
0
 71
0
 72
0
 73
0
 74
0
 75
0
 76
0
 77
1
 78
12
 79
3
170
0
171
3
172
1
173
0
174
0
175
0
176
0
177
0
178
0
179
2
271
2
272
2
273
2
274
3
275
0
276
0
277
2
278
46
279
2
280
0
281
0
282
0
283
0
284
8
285
0
286
0
288
1
289
3
290
0
340
4C
371
-2
372
-2
  0
DIMSTYLE
105
7E
330
4
100
AcDbSymbolTableRecord
100
AcDbDimStyleTableRecord
  2
EZ_M_25_H25_CM
 70
0
 40
1.0
 41
0.0625
 42
0.03125
 43
3.75
 44
0.09375
 45
0.0
 46
0.0
 47
0.0
 48
0.0
 49
2.5
140
0.0625
141
2.5
142
0.03125
143
0.03937007874
144
100.0
145
0.0
146
0.5
147
0.025
148
0.0
 69
0
 70
0
 71
0
 72
0
 73
0
 74
0
 75
0
 76
0
 77
1
 78
12
 79
3
170
0
171
3
172
1
173
0
174
0
175
0
176
0
177
0
178
0
179
2
271
2
272
2
273
2
274
3
275
0
276
0
277
2
278
46
279
2
280
0
281
0
282
0
283
0
284
8
285
0
286
0
288
1
289
3
290
0
340
4C
371
-2
372
-2
  0
DIMSTYLE
105
7F
330
4
100
AcDbSymbolTableRecord
100
AcDbDimStyleTableRecord
  2
EZ_M_20_H25_CM
 70
0
 40
1.0
 41
0.05
 42
0.025
 43
3.75
 44
0.07500000000000001
 45
0.0
 46
0.0
 47
0.0
 48
0.0
 49
2.5
140
0.05
141
2.5
142
0.025
143
0.03937007874
144
100.0
145
0.0
146
0.5
147
0.020000000000000004
148
0.0
 69
0
 70
0
 71
0
 72
0
 73
0
 74
0
 75
0
 76
0
 77
1
 78
12
 79
3
170
0
171
3
172
1
173
0
174
0
175
0
176
0
177
0
178
0
179
2
271
2
272
2
273
2
274
3
275
0
276
0
277
2
278
46
279
2
280
0
281
0
282
0
283
0
284
8
285
0
286
0
288
1
289
3
290
0
340
4C
371
-2
372
-2
  0
DIMSTYLE
105
80
330
4
100
AcDbSymbolTableRecord
100
AcDbDimStyleTableRecord
  2
EZ_M_10_H25_CM
 70
0
 40
1.0
 41
0.025
 42
0.0125
 43
3.75
 44
0.037500000000000006
 45
0.0
 46
0.0
 47
0.0
 48
0.0
 49
2.5
140
0.025
141
2.5
142
0.0125
143
0.03937007874
144
100.0
145
0.0
146
0.5
147
0.010000000000000002
148
0.0
 69
0
 70
0
 71
0
 72
0
 73
0
 74
0
 75
0
 76
0
 77
1
 78
12
 79
3
170
0
171
3
172
1
173
0
174
0
175
0
176
0
177
0
178
0
179
2
271
2
272
2
273
2
274
3
275
0
276
0
277
2
278
46
279
2
280
0
281
0
282
0
283
0
284
8
285
0
286
0
288
1
289
3
290
0
340
4C
371
-2
372
-2
  0
DIMSTYLE
105
81
330
4
100
AcDbSymbolTableRecord
100
AcDbDimStyleTableRecord
  2
EZ_M_5_H25_CM
 70
0
 40
1.0
 41
0.0125
 42
0.00625
 43
3.75
 44
0.018750000000000003
 45
0.0
 46
0.0
 47
0.0
 48
0.0
 49
2.5
140
0.0125
141
2.5
142
0.00625
143
0.03937007874
144
100.0
145
0.0
146
0.5
147
0.005000000000000001
148
0.0
 69
0
 70
0
 71
0
 72
0
 73
0
 74
0
 75
0
 76
0
 77
1
 78
12
 79
3
170
0
171
3
172
1
173
0
174
0
175
0
176
0
177
0
178
0
179
2
271
2
272
2
273
2
274
3
275
0
276
0
277
2
278
46
279
2
280
0
281
0
282
0
283
0
284
8
285
0
286
0
288
1
289
3
290
0
340
4C
371
-2
372
-2
  0
DIMSTYLE
105
82
330
4
100
AcDbSymbolTableRecord
100
AcDbDimStyleTableRecord
  2
EZ_M_1_H25_CM
 70
0
 40
1.0
 41
0.0025
 42
0.00125
 43
3.75
 44
0.00375
 45
0.0
 46
0.0
 47
0.0
 48
0.0
 49
2.5
140
0.0025
141
2.5
142
0.00125
143
0.03937007874
144
100.0
145
0.0
146
0.5
147
0.001
148
0.0
 69
0
 70
0
 71
0
 72
0
 73
0
 74
0
 75
0
 76
0
 77
1
 78
12
 79
3
170
0
171
3
172
1
173
0
174
0
175
0
176
0
177
0
178
0
179
2
271
2
272
2
273
2
274
3
275
0
276
0
277
2
278
46
279
2
280
0
281
0
282
0
283
0
284
8
285
0
286
0
288
1
289
3
290
0
340
4C
371
-2
372
-2
  0
DIMSTYLE
105
83
330
4
100
AcDbSymbolTableRecord
100
AcDbDimStyleTableRecord
  2
EZ_RADIUS
 70
0
 40
1.0
 41
0.25
 42
0.125
 43
3.75
 44
0.375
 45
0.0
 46
0.0
 47
0.0
 48
0.0
 49
2.5
140
0.25
141
0.0
142
0.0
143
0.03937007874
144
100.0
145
0.0
146
0.5
147
0.1
148
0.0
 69
0
 70
0
 71
0
 72
0
 73
0
 74
0
 75
0
 76
0
 77
1
 78
12
 79
3
170
0
171
3
172
0
173
0
174
0
175
0
176
0
177
0
178
0
179
2
271
2
272
2
273
2
274
3
275
0
276
0
277
2
278
46
279
1
280
0
281
0
282
0
283
0
284
8
285
0
286
0
288
1
289
3
290
0
340
4C
342
84
371
-2
372
-2
  0
DIMSTYLE
105
88
330
4
100
AcDbSymbolTableRecord
100
AcDbDimStyleTableRecord
  2
EZ_RADIUS_INSIDE
 70
0
 40
1.0
 41
0.25
 42
0.125
 43
3.75
 44
0.375
 45
0.0
 46
0.0
 47
0.0
 48
0.0
 49
2.5
140
0.25
141
0.0
142
0.0
143
0.03937007874
144
100.0
145
0.0
146
0.5
147
0.1
148
0.0
 69
0
 70
0
 71
0
 72
0
 73
0
 74
0
 75
0
 76
0
 77
0
 78
12
 79
3
170
0
171
3
172
0
173
0
174
1
175
0
176
0
177
0
178
0
179
2
271
2
272
2
273
2
274
3
275
0
276
0
277
2
278
46
279
0
280
0
281
0
282
0
283
0
284
8
285
0
286
0
288
1
289
0
290
0
340
4C
342
84
371
-2
372
-2
  0
DIMSTYLE
105
89
330
4
100
AcDbSymbolTableRecord
100
AcDbDimStyleTableRecord
  2
EZ_CURVED
 70
0
 40
1.0
 41
0.25
 42
0.125
 43
3.75
 44
0.375
 45
0.0
 46
0.0
 47
0.0
 48
0.0
 49
2.5
140
0.25
141
2.5
142
0.0
143
0.03937007874
144
100.0
145
0.0
146
0.5
147
0.1
148
0.0
 69
0
 70
0
 71
0
 72
0
 73
0
 74
0
 75
0
 76
0
 77
1
 78
12
 79
2
 90
2
170
0
171
3
172
1
173
0
174
0
175
0
176
0
177
0
178
0
179
2
271
2
272
2
273
2
274
3
275
0
276
0
277
2
278
46
279
2
280
0
281
0
282
0
283
0
284
8
285
0
286
0
288
1
289
3
290
0
340
4C
371
-2
372
-2
  0
DIMSTYLE
105
A1
330
4
100
AcDbSymbolTableRecord
100
AcDbDimStyleTableRecord
  2
PORT
 70
0
 40
1.0
 41
30.0
 42
12.0
 43
3.75
 44
12.0
 45
0.0
 46
0.0
 47
0.0
 48
0.0
 49
2.5
140
40.0
141
2.5
142
0.0
143
0.03937007874
144
1.0
145
0.0
146
1.0
147
8.0
148
0.0
 69
0
 70
0
 71
0
 72
0
 73
0
 74
0
 75
0
 76
0
 77
1
 78
8
 79
3
170
0
171
3
172
1
173
0
174
0
175
0
176
0
177
0
178
0
179
2
271
1
272
2
273
2
274
3
275
0
276
0
277
2
278
44
279
0
280
0
281
0
282
0
283
0
284
8
285
0
286
0
288
0
289
3
290
0
340
8A
371
-2
372
-2
  0
ENDTAB
  0
TABLE
  2
BLOCK_RECORD
  5
9
330
0
100
AcDbSymbolTable
 70
14
  0
BLOCK_RECORD
  5
17
330
9
100
AcDbSymbolTableRecord
100
AcDbBlockTableRecord
  2
*Model_Space
340
1A
 70
0
280
1
281
0
  0
BLOCK_RECORD
  5
1B
330
9
100
AcDbSymbolTableRecord
100
AcDbBlockTableRecord
  2
*Paper_Space
340
1E
 70
0
280
1
281
0
  0
BLOCK_RECORD
  5
74
330
9
100
AcDbSymbolTableRecord
100
AcDbBlockTableRecord
  2
_ARCHTICK
340
0
 70
0
280
1
281
0
  0
BLOCK_RECORD
  5
78
330
9
100
AcDbSymbolTableRecord
100
AcDbBlockTableRecord
  2
_CLOSEDFILLED
340
0
 70
0
280
1
281
0
  0
BLOCK_RECORD
  5
84
330
9
100
AcDbSymbolTableRecord
100
AcDbBlockTableRecord
  2
_CLOSEDBLANK
340
0
 70
0
280
1
281
0
  0
BLOCK_RECORD
  5
25F
330
9
100
AcDbSymbolTableRecord
100
AcDbBlockTableRecord
  2
*D1
340
0
 70
0
280
1
281
0
  0
BLOCK_RECORD
  5
26F
330
9
100
AcDbSymbolTableRecord
100
AcDbBlockTableRecord
  2
*D2
340
0
 70
0
280
1
281
0
  0
BLOCK_RECORD
  5
27F
330
9
100
AcDbSymbolTableRecord
100
AcDbBlockTableRecord
  2
*D3
340
0
 70
0
280
1
281
0
  0
BLOCK_RECORD
  5
28C
330
9
100
AcDbSymbolTableRecord
100
AcDbBlockTableRecord
  2
*D4
340
0
 70
0
280
1
281
0
  0
BLOCK_RECORD
  5
29C
330
9
100
AcDbSymbolTableRecord
100
AcDbBlockTableRecord
  2
*D5
340
0
 70
0
280
1
281
0
  0
BLOCK_RECORD
  5
2AC
330
9
100
AcDbSymbolTableRecord
100
AcDbBlockTableRecord
  2
*D6
340
0
 70
0
280
1
281
0
  0
BLOCK_RECORD
  5
2BC
330
9
100
AcDbSymbolTableRecord
100
AcDbBlockTableRecord
  2
*D7
340
0
 70
0
280
1
281
0
  0
BLOCK_RECORD
  5
2C8
330
9
100
AcDbSymbolTableRecord
100
AcDbBlockTableRecord
  2
*Paper_Space0
340
2CB
 70
0
280
1
281
0
  0
BLOCK_RECORD
  5
300
330
9
100
AcDbSymbolTableRecord
100
AcDbBlockTableRecord
  2
*Paper_Space1
340
303
 70
0
280
1
281
0
  0
ENDTAB
  0
ENDSEC
  0
SECTION
  2
BLOCKS
  0
BLOCK
  5
18
330
17
100
AcDbEntity
  8
0
100
AcDbBlockBegin
  2
*Model_Space
 70
0
 10
0.0
 20
0.0
 30
0.0
  3
*Model_Space
  1

  0
ENDBLK
  5
19
330
17
100
AcDbEntity
  8
0
100
AcDbBlockEnd
  0
BLOCK
  5
1C
330
1B
100
AcDbEntity
  8
0
100
AcDbBlockBegin
  2
*Paper_Space
 70
0
 10
0.0
 20
0.0
 30
0.0
  3
*Paper_Space
  1

  0
ENDBLK
  5
1D
330
1B
100
AcDbEntity
  8
0
100
AcDbBlockEnd
  0
BLOCK
  5
75
330
74
100
AcDbEntity
  8
0
100
AcDbBlockBegin
  2
_ARCHTICK
 70
0
 10
0.0
 20
0.0
 30
0.0
  3
_ARCHTICK
  1

  0
LWPOLYLINE
  5
77
330
74
100
AcDbEntity
  8
0
  6
BYBLOCK
 62
0
100
AcDbPolyline
 90
2
 70
0
 43
0.15
 10
-0.5
 20
-0.5
 10
0.5
 20
0.5
  0
ENDBLK
  5
76
330
74
100
AcDbEntity
  8
0
100
AcDbBlockEnd
  0
BLOCK
  5
79
330
78
100
AcDbEntity
  8
0
100
AcDbBlockBegin
  2
_CLOSEDFILLED
 70
0
 10
0.0
 20
0.0
 30
0.0
  3
_CLOSEDFILLED
  1

  0
SOLID
  5
7B
330
78
100
AcDbEntity
  8
0
  6
BYBLOCK
 62
0
100
AcDbTrace
 10
-1.0
 20
0.16439898372402537
 30
0.0
 11
0.0
 21
0.0
 31
0.0
 12
-1.0
 22
-0.16439898372402537
 32
0.0
 13
-1.0
 23
-0.16439898372402537
 33
0.0
  0
ENDBLK
  5
7A
330
78
100
AcDbEntity
  8
0
100
AcDbBlockEnd
  0
BLOCK
  5
85
330
84
100
AcDbEntity
  8
0
100
AcDbBlockBegin
  2
_CLOSEDBLANK
 70
0
 10
0.0
 20
0.0
 30
0.0
  3
_CLOSEDBLANK
  1

  0
LWPOLYLINE
  5
87
330
84
100
AcDbEntity
  8
0
  6
BYBLOCK
 62
0
100
AcDbPolyline
 90
3
 70
1
 10
-1.0
 20
0.16439898372402537
 10
0.0
 20
0.0
 10
-1.0
 20
-0.16439898372402537
  0
ENDBLK
  5
86
330
84
100
AcDbEntity
  8
0
100
AcDbBlockEnd
  0
BLOCK
  5
260
330
25F
100
AcDbEntity
  8
0
100
AcDbBlockBegin
  2
*D1
 70
1
 10
0.0
 20
0.0
 30
0.0
  3
*D1
  1

  0
LINE
  5
262
330
25F
100
AcDbEntity
  8
0
100
AcDbLine
 10
-1837.0
 20
1638.0
 30
0.0
 11
-1997.0
 21
1638.0
 31
0.0
  0
LINE
  5
263
330
25F
100
AcDbEntity
  8
0
100
AcDbLine
 10
-1837.0
 20
1862.0
 30
0.0
 11
-1997.0
 21
1862.0
 31
0.0
  0
INSERT
  5
264
330
25F
100
AcDbEntity
  8
DIMENSIONS
100
AcDbBlockReference
  2
_CLOSEDFILLED
 10
-1985.0
 20
1638.0
 30
0.0
 41
30.0
 42
30.0
 50
270.0
  0
INSERT
  5
266
330
25F
100
AcDbEntity
  8
DIMENSIONS
100
AcDbBlockReference
  2
_CLOSEDFILLED
 10
-1985.0
 20
1862.0
 30
0.0
 41
30.0
 42
30.0
 50
90.0
  0
LINE
  5
268
330
25F
100
AcDbEntity
  8
0
100
AcDbLine
 10
-1985.0
 20
1668.0
 30
0.0
 11
-1985.0
 21
1690.0
 31
0.0
  0
LINE
  5
269
330
25F
100
AcDbEntity
  8
0
100
AcDbLine
 10
-1985.0
 20
1810.0
 30
0.0
 11
-1985.0
 21
1832.0
 31
0.0
  0
MTEXT
  5
26A
330
25F
100
AcDbEntity
  8
DIMENSIONS
100
AcDbMText
 10
-1985.0
 20
1750.0
 30
0.0
 40
40.0
 71
5
  1
224
  7
PORT_TXT
 50
90.0
  0
POINT
  5
26B
330
25F
100
AcDbEntity
  8
Defpoints
100
AcDbPoint
 10
-1985.0
 20
1638.0
 30
0.0
  0
POINT
  5
26C
330
25F
100
AcDbEntity
  8
Defpoints
100
AcDbPoint
 10
-1825.0
 20
1638.0
 30
0.0
  0
POINT
  5
26D
330
25F
100
AcDbEntity
  8
Defpoints
100
AcDbPoint
 10
-1825.0
 20
1862.0
 30
0.0
  0
ENDBLK
  5
261
330
25F
100
AcDbEntity
  8
0
100
AcDbBlockEnd
  0
BLOCK
  5
270
330
26F
100
AcDbEntity
  8
0
100
AcDbBlockBegin
  2
*D2
 70
1
 10
0.0
 20
0.0
 30
0.0
  3
*D2
  1

  0
LINE
  5
272
330
26F
100
AcDbEntity
  8
0
100
AcDbLine
 10
-2025.0
 20
1426.0
 30
0.0
 11
-2025.0
 21
1366.0
 31
0.0
  0
LINE
  5
273
330
26F
100
AcDbEntity
  8
0
100
AcDbLine
 10
-25.0
 20
1426.0
 30
0.0
 11
-25.0
 21
1366.0
 31
0.0
  0
INSERT
  5
274
330
26F
100
AcDbEntity
  8
DIMENSIONS
100
AcDbBlockReference
  2
_CLOSEDFILLED
 10
-2025.0
 20
1378.0
 30
0.0
 41
30.0
 42
30.0
 50
180.0
  0
INSERT
  5
276
330
26F
100
AcDbEntity
  8
DIMENSIONS
100
AcDbBlockReference
  2
_CLOSEDFILLED
 10
-25.0
 20
1378.0
 30
0.0
 41
30.0
 42
30.0
  0
LINE
  5
278
330
26F
100
AcDbEntity
  8
0
100
AcDbLine
 10
-1995.0
 20
1378.0
 30
0.0
 11
-1105.0
 21
1378.0
 31
0.0
  0
LINE
  5
279
330
26F
100
AcDbEntity
  8
0
100
AcDbLine
 10
-945.0
 20
1378.0
 30
0.0
 11
-55.0
 21
1378.0
 31
0.0
  0
MTEXT
  5
27A
330
26F
100
AcDbEntity
  8
DIMENSIONS
100
AcDbMText
 10
-1025.0
 20
1378.0
 30
0.0
 40
40.0
 71
5
  1
2000
  7
PORT_TXT
  0
POINT
  5
27B
330
26F
100
AcDbEntity
  8
Defpoints
100
AcDbPoint
 10
-2025.0
 20
1378.0
 30
0.0
  0
POINT
  5
27C
330
26F
100
AcDbEntity
  8
Defpoints
100
AcDbPoint
 10
-2025.0
 20
1438.0
 30
0.0
  0
POINT
  5
27D
330
26F
100
AcDbEntity
  8
Defpoints
100
AcDbPoint
 10
-25.0
 20
1438.0
 30
0.0
  0
ENDBLK
  5
271
330
26F
100
AcDbEntity
  8
0
100
AcDbBlockEnd
  0
BLOCK
  5
280
330
27F
100
AcDbEntity
  8
0
100
AcDbBlockBegin
  2
*D3
 70
1
 10
0.0
 20
0.0
 30
0.0
  3
*D3
  1

  0
INSERT
  5
282
330
27F
100
AcDbEntity
  8
DIMENSIONS
100
AcDbBlockReference
  2
_CLOSEDFILLED
 10
29.91747852752232
 20
1617.4174785275222
 30
0.0
 41
30.0
 42
30.0
 50
45.00000000000003
  0
INSERT
  5
284
330
27F
100
AcDbEntity
  8
DIMENSIONS
100
AcDbBlockReference
  2
_CLOSEDFILLED
 10
295.08252147247765
 20
1882.5825214724778
 30
0.0
 41
30.0
 42
30.0
 50
45.00000000000003
  0
LINE
  5
286
330
27F
100
AcDbEntity
  8
0
100
AcDbLine
 10
8.704275091925908
 20
1596.2042750919259
 30
0.0
 11
273.8693180368812
 21
1861.3693180368814
 31
0.0
  0
LINE
  5
287
330
27F
100
AcDbEntity
  8
0
100
AcDbLine
 10
3.0474208424335014
 20
1590.5474208424334
 30
0.0
 11
8.704275091925908
 21
1596.2042750919259
 31
0.0
  0
MTEXT
  5
288
330
27F
100
AcDbEntity
  8
DIMENSIONS
100
AcDbMText
 10
-53.52112165249025
 20
1533.9788783475096
 30
0.0
 40
40.0
 71
5
  1
%%c375
  7
PORT_TXT
 50
45.00000000000003
  0
POINT
  5
289
330
27F
100
AcDbEntity
  8
Defpoints
100
AcDbPoint
 10
162.5
 20
1750.0
 30
0.0
  0
POINT
  5
28A
330
27F
100
AcDbEntity
  8
Defpoints
100
AcDbPoint
 10
29.91747852752232
 20
1617.4174785275222
 30
0.0
  0
ENDBLK
  5
281
330
27F
100
AcDbEntity
  8
0
100
AcDbBlockEnd
  0
BLOCK
  5
28D
330
28C
100
AcDbEntity
  8
0
100
AcDbBlockBegin
  2
*D4
 70
1
 10
0.0
 20
0.0
 30
0.0
  3
*D4
  1

  0
LINE
  5
28F
330
28C
100
AcDbEntity
  8
0
100
AcDbLine
 10
400.0
 20
3592.0
 30
0.0
 11
400.0
 21
3672.0
 31
0.0
  0
LINE
  5
290
330
28C
100
AcDbEntity
  8
0
100
AcDbLine
 10
4700.0
 20
3592.0
 30
0.0
 11
4700.0
 21
3672.0
 31
0.0
  0
INSERT
  5
291
330
28C
100
AcDbEntity
  8
DIMENSIONS
100
AcDbBlockReference
  2
_CLOSEDFILLED
 10
400.0
 20
3660.0
 30
0.0
 41
30.0
 42
30.0
 50
180.0
  0
INSERT
  5
293
330
28C
100
AcDbEntity
  8
DIMENSIONS
100
AcDbBlockReference
  2
_CLOSEDFILLED
 10
4700.0
 20
3660.0
 30
0.0
 41
30.0
 42
30.0
  0
LINE
  5
295
330
28C
100
AcDbEntity
  8
0
100
AcDbLine
 10
430.0
 20
3660.0
 30
0.0
 11
2470.0
 21
3660.0
 31
0.0
  0
LINE
  5
296
330
28C
100
AcDbEntity
  8
0
100
AcDbLine
 10
2630.0
 20
3660.0
 30
0.0
 11
4670.0
 21
3660.0
 31
0.0
  0
MTEXT
  5
297
330
28C
100
AcDbEntity
  8
DIMENSIONS
100
AcDbMText
 10
2550.0
 20
3660.0
 30
0.0
 40
40.0
 71
5
  1
4300
  7
PORT_TXT
  0
POINT
  5
298
330
28C
100
AcDbEntity
  8
Defpoints
100
AcDbPoint
 10
400.0
 20
3660.0
 30
0.0
  0
POINT
  5
299
330
28C
100
AcDbEntity
  8
Defpoints
100
AcDbPoint
 10
400.0
 20
3580.0
 30
0.0
  0
POINT
  5
29A
330
28C
100
AcDbEntity
  8
Defpoints
100
AcDbPoint
 10
4700.0
 20
3580.0
 30
0.0
  0
ENDBLK
  5
28E
330
28C
100
AcDbEntity
  8
0
100
AcDbBlockEnd
  0
BLOCK
  5
29D
330
29C
100
AcDbEntity
  8
0
100
AcDbBlockBegin
  2
*D5
 70
1
 10
0.0
 20
0.0
 30
0.0
  3
*D5
  1

  0
LINE
  5
29F
330
29C
100
AcDbEntity
  8
0
100
AcDbLine
 10
4892.0
 20
100.0
 30
0.0
 11
4972.0
 21
100.0
 31
0.0
  0
LINE
  5
2A0
330
29C
100
AcDbEntity
  8
0
100
AcDbLine
 10
4892.0
 20
3400.0
 30
0.0
 11
4972.0
 21
3400.0
 31
0.0
  0
INSERT
  5
2A1
330
29C
100
AcDbEntity
  8
DIMENSIONS
100
AcDbBlockReference
  2
_CLOSEDFILLED
 10
4960.0
 20
100.0
 30
0.0
 41
30.0
 42
30.0
 50
270.0
  0
INSERT
  5
2A3
330
29C
100
AcDbEntity
  8
DIMENSIONS
100
AcDbBlockReference
  2
_CLOSEDFILLED
 10
4960.0
 20
3400.0
 30
0.0
 41
30.0
 42
30.0
 50
90.0
  0
LINE
  5
2A5
330
29C
100
AcDbEntity
  8
0
100
AcDbLine
 10
4960.0
 20
130.0
 30
0.0
 11
4960.0
 21
1670.0
 31
0.0
  0
LINE
  5
2A6
330
29C
100
AcDbEntity
  8
0
100
AcDbLine
 10
4960.0
 20
1830.0
 30
0.0
 11
4960.0
 21
3370.0
 31
0.0
  0
MTEXT
  5
2A7
330
29C
100
AcDbEntity
  8
DIMENSIONS
100
AcDbMText
 10
4960.0
 20
1750.0
 30
0.0
 40
40.0
 71
5
  1
3300
  7
PORT_TXT
 50
90.0
  0
POINT
  5
2A8
330
29C
100
AcDbEntity
  8
Defpoints
100
AcDbPoint
 10
4960.0
 20
100.0
 30
0.0
  0
POINT
  5
2A9
330
29C
100
AcDbEntity
  8
Defpoints
100
AcDbPoint
 10
4880.0
 20
100.0
 30
0.0
  0
POINT
  5
2AA
330
29C
100
AcDbEntity
  8
Defpoints
100
AcDbPoint
 10
4880.0
 20
3400.0
 30
0.0
  0
ENDBLK
  5
29E
330
29C
100
AcDbEntity
  8
0
100
AcDbBlockEnd
  0
BLOCK
  5
2AD
330
2AC
100
AcDbEntity
  8
0
100
AcDbBlockBegin
  2
*D6
 70
1
 10
0.0
 20
0.0
 30
0.0
  3
*D6
  1

  0
LINE
  5
2AF
330
2AC
100
AcDbEntity
  8
0
100
AcDbLine
 10
268.0
 20
2350.0
 30
0.0
 11
168.0
 21
2350.0
 31
0.0
  0
LINE
  5
2B0
330
2AC
100
AcDbEntity
  8
0
100
AcDbLine
 10
268.0
 20
3400.0
 30
0.0
 11
168.0
 21
3400.0
 31
0.0
  0
INSERT
  5
2B1
330
2AC
100
AcDbEntity
  8
DIMENSIONS
100
AcDbBlockReference
  2
_CLOSEDFILLED
 10
180.0
 20
2350.0
 30
0.0
 41
30.0
 42
30.0
 50
270.0
  0
INSERT
  5
2B3
330
2AC
100
AcDbEntity
  8
DIMENSIONS
100
AcDbBlockReference
  2
_CLOSEDFILLED
 10
180.0
 20
3400.0
 30
0.0
 41
30.0
 42
30.0
 50
90.0
  0
LINE
  5
2B5
330
2AC
100
AcDbEntity
  8
0
100
AcDbLine
 10
180.0
 20
2380.0
 30
0.0
 11
180.0
 21
2795.0
 31
0.0
  0
LINE
  5
2B6
330
2AC
100
AcDbEntity
  8
0
100
AcDbLine
 10
180.0
 20
2955.0
 30
0.0
 11
180.0
 21
3370.0
 31
0.0
  0
MTEXT
  5
2B7
330
2AC
100
AcDbEntity
  8
DIMENSIONS
100
AcDbMText
 10
180.0
 20
2875.0
 30
0.0
 40
40.0
 71
5
  1
1050
  7
PORT_TXT
 50
90.0
  0
POINT
  5
2B8
330
2AC
100
AcDbEntity
  8
Defpoints
100
AcDbPoint
 10
180.0
 20
2350.0
 30
0.0
  0
POINT
  5
2B9
330
2AC
100
AcDbEntity
  8
Defpoints
100
AcDbPoint
 10
280.0
 20
2350.0
 30
0.0
  0
POINT
  5
2BA
330
2AC
100
AcDbEntity
  8
Defpoints
100
AcDbPoint
 10
280.0
 20
3400.0
 30
0.0
  0
ENDBLK
  5
2AE
330
2AC
100
AcDbEntity
  8
0
100
AcDbBlockEnd
  0
BLOCK
  5
2BD
330
2BC
100
AcDbEntity
  8
0
100
AcDbBlockBegin
  2
*D7
 70
1
 10
0.0
 20
0.0
 30
0.0
  3
*D7
  1

  0
INSERT
  5
2BF
330
2BC
100
AcDbEntity
  8
DIMENSIONS
100
AcDbBlockReference
  2
_CLOSEDFILLED
 10
1399.3933982822018
 20
2921.893398282202
 30
0.0
 41
30.0
 42
30.0
 50
45.0
  0
INSERT
  5
2C1
330
2BC
100
AcDbEntity
  8
DIMENSIONS
100
AcDbBlockReference
  2
_CLOSEDFILLED
 10
1420.6066017177982
 20
2943.106601717798
 30
0.0
 41
30.0
 42
30.0
 50
45.0
  0
LINE
  5
2C3
330
2BC
100
AcDbEntity
  8
0
100
AcDbLine
 10
1378.1801948466054
 20
2900.6801948466054
 30
0.0
 11
1399.3933982822018
 21
2921.893398282202
 31
0.0
  0
LINE
  5
2C4
330
2BC
100
AcDbEntity
  8
0
100
AcDbLine
 10
1372.523340597113
 20
2895.023340597113
 30
0.0
 11
1378.1801948466054
 21
2900.6801948466054
 31
0.0
  0
MTEXT
  5
2C5
330
2BC
100
AcDbEntity
  8
DIMENSIONS
100
AcDbMText
 10
1330.09693372592
 20
2852.5969337259203
 30
0.0
 40
40.0
 71
5
  1
%%c30
  7
PORT_TXT
 50
45.0
  0
POINT
  5
2C6
330
2BC
100
AcDbEntity
  8
Defpoints
100
AcDbPoint
 10
1410.0
 20
2932.5
 30
0.0
  0
POINT
  5
2C7
330
2BC
100
AcDbEntity
  8
Defpoints
100
AcDbPoint
 10
1399.3933982822018
 20
2921.893398282202
 30
0.0
  0
ENDBLK
  5
2BE
330
2BC
100
AcDbEntity
  8
0
100
AcDbBlockEnd
  0
BLOCK
  5
2C9
330
2C8
100
AcDbEntity
  8
0
100
AcDbBlockBegin
  2
*Paper_Space0
 70
0
 10
0.0
 20
0.0
 30
0.0
  3
*Paper_Space0
  1

  0
VIEWPORT
  5
2CC
330
2C8
100
AcDbEntity
 67
1
  8
VIEWPORTS
100
AcDbViewport
 10
420.5
 20
297.0
 30
0.0
 40
925.1
 41
653.4000000000001
 68
1
 69
1
 12
420.5
 22
297.0
 13
0.0
 23
0.0
 14
10.0
 24
10.0
 15
10.0
 25
10.0
 16
0.0
 26
0.0
 36
1.0
 17
0.0
 27
0.0
 37
0.0
 42
50.0
 43
0.0
 44
0.0
 45
653.4000000000001
 50
0.0
 51
0.0
 72
100
 90
557088
  1

281
0
 71
0
 74
0
110
0.0
120
0.0
130
0.0
111
1.0
121
0.0
131
0.0
112
0.0
122
1.0
132
0.0
 79
0
146
0.0
282
0
  0
LWPOLYLINE
  5
2CD
330
2C8
100
AcDbEntity
 67
1
  8
TITLEBLOCK
100
AcDbPolyline
 90
4
 70
1
 10
10.0
 20
10.0
 10
831.0
 20
10.0
 10
831.0
 20
584.0
 10
10.0
 20
584.0
  0
VIEWPORT
  5
2CE
330
2C8
100
AcDbEntity
 67
1
  8
VIEWPORTS
100
AcDbViewport
 10
420.5
 20
335.61
 30
0.0
 40
817.0
 41
492.78
 68
2
 69
3
 12
487.5
 22
1700.0
 13
0.0
 23
0.0
 14
10.0
 24
10.0
 15
10.0
 25
10.0
 16
0.0
 26
0.0
 36
1.0
 17
0.0
 27
0.0
 37
0.0
 42
50.0
 43
0.0
 44
0.0
 45
5642.240526315789
 50
0.0
 51
0.0
 72
100
 90
0
  1

281
0
 71
0
 74
0
110
0.0
120
0.0
130
0.0
111
1.0
121
0.0
131
0.0
112
0.0
122
1.0
132
0.0
 79
0
146
0.0
282
0
  0
LWPOLYLINE
  5
2CF
330
2C8
100
AcDbEntity
 67
1
  8
TITLEBLOCK
100
AcDbPolyline
 90
4
 70
1
 10
12.0
 20
89.22
 10
829.0
 20
89.22
 10
829.0
 20
582.0
 10
12.0
 20
582.0
  0
LWPOLYLINE
  5
2D0
330
2C8
100
AcDbEntity
 67
1
  8
TITLEBLOCK
100
AcDbPolyline
 90
4
 70
1
 10
511.42
 20
10.0
 10
831.0
 20
10.0
 10
831.0
 20
87.22
 10
511.42
 20
87.22
  0
LINE
  5
2D1
330
2C8
100
AcDbEntity
 67
1
  8
TITLEBLOCK
100
AcDbLine
 10
511.42
 20
65.5984
 30
0.0
 11
831.0
 21
65.5984
 31
0.0
  0
TEXT
  5
2D2
330
2C8
100
AcDbEntity
 67
1
  8
TITLEBLOCK
100
AcDbText
 10
521.0074
 20
74.0926
 30
0.0
 40
8.061767999999999
  1
SUEZ PORT MASTERPLAN DESIGN
 11
521.0074
 21
74.0926
 31
0.0
100
AcDbText
  0
TEXT
  5
2D3
330
2C8
100
AcDbEntity
 67
1
  8
TITLEBLOCK
100
AcDbText
 10
521.0074
 20
59.4208
 30
0.0
 40
5.5598399999999994
  1
Student: Mohamed Abdelshafy   ID: 20107979
 11
521.0074
 21
59.4208
 31
0.0
100
AcDbText
  0
TEXT
  5
2D4
330
2C8
100
AcDbEntity
 67
1
  8
TITLEBLOCK
100
AcDbText
 10
521.0074
 20
50.1544
 30
0.0
 40
5.1150528
  1
Course: ECB 3802 - Parametric Modeling & Marine Structures
 11
521.0074
 21
50.1544
 31
0.0
100
AcDbText
  0
TEXT
  5
2D5
330
2C8
100
AcDbEntity
 67
1
  8
TITLEBLOCK
100
AcDbText
 10
521.0074
 20
40.888
 30
0.0
 40
5.5598399999999994
  1
Supervisor: Dr. Walid Al-Amri
 11
521.0074
 21
40.888
 31
0.0
100
AcDbText
  0
TEXT
  5
2D6
330
2C8
100
AcDbEntity
 67
1
  8
TITLEBLOCK
100
AcDbText
 10
521.0074
 20
31.6216
 30
0.0
 40
5.5598399999999994
  1
Dwg: SPM-001   Rev: A   Date: 2026-06-29
 11
521.0074
 21
31.6216
 31
0.0
100
AcDbText
  0
TEXT
  5
2D7
330
2C8
100
AcDbEntity
 67
1
  8
TITLEBLOCK
100
AcDbText
 10
521.0074
 20
22.355199999999996
 30
0.0
 40
5.5598399999999994
  1
Scale: AS NOTED    Units: METRES
 11
521.0074
 21
22.355199999999996
 31
0.0
100
AcDbText
  0
TEXT
  5
2D8
330
2C8
100
AcDbEntity
 67
1
  8
TITLEBLOCK
100
AcDbText
 10
521.0074
 20
14.633200000000002
 30
0.0
 40
5.003856
  1
CONCEPT DESIGN - NOT FOR CONSTRUCTION
 11
521.0074
 21
14.633200000000002
 31
0.0
100
AcDbText
  0
TEXT
  5
2D9
330
2C8
100
AcDbEntity
 67
1
  8
LEGEND
100
AcDbText
 10
16.0
 20
87.99220000000001
 30
0.0
 40
5.4054
  1
LEGEND
 11
16.0
 21
87.99220000000001
 31
0.0
100
AcDbText
  0
LWPOLYLINE
  5
2DA
330
2C8
100
AcDbEntity
 67
1
  8
LEGEND
 62
140
100
AcDbPolyline
 90
4
 70
1
 10
16.0
 20
78.72579999999999
 10
22.1776
 20
78.72579999999999
 10
22.1776
 20
82.5868
 10
16.0
 20
82.5868
  0
TEXT
  5
2DB
330
2C8
100
AcDbEntity
 67
1
  8
LEGEND
100
AcDbText
 10
23.722
 20
79.30494999999999
 30
0.0
 40
3.28185
  1
WATER
 11
23.722
 21
79.30494999999999
 31
0.0
100
AcDbText
  0
LWPOLYLINE
  5
2DC
330
2C8
100
AcDbEntity
 67
1
  8
LEGEND
 62
42
100
AcDbPolyline
 90
4
 70
1
 10
16.0
 20
73.32039999999999
 10
22.1776
 20
73.32039999999999
 10
22.1776
 20
77.1814
 10
16.0
 20
77.1814
  0
TEXT
  5
2DD
330
2C8
100
AcDbEntity
 67
1
  8
LEGEND
100
AcDbText
 10
23.722
 20
73.89954999999999
 30
0.0
 40
3.28185
  1
LAND
 11
23.722
 21
73.89954999999999
 31
0.0
100
AcDbText
  0
LWPOLYLINE
  5
2DE
330
2C8
100
AcDbEntity
 67
1
  8
LEGEND
 62
32
100
AcDbPolyline
 90
4
 70
1
 10
16.0
 20
67.91499999999999
 10
22.1776
 20
67.91499999999999
 10
22.1776
 20
71.776
 10
16.0
 20
71.776
  0
TEXT
  5
2DF
330
2C8
100
AcDbEntity
 67
1
  8
LEGEND
100
AcDbText
 10
23.722
 20
68.49414999999999
 30
0.0
 40
3.28185
  1
BREAKWATER
 11
23.722
 21
68.49414999999999
 31
0.0
100
AcDbText
  0
LWPOLYLINE
  5
2E0
330
2C8
100
AcDbEntity
 67
1
  8
LEGEND
 62
150
100
AcDbPolyline
 90
4
 70
1
 10
16.0
 20
62.5096
 10
22.1776
 20
62.5096
 10
22.1776
 20
66.3706
 10
16.0
 20
66.3706
  0
TEXT
  5
2E1
330
2C8
100
AcDbEntity
 67
1
  8
LEGEND
100
AcDbText
 10
23.722
 20
63.08875
 30
0.0
 40
3.28185
  1
CHANNEL
 11
23.722
 21
63.08875
 31
0.0
100
AcDbText
  0
LWPOLYLINE
  5
2E2
330
2C8
100
AcDbEntity
 67
1
  8
LEGEND
 62
151
100
AcDbPolyline
 90
4
 70
1
 10
16.0
 20
57.1042
 10
22.1776
 20
57.1042
 10
22.1776
 20
60.965199999999996
 10
16.0
 20
60.965199999999996
  0
TEXT
  5
2E3
330
2C8
100
AcDbEntity
 67
1
  8
LEGEND
100
AcDbText
 10
23.722
 20
57.68335
 30
0.0
 40
3.28185
  1
TURNING_BASIN
 11
23.722
 21
57.68335
 31
0.0
100
AcDbText
  0
LWPOLYLINE
  5
2E4
330
2C8
100
AcDbEntity
 67
1
  8
LEGEND
 62
33
100
AcDbPolyline
 90
4
 70
1
 10
16.0
 20
51.6988
 10
22.1776
 20
51.6988
 10
22.1776
 20
55.559799999999996
 10
16.0
 20
55.559799999999996
  0
TEXT
  5
2E5
330
2C8
100
AcDbEntity
 67
1
  8
LEGEND
100
AcDbText
 10
23.722
 20
52.27795
 30
0.0
 40
3.28185
  1
QUAYS
 11
23.722
 21
52.27795
 31
0.0
100
AcDbText
  0
LWPOLYLINE
  5
2E6
330
2C8
100
AcDbEntity
 67
1
  8
LEGEND
 62
30
100
AcDbPolyline
 90
4
 70
1
 10
16.0
 20
46.29339999999999
 10
22.1776
 20
46.29339999999999
 10
22.1776
 20
50.15439999999999
 10
16.0
 20
50.15439999999999
  0
TEXT
  5
2E7
330
2C8
100
AcDbEntity
 67
1
  8
LEGEND
100
AcDbText
 10
23.722
 20
46.87254999999999
 30
0.0
 40
3.28185
  1
BERTHS
 11
23.722
 21
46.87254999999999
 31
0.0
100
AcDbText
  0
LWPOLYLINE
  5
2E8
330
2C8
100
AcDbEntity
 67
1
  8
LEGEND
 62
8
100
AcDbPolyline
 90
4
 70
1
 10
16.0
 20
40.888
 10
22.1776
 20
40.888
 10
22.1776
 20
44.748999999999995
 10
16.0
 20
44.748999999999995
  0
TEXT
  5
2E9
330
2C8
100
AcDbEntity
 67
1
  8
LEGEND
100
AcDbText
 10
23.722
 20
41.46715
 30
0.0
 40
3.28185
  1
TERMINALS
 11
23.722
 21
41.46715
 31
0.0
100
AcDbText
  0
LWPOLYLINE
  5
2EA
330
2C8
100
AcDbEntity
 67
1
  8
LEGEND
 62
20
100
AcDbPolyline
 90
4
 70
1
 10
16.0
 20
35.4826
 10
22.1776
 20
35.4826
 10
22.1776
 20
39.343599999999995
 10
16.0
 20
39.343599999999995
  0
TEXT
  5
2EB
330
2C8
100
AcDbEntity
 67
1
  8
LEGEND
100
AcDbText
 10
23.722
 20
36.061749999999996
 30
0.0
 40
3.28185
  1
TANKS
 11
23.722
 21
36.061749999999996
 31
0.0
100
AcDbText
  0
LWPOLYLINE
  5
2EC
330
2C8
100
AcDbEntity
 67
1
  8
LEGEND
 62
40
100
AcDbPolyline
 90
4
 70
1
 10
16.0
 20
30.077199999999998
 10
22.1776
 20
30.077199999999998
 10
22.1776
 20
33.938199999999995
 10
16.0
 20
33.938199999999995
  0
TEXT
  5
2ED
330
2C8
100
AcDbEntity
 67
1
  8
LEGEND
100
AcDbText
 10
23.722
 20
30.656349999999996
 30
0.0
 40
3.28185
  1
SILOS
 11
23.722
 21
30.656349999999996
 31
0.0
100
AcDbText
  0
LWPOLYLINE
  5
2EE
330
2C8
100
AcDbEntity
 67
1
  8
LEGEND
 62
50
100
AcDbPolyline
 90
4
 70
1
 10
16.0
 20
24.671799999999998
 10
22.1776
 20
24.671799999999998
 10
22.1776
 20
28.532799999999998
 10
16.0
 20
28.532799999999998
  0
TEXT
  5
2EF
330
2C8
100
AcDbEntity
 67
1
  8
LEGEND
100
AcDbText
 10
23.722
 20
25.250949999999996
 30
0.0
 40
3.28185
  1
FACILITIES
 11
23.722
 21
25.250949999999996
 31
0.0
100
AcDbText
  0
LWPOLYLINE
  5
2F0
330
2C8
100
AcDbEntity
 67
1
  8
LEGEND
 62
9
100
AcDbPolyline
 90
4
 70
1
 10
16.0
 20
19.266399999999997
 10
22.1776
 20
19.266399999999997
 10
22.1776
 20
23.127399999999998
 10
16.0
 20
23.127399999999998
  0
TEXT
  5
2F1
330
2C8
100
AcDbEntity
 67
1
  8
LEGEND
100
AcDbText
 10
23.722
 20
19.845549999999996
 30
0.0
 40
3.28185
  1
ROADS
 11
23.722
 21
19.845549999999996
 31
0.0
100
AcDbText
  0
LWPOLYLINE
  5
2F2
330
2C8
100
AcDbEntity
 67
1
  8
LEGEND
 62
7
100
AcDbPolyline
 90
4
 70
1
 10
336.40000000000003
 20
44.749
 10
358.23441124592443
 20
44.749
 10
358.23441124592443
 20
47.749
 10
336.40000000000003
 20
47.749
  0
TEXT
  5
2F3
330
2C8
100
AcDbEntity
 67
1
  8
LEGEND
100
AcDbText
 10
336.40000000000003
 20
39.749
 30
0.0
 40
2.6
  1
0
 11
336.40000000000003
 21
39.749
 31
0.0
100
AcDbText
  0
LWPOLYLINE
  5
2F4
330
2C8
100
AcDbEntity
 67
1
  8
LEGEND
 62
0
100
AcDbPolyline
 90
4
 70
1
 10
358.23441124592443
 20
44.749
 10
380.06882249184883
 20
44.749
 10
380.06882249184883
 20
47.749
 10
358.23441124592443
 20
47.749
  0
TEXT
  5
2F5
330
2C8
100
AcDbEntity
 67
1
  8
LEGEND
100
AcDbText
 10
358.23441124592443
 20
39.749
 30
0.0
 40
2.6
  1
250
 11
358.23441124592443
 21
39.749
 31
0.0
100
AcDbText
  0
LWPOLYLINE
  5
2F6
330
2C8
100
AcDbEntity
 67
1
  8
LEGEND
 62
7
100
AcDbPolyline
 90
4
 70
1
 10
380.0688224918489
 20
44.749
 10
401.9032337377733
 20
44.749
 10
401.9032337377733
 20
47.749
 10
380.0688224918489
 20
47.749
  0
TEXT
  5
2F7
330
2C8
100
AcDbEntity
 67
1
  8
LEGEND
100
AcDbText
 10
380.0688224918489
 20
39.749
 30
0.0
 40
2.6
  1
500
 11
380.0688224918489
 21
39.749
 31
0.0
100
AcDbText
  0
LWPOLYLINE
  5
2F8
330
2C8
100
AcDbEntity
 67
1
  8
LEGEND
 62
0
100
AcDbPolyline
 90
4
 70
1
 10
401.9032337377733
 20
44.749
 10
423.7376449836977
 20
44.749
 10
423.7376449836977
 20
47.749
 10
401.9032337377733
 20
47.749
  0
TEXT
  5
2F9
330
2C8
100
AcDbEntity
 67
1
  8
LEGEND
100
AcDbText
 10
401.9032337377733
 20
39.749
 30
0.0
 40
2.6
  1
750
 11
401.9032337377733
 21
39.749
 31
0.0
100
AcDbText
  0
TEXT
  5
2FA
330
2C8
100
AcDbEntity
 67
1
  8
LEGEND
100
AcDbText
 10
423.7376449836977
 20
39.749
 30
0.0
 40
2.6
  1
1000
 11
423.7376449836977
 21
39.749
 31
0.0
100
AcDbText
  0
TEXT
  5
2FB
330
2C8
100
AcDbEntity
 67
1
  8
LEGEND
100
AcDbText
 10
336.40000000000003
 20
50.749
 30
0.0
 40
3.0
  1
SCALE  1 : 11,450  (metres)
 11
336.40000000000003
 21
50.749
 31
0.0
100
AcDbText
  0
LWPOLYLINE
  5
2FC
330
2C8
100
AcDbEntity
 67
1
  8
LEGEND
 62
7
100
AcDbPolyline
 90
3
 70
1
 10
811.0
 20
566.0
 10
807.4
 20
549.2
 10
811.0
 20
552.2
  0
LWPOLYLINE
  5
2FD
330
2C8
100
AcDbEntity
 67
1
  8
LEGEND
 62
0
100
AcDbPolyline
 90
3
 70
1
 10
811.0
 20
566.0
 10
814.6
 20
549.2
 10
811.0
 20
552.2
  0
TEXT
  5
2FE
330
2C8
100
AcDbEntity
 67
1
  8
LEGEND
100
AcDbText
 10
808.84
 20
568.0
 30
0.0
 40
6.0
  1
N
 11
808.84
 21
568.0
 31
0.0
100
AcDbText
  0
TEXT
  5
2FF
330
2C8
100
AcDbEntity
 67
1
  8
TITLEBLOCK
100
AcDbText
 10
16.0
 20
576.0
 30
0.0
 40
3.0
  1
SUEZ PORT MASTERPLAN DESIGN  |  A1  |  SPM-001
 11
16.0
 21
576.0
 31
0.0
100
AcDbText
  0
ENDBLK
  5
2CA
330
2C8
100
AcDbEntity
  8
0
100
AcDbBlockEnd
  0
BLOCK
  5
301
330
300
100
AcDbEntity
  8
0
100
AcDbBlockBegin
  2
*Paper_Space1
 70
0
 10
0.0
 20
0.0
 30
0.0
  3
*Paper_Space1
  1

  0
VIEWPORT
  5
304
330
300
100
AcDbEntity
 67
1
  8
VIEWPORTS
100
AcDbViewport
 10
210.0
 20
148.5
 30
0.0
 40
462.00000000000006
 41
326.70000000000005
 68
1
 69
1
 12
210.0
 22
148.5
 13
0.0
 23
0.0
 14
10.0
 24
10.0
 15
10.0
 25
10.0
 16
0.0
 26
0.0
 36
1.0
 17
0.0
 27
0.0
 37
0.0
 42
50.0
 43
0.0
 44
0.0
 45
326.70000000000005
 50
0.0
 51
0.0
 72
100
 90
557088
  1

281
0
 71
0
 74
0
110
0.0
120
0.0
130
0.0
111
1.0
121
0.0
131
0.0
112
0.0
122
1.0
132
0.0
 79
0
146
0.0
282
0
  0
LWPOLYLINE
  5
305
330
300
100
AcDbEntity
 67
1
  8
TITLEBLOCK
100
AcDbPolyline
 90
4
 70
1
 10
10.0
 20
10.0
 10
410.0
 20
10.0
 10
410.0
 20
287.0
 10
10.0
 20
287.0
  0
VIEWPORT
  5
306
330
300
100
AcDbEntity
 67
1
  8
VIEWPORTS
100
AcDbViewport
 10
210.0
 20
167.805
 30
0.0
 40
396.0
 41
234.39
 68
2
 69
3
 12
487.5
 22
1700.0
 13
0.0
 23
0.0
 14
10.0
 24
10.0
 15
10.0
 25
10.0
 16
0.0
 26
0.0
 36
1.0
 17
0.0
 27
0.0
 37
0.0
 42
50.0
 43
0.0
 44
0.0
 45
5536.871856060606
 50
0.0
 51
0.0
 72
100
 90
0
  1

281
0
 71
0
 74
0
110
0.0
120
0.0
130
0.0
111
1.0
121
0.0
131
0.0
112
0.0
122
1.0
132
0.0
 79
0
146
0.0
282
0
  0
LWPOLYLINE
  5
307
330
300
100
AcDbEntity
 67
1
  8
TITLEBLOCK
100
AcDbPolyline
 90
4
 70
1
 10
12.0
 20
50.61
 10
408.0
 20
50.61
 10
408.0
 20
285.0
 10
12.0
 20
285.0
  0
LWPOLYLINE
  5
308
330
300
100
AcDbEntity
 67
1
  8
TITLEBLOCK
100
AcDbPolyline
 90
4
 70
1
 10
250.4
 20
10.0
 10
410.0
 20
10.0
 10
410.0
 20
48.61
 10
250.4
 20
48.61
  0
LINE
  5
309
330
300
100
AcDbEntity
 67
1
  8
TITLEBLOCK
100
AcDbLine
 10
250.4
 20
37.7992
 30
0.0
 11
410.0
 21
37.7992
 31
0.0
  0
TEXT
  5
30A
330
300
100
AcDbEntity
 67
1
  8
TITLEBLOCK
100
AcDbText
 10
255.18800000000002
 20
42.0463
 30
0.0
 40
4.0308839999999995
  1
SUEZ PORT MASTERPLAN DESIGN
 11
255.18800000000002
 21
42.0463
 31
0.0
100
AcDbText
  0
TEXT
  5
30B
330
300
100
AcDbEntity
 67
1
  8
TITLEBLOCK
100
AcDbText
 10
255.18800000000002
 20
34.7104
 30
0.0
 40
2.7799199999999997
  1
Student: Mohamed Abdelshafy   ID: 20107979
 11
255.18800000000002
 21
34.7104
 31
0.0
100
AcDbText
  0
TEXT
  5
30C
330
300
100
AcDbEntity
 67
1
  8
TITLEBLOCK
100
AcDbText
 10
255.18800000000002
 20
30.0772
 30
0.0
 40
2.5575264
  1
Course: ECB 3802 - Parametric Modeling & Marine Structures
 11
255.18800000000002
 21
30.0772
 31
0.0
100
AcDbText
  0
TEXT
  5
30D
330
300
100
AcDbEntity
 67
1
  8
TITLEBLOCK
100
AcDbText
 10
255.18800000000002
 20
25.444
 30
0.0
 40
2.7799199999999997
  1
Supervisor: Dr. Walid Al-Amri
 11
255.18800000000002
 21
25.444
 31
0.0
100
AcDbText
  0
TEXT
  5
30E
330
300
100
AcDbEntity
 67
1
  8
TITLEBLOCK
100
AcDbText
 10
255.18800000000002
 20
20.8108
 30
0.0
 40
2.7799199999999997
  1
Dwg: SPM-001   Rev: A   Date: 2026-06-29
 11
255.18800000000002
 21
20.8108
 31
0.0
100
AcDbText
  0
TEXT
  5
30F
330
300
100
AcDbEntity
 67
1
  8
TITLEBLOCK
100
AcDbText
 10
255.18800000000002
 20
16.177599999999998
 30
0.0
 40
2.7799199999999997
  1
Scale: AS NOTED    Units: METRES
 11
255.18800000000002
 21
16.177599999999998
 31
0.0
100
AcDbText
  0
TEXT
  5
310
330
300
100
AcDbEntity
 67
1
  8
TITLEBLOCK
100
AcDbText
 10
255.18800000000002
 20
12.316600000000001
 30
0.0
 40
2.501928
  1
CONCEPT DESIGN - NOT FOR CONSTRUCTION
 11
255.18800000000002
 21
12.316600000000001
 31
0.0
100
AcDbText
  0
TEXT
  5
311
330
300
100
AcDbEntity
 67
1
  8
LEGEND
100
AcDbText
 10
16.0
 20
48.996100000000006
 30
0.0
 40
2.7027
  1
LEGEND
 11
16.0
 21
48.996100000000006
 31
0.0
100
AcDbText
  0
LWPOLYLINE
  5
312
330
300
100
AcDbEntity
 67
1
  8
LEGEND
 62
140
100
AcDbPolyline
 90
4
 70
1
 10
16.0
 20
44.362899999999996
 10
19.0888
 20
44.362899999999996
 10
19.0888
 20
46.2934
 10
16.0
 20
46.2934
  0
TEXT
  5
313
330
300
100
AcDbEntity
 67
1
  8
LEGEND
100
AcDbText
 10
19.861
 20
44.652474999999995
 30
0.0
 40
1.640925
  1
WATER
 11
19.861
 21
44.652474999999995
 31
0.0
100
AcDbText
  0
LWPOLYLINE
  5
314
330
300
100
AcDbEntity
 67
1
  8
LEGEND
 62
42
100
AcDbPolyline
 90
4
 70
1
 10
16.0
 20
41.660199999999996
 10
19.0888
 20
41.660199999999996
 10
19.0888
 20
43.5907
 10
16.0
 20
43.5907
  0
TEXT
  5
315
330
300
100
AcDbEntity
 67
1
  8
LEGEND
100
AcDbText
 10
19.861
 20
41.949774999999995
 30
0.0
 40
1.640925
  1
LAND
 11
19.861
 21
41.949774999999995
 31
0.0
100
AcDbText
  0
LWPOLYLINE
  5
316
330
300
100
AcDbEntity
 67
1
  8
LEGEND
 62
32
100
AcDbPolyline
 90
4
 70
1
 10
16.0
 20
38.957499999999996
 10
19.0888
 20
38.957499999999996
 10
19.0888
 20
40.888
 10
16.0
 20
40.888
  0
TEXT
  5
317
330
300
100
AcDbEntity
 67
1
  8
LEGEND
100
AcDbText
 10
19.861
 20
39.247074999999995
 30
0.0
 40
1.640925
  1
BREAKWATER
 11
19.861
 21
39.247074999999995
 31
0.0
100
AcDbText
  0
LWPOLYLINE
  5
318
330
300
100
AcDbEntity
 67
1
  8
LEGEND
 62
150
100
AcDbPolyline
 90
4
 70
1
 10
16.0
 20
36.2548
 10
19.0888
 20
36.2548
 10
19.0888
 20
38.185300000000005
 10
16.0
 20
38.185300000000005
  0
TEXT
  5
319
330
300
100
AcDbEntity
 67
1
  8
LEGEND
100
AcDbText
 10
19.861
 20
36.544375
 30
0.0
 40
1.640925
  1
CHANNEL
 11
19.861
 21
36.544375
 31
0.0
100
AcDbText
  0
LWPOLYLINE
  5
31A
330
300
100
AcDbEntity
 67
1
  8
LEGEND
 62
151
100
AcDbPolyline
 90
4
 70
1
 10
16.0
 20
33.552099999999996
 10
19.0888
 20
33.552099999999996
 10
19.0888
 20
35.4826
 10
16.0
 20
35.4826
  0
TEXT
  5
31B
330
300
100
AcDbEntity
 67
1
  8
LEGEND
100
AcDbText
 10
19.861
 20
33.841674999999995
 30
0.0
 40
1.640925
  1
TURNING_BASIN
 11
19.861
 21
33.841674999999995
 31
0.0
100
AcDbText
  0
LWPOLYLINE
  5
31C
330
300
100
AcDbEntity
 67
1
  8
LEGEND
 62
33
100
AcDbPolyline
 90
4
 70
1
 10
16.0
 20
30.8494
 10
19.0888
 20
30.8494
 10
19.0888
 20
32.7799
 10
16.0
 20
32.7799
  0
TEXT
  5
31D
330
300
100
AcDbEntity
 67
1
  8
LEGEND
100
AcDbText
 10
19.861
 20
31.138975
 30
0.0
 40
1.640925
  1
QUAYS
 11
19.861
 21
31.138975
 31
0.0
100
AcDbText
  0
LWPOLYLINE
  5
31E
330
300
100
AcDbEntity
 67
1
  8
LEGEND
 62
30
100
AcDbPolyline
 90
4
 70
1
 10
16.0
 20
28.146699999999996
 10
19.0888
 20
28.146699999999996
 10
19.0888
 20
30.077199999999994
 10
16.0
 20
30.077199999999994
  0
TEXT
  5
31F
330
300
100
AcDbEntity
 67
1
  8
LEGEND
100
AcDbText
 10
19.861
 20
28.436274999999995
 30
0.0
 40
1.640925
  1
BERTHS
 11
19.861
 21
28.436274999999995
 31
0.0
100
AcDbText
  0
LWPOLYLINE
  5
320
330
300
100
AcDbEntity
 67
1
  8
LEGEND
 62
8
100
AcDbPolyline
 90
4
 70
1
 10
16.0
 20
25.444
 10
19.0888
 20
25.444
 10
19.0888
 20
27.374499999999998
 10
16.0
 20
27.374499999999998
  0
TEXT
  5
321
330
300
100
AcDbEntity
 67
1
  8
LEGEND
100
AcDbText
 10
19.861
 20
25.733575
 30
0.0
 40
1.640925
  1
TERMINALS
 11
19.861
 21
25.733575
 31
0.0
100
AcDbText
  0
LWPOLYLINE
  5
322
330
300
100
AcDbEntity
 67
1
  8
LEGEND
 62
20
100
AcDbPolyline
 90
4
 70
1
 10
16.0
 20
22.7413
 10
19.0888
 20
22.7413
 10
19.0888
 20
24.671799999999998
 10
16.0
 20
24.671799999999998
  0
TEXT
  5
323
330
300
100
AcDbEntity
 67
1
  8
LEGEND
100
AcDbText
 10
19.861
 20
23.030874999999998
 30
0.0
 40
1.640925
  1
TANKS
 11
19.861
 21
23.030874999999998
 31
0.0
100
AcDbText
  0
LWPOLYLINE
  5
324
330
300
100
AcDbEntity
 67
1
  8
LEGEND
 62
40
100
AcDbPolyline
 90
4
 70
1
 10
16.0
 20
20.0386
 10
19.0888
 20
20.0386
 10
19.0888
 20
21.969099999999997
 10
16.0
 20
21.969099999999997
  0
TEXT
  5
325
330
300
100
AcDbEntity
 67
1
  8
LEGEND
100
AcDbText
 10
19.861
 20
20.328174999999998
 30
0.0
 40
1.640925
  1
SILOS
 11
19.861
 21
20.328174999999998
 31
0.0
100
AcDbText
  0
LWPOLYLINE
  5
326
330
300
100
AcDbEntity
 67
1
  8
LEGEND
 62
50
100
AcDbPolyline
 90
4
 70
1
 10
16.0
 20
17.3359
 10
19.0888
 20
17.3359
 10
19.0888
 20
19.266399999999997
 10
16.0
 20
19.266399999999997
  0
TEXT
  5
327
330
300
100
AcDbEntity
 67
1
  8
LEGEND
100
AcDbText
 10
19.861
 20
17.625474999999998
 30
0.0
 40
1.640925
  1
FACILITIES
 11
19.861
 21
17.625474999999998
 31
0.0
100
AcDbText
  0
LWPOLYLINE
  5
328
330
300
100
AcDbEntity
 67
1
  8
LEGEND
 62
9
100
AcDbPolyline
 90
4
 70
1
 10
16.0
 20
14.633199999999999
 10
19.0888
 20
14.633199999999999
 10
19.0888
 20
16.563699999999997
 10
16.0
 20
16.563699999999997
  0
TEXT
  5
329
330
300
100
AcDbEntity
 67
1
  8
LEGEND
100
AcDbText
 10
19.861
 20
14.922774999999998
 30
0.0
 40
1.640925
  1
ROADS
 11
19.861
 21
14.922774999999998
 31
0.0
100
AcDbText
  0
LWPOLYLINE
  5
32A
330
300
100
AcDbEntity
 67
1
  8
LEGEND
 62
7
100
AcDbPolyline
 90
4
 70
1
 10
168.0
 20
27.3745
 10
178.58314180341011
 20
27.3745
 10
178.58314180341011
 20
30.3745
 10
168.0
 20
30.3745
  0
TEXT
  5
32B
330
300
100
AcDbEntity
 67
1
  8
LEGEND
100
AcDbText
 10
168.0
 20
22.3745
 30
0.0
 40
2.6
  1
0
 11
168.0
 21
22.3745
 31
0.0
100
AcDbText
  0
LWPOLYLINE
  5
32C
330
300
100
AcDbEntity
 67
1
  8
LEGEND
 62
0
100
AcDbPolyline
 90
4
 70
1
 10
178.58314180341011
 20
27.3745
 10
189.16628360682023
 20
27.3745
 10
189.16628360682023
 20
30.3745
 10
178.58314180341011
 20
30.3745
  0
TEXT
  5
32D
330
300
100
AcDbEntity
 67
1
  8
LEGEND
100
AcDbText
 10
178.58314180341011
 20
22.3745
 30
0.0
 40
2.6
  1
250
 11
178.58314180341011
 21
22.3745
 31
0.0
100
AcDbText
  0
LWPOLYLINE
  5
32E
330
300
100
AcDbEntity
 67
1
  8
LEGEND
 62
7
100
AcDbPolyline
 90
4
 70
1
 10
189.16628360682026
 20
27.3745
 10
199.74942541023037
 20
27.3745
 10
199.74942541023037
 20
30.3745
 10
189.16628360682026
 20
30.3745
  0
TEXT
  5
32F
330
300
100
AcDbEntity
 67
1
  8
LEGEND
100
AcDbText
 10
189.16628360682026
 20
22.3745
 30
0.0
 40
2.6
  1
500
 11
189.16628360682026
 21
22.3745
 31
0.0
100
AcDbText
  0
LWPOLYLINE
  5
330
330
300
100
AcDbEntity
 67
1
  8
LEGEND
 62
0
100
AcDbPolyline
 90
4
 70
1
 10
199.74942541023037
 20
27.3745
 10
210.3325672136405
 20
27.3745
 10
210.3325672136405
 20
30.3745
 10
199.74942541023037
 20
30.3745
  0
TEXT
  5
331
330
300
100
AcDbEntity
 67
1
  8
LEGEND
100
AcDbText
 10
199.74942541023037
 20
22.3745
 30
0.0
 40
2.6
  1
750
 11
199.74942541023037
 21
22.3745
 31
0.0
100
AcDbText
  0
TEXT
  5
332
330
300
100
AcDbEntity
 67
1
  8
LEGEND
100
AcDbText
 10
210.3325672136405
 20
22.3745
 30
0.0
 40
2.6
  1
1000
 11
210.3325672136405
 21
22.3745
 31
0.0
100
AcDbText
  0
TEXT
  5
333
330
300
100
AcDbEntity
 67
1
  8
LEGEND
100
AcDbText
 10
168.0
 20
33.3745
 30
0.0
 40
3.0
  1
SCALE  1 : 23,622  (metres)
 11
168.0
 21
33.3745
 31
0.0
100
AcDbText
  0
LWPOLYLINE
  5
334
330
300
100
AcDbEntity
 67
1
  8
LEGEND
 62
7
100
AcDbPolyline
 90
3
 70
1
 10
390.0
 20
269.0
 10
386.4
 20
252.2
 10
390.0
 20
255.2
  0
LWPOLYLINE
  5
335
330
300
100
AcDbEntity
 67
1
  8
LEGEND
 62
0
100
AcDbPolyline
 90
3
 70
1
 10
390.0
 20
269.0
 10
393.6
 20
252.2
 10
390.0
 20
255.2
  0
TEXT
  5
336
330
300
100
AcDbEntity
 67
1
  8
LEGEND
100
AcDbText
 10
387.84
 20
271.0
 30
0.0
 40
6.0
  1
N
 11
387.84
 21
271.0
 31
0.0
100
AcDbText
  0
TEXT
  5
337
330
300
100
AcDbEntity
 67
1
  8
TITLEBLOCK
100
AcDbText
 10
16.0
 20
279.0
 30
0.0
 40
3.0
  1
SUEZ PORT MASTERPLAN DESIGN  |  A3  |  SPM-001
 11
16.0
 21
279.0
 31
0.0
100
AcDbText
  0
ENDBLK
  5
302
330
300
100
AcDbEntity
  8
0
100
AcDbBlockEnd
  0
ENDSEC
  0
SECTION
  2
ENTITIES
  0
LWPOLYLINE
  5
A2
330
17
100
AcDbEntity
  8
WATER
100
AcDbPolyline
 90
4
 70
1
 10
-3775.0
 20
100.0
 10
400.0
 20
100.0
 10
400.0
 20
3400.0
 10
-3775.0
 20
3400.0
  0
HATCH
  5
A3
330
17
100
AcDbEntity
  8
WATER
 62
7
420
11785962
100
AcDbHatch
 10
0.0
 20
0.0
 30
0.0
210
0.0
220
0.0
230
1.0
  2
SOLID
 70
1
 71
0
 91
1
 92
3
 72
0
 73
1
 93
4
 10
-3775.0
 20
100.0
 10
400.0
 20
100.0
 10
400.0
 20
3400.0
 10
-3775.0
 20
3400.0
 97
0
 75
1
 76
1
 98
0
  0
TEXT
  5
A4
330
17
100
AcDbEntity
  8
WATER
100
AcDbText
 10
50.0
 20
3200.0
 30
0.0
 40
34.0
  1
HARBOUR BASIN
  7
PORT_TXT
 72
1
 11
50.0
 21
3200.0
 31
0.0
100
AcDbText
 73
2
  0
TEXT
  5
A5
330
17
100
AcDbEntity
  8
WATER
100
AcDbText
 10
-3425.0
 20
3150.0
 30
0.0
 40
34.0
  1
OPEN SEA
  7
PORT_TXT
 72
1
 11
-3425.0
 21
3150.0
 31
0.0
100
AcDbText
 73
2
  0
TEXT
  5
A6
330
17
100
AcDbEntity
  8
WATER
100
AcDbText
 10
-3425.0
 20
3080.0
 30
0.0
 40
22.0
  1
(approach from seaward / NW)
  7
PORT_TXT
 72
1
 11
-3425.0
 21
3080.0
 31
0.0
100
AcDbText
 73
2
  0
LWPOLYLINE
  5
A7
330
17
100
AcDbEntity
  8
LAND
100
AcDbPolyline
 90
3
 70
1
 10
-3775.0
 20
3400.0
 10
-2875.0
 20
3400.0
 10
-3775.0
 20
2700.0
  0
HATCH
  5
A8
330
17
100
AcDbEntity
  8
LAND
 62
7
420
14601630
100
AcDbHatch
 10
0.0
 20
0.0
 30
0.0
210
0.0
220
0.0
230
1.0
  2
SOLID
 70
1
 71
0
 91
1
 92
3
 72
0
 73
1
 93
3
 10
-3775.0
 20
3400.0
 10
-2875.0
 20
3400.0
 10
-3775.0
 20
2700.0
 97
0
 75
1
 76
1
 98
0
  0
TEXT
  5
A9
330
17
100
AcDbEntity
  8
LAND
100
AcDbText
 10
-3525.0
 20
3170.0
 30
0.0
 40
22.0
  1
SAND SPIT / SHOAL
  7
PORT_TXT
 72
1
 11
-3525.0
 21
3170.0
 31
0.0
100
AcDbText
 73
2
  0
TEXT
  5
AA
330
17
100
AcDbEntity
  8
CENTERLINES
100
AcDbText
 10
-1775.0
 20
1900.0
 30
0.0
 40
22.0
  1
SUEZ CANAL APPROACH AXIS
  7
PORT_TXT
 11
-1775.0
 21
1900.0
 31
0.0
100
AcDbText
 73
2
  0
MTEXT
  5
AB
330
17
100
AcDbEntity
  8
TEXT
100
AcDbMText
 10
-2500.0
 20
760.0
 30
0.0
 40
22.0
 41
1450.0
 71
1
  1
LAYOUT CONFIGURATION REFERENCED FROM NASA SATELLITE IMAGE\POF THE SUEZ CANAL PORT ENTRANCE - RECONSTRUCTED\PMATHEMATICALLY (PIANC / BS 6349; NOT A PIXEL TRACE).
  7
PORT_TXT
  0
LWPOLYLINE
  5
AC
330
17
100
AcDbEntity
  8
LAND
100
AcDbPolyline
 90
4
 70
1
 10
400.0
 20
100.0
 10
4700.0
 20
100.0
 10
4700.0
 20
3400.0
 10
400.0
 20
3400.0
  0
HATCH
  5
AD
330
17
100
AcDbEntity
  8
LAND
 62
7
420
15524550
100
AcDbHatch
 10
0.0
 20
0.0
 30
0.0
210
0.0
220
0.0
230
1.0
  2
SOLID
 70
1
 71
0
 91
1
 92
3
 72
0
 73
1
 93
4
 10
400.0
 20
100.0
 10
4700.0
 20
100.0
 10
4700.0
 20
3400.0
 10
400.0
 20
3400.0
 97
0
 75
1
 76
1
 98
0
  0
LWPOLYLINE
  5
AE
330
17
100
AcDbEntity
  8
BOUNDARY
100
AcDbPolyline
 90
4
 70
1
 10
-3805.0
 20
-180.0
 10
4780.0
 20
-180.0
 10
4780.0
 20
3580.0
 10
-3805.0
 20
3580.0
  0
TEXT
  5
AF
330
17
100
AcDbEntity
  8
BOUNDARY
100
AcDbText
 10
-3505.0
 20
3520.0
 30
0.0
 40
22.0
  1
PORT PROPERTY BOUNDARY
  7
PORT_TXT
 11
-3505.0
 21
3520.0
 31
0.0
100
AcDbText
 73
2
  0
LINE
  5
B0
330
17
100
AcDbEntity
  8
GRID
100
AcDbLine
 10
-3500.0
 20
-300.0
 30
0.0
 11
-3500.0
 21
3700.0
 31
0.0
  0
TEXT
  5
B1
330
17
100
AcDbEntity
  8
GRID
100
AcDbText
 10
-3500.0
 20
-360.0
 30
0.0
 40
22.0
  1
E -3500
  7
PORT_TXT
 72
1
 11
-3500.0
 21
-360.0
 31
0.0
100
AcDbText
 73
2
  0
LINE
  5
B2
330
17
100
AcDbEntity
  8
GRID
100
AcDbLine
 10
-3000.0
 20
-300.0
 30
0.0
 11
-3000.0
 21
3700.0
 31
0.0
  0
TEXT
  5
B3
330
17
100
AcDbEntity
  8
GRID
100
AcDbText
 10
-3000.0
 20
-360.0
 30
0.0
 40
22.0
  1
E -3000
  7
PORT_TXT
 72
1
 11
-3000.0
 21
-360.0
 31
0.0
100
AcDbText
 73
2
  0
LINE
  5
B4
330
17
100
AcDbEntity
  8
GRID
100
AcDbLine
 10
-2500.0
 20
-300.0
 30
0.0
 11
-2500.0
 21
3700.0
 31
0.0
  0
TEXT
  5
B5
330
17
100
AcDbEntity
  8
GRID
100
AcDbText
 10
-2500.0
 20
-360.0
 30
0.0
 40
22.0
  1
E -2500
  7
PORT_TXT
 72
1
 11
-2500.0
 21
-360.0
 31
0.0
100
AcDbText
 73
2
  0
LINE
  5
B6
330
17
100
AcDbEntity
  8
GRID
100
AcDbLine
 10
-2000.0
 20
-300.0
 30
0.0
 11
-2000.0
 21
3700.0
 31
0.0
  0
TEXT
  5
B7
330
17
100
AcDbEntity
  8
GRID
100
AcDbText
 10
-2000.0
 20
-360.0
 30
0.0
 40
22.0
  1
E -2000
  7
PORT_TXT
 72
1
 11
-2000.0
 21
-360.0
 31
0.0
100
AcDbText
 73
2
  0
LINE
  5
B8
330
17
100
AcDbEntity
  8
GRID
100
AcDbLine
 10
-1500.0
 20
-300.0
 30
0.0
 11
-1500.0
 21
3700.0
 31
0.0
  0
TEXT
  5
B9
330
17
100
AcDbEntity
  8
GRID
100
AcDbText
 10
-1500.0
 20
-360.0
 30
0.0
 40
22.0
  1
E -1500
  7
PORT_TXT
 72
1
 11
-1500.0
 21
-360.0
 31
0.0
100
AcDbText
 73
2
  0
LINE
  5
BA
330
17
100
AcDbEntity
  8
GRID
100
AcDbLine
 10
-1000.0
 20
-300.0
 30
0.0
 11
-1000.0
 21
3700.0
 31
0.0
  0
TEXT
  5
BB
330
17
100
AcDbEntity
  8
GRID
100
AcDbText
 10
-1000.0
 20
-360.0
 30
0.0
 40
22.0
  1
E -1000
  7
PORT_TXT
 72
1
 11
-1000.0
 21
-360.0
 31
0.0
100
AcDbText
 73
2
  0
LINE
  5
BC
330
17
100
AcDbEntity
  8
GRID
100
AcDbLine
 10
-500.0
 20
-300.0
 30
0.0
 11
-500.0
 21
3700.0
 31
0.0
  0
TEXT
  5
BD
330
17
100
AcDbEntity
  8
GRID
100
AcDbText
 10
-500.0
 20
-360.0
 30
0.0
 40
22.0
  1
E -500
  7
PORT_TXT
 72
1
 11
-500.0
 21
-360.0
 31
0.0
100
AcDbText
 73
2
  0
LINE
  5
BE
330
17
100
AcDbEntity
  8
GRID
100
AcDbLine
 10
0.0
 20
-300.0
 30
0.0
 11
0.0
 21
3700.0
 31
0.0
  0
TEXT
  5
BF
330
17
100
AcDbEntity
  8
GRID
100
AcDbText
 10
0.0
 20
-360.0
 30
0.0
 40
22.0
  1
E 0
  7
PORT_TXT
 72
1
 11
0.0
 21
-360.0
 31
0.0
100
AcDbText
 73
2
  0
LINE
  5
C0
330
17
100
AcDbEntity
  8
GRID
100
AcDbLine
 10
500.0
 20
-300.0
 30
0.0
 11
500.0
 21
3700.0
 31
0.0
  0
TEXT
  5
C1
330
17
100
AcDbEntity
  8
GRID
100
AcDbText
 10
500.0
 20
-360.0
 30
0.0
 40
22.0
  1
E 500
  7
PORT_TXT
 72
1
 11
500.0
 21
-360.0
 31
0.0
100
AcDbText
 73
2
  0
LINE
  5
C2
330
17
100
AcDbEntity
  8
GRID
100
AcDbLine
 10
1000.0
 20
-300.0
 30
0.0
 11
1000.0
 21
3700.0
 31
0.0
  0
TEXT
  5
C3
330
17
100
AcDbEntity
  8
GRID
100
AcDbText
 10
1000.0
 20
-360.0
 30
0.0
 40
22.0
  1
E 1000
  7
PORT_TXT
 72
1
 11
1000.0
 21
-360.0
 31
0.0
100
AcDbText
 73
2
  0
LINE
  5
C4
330
17
100
AcDbEntity
  8
GRID
100
AcDbLine
 10
1500.0
 20
-300.0
 30
0.0
 11
1500.0
 21
3700.0
 31
0.0
  0
TEXT
  5
C5
330
17
100
AcDbEntity
  8
GRID
100
AcDbText
 10
1500.0
 20
-360.0
 30
0.0
 40
22.0
  1
E 1500
  7
PORT_TXT
 72
1
 11
1500.0
 21
-360.0
 31
0.0
100
AcDbText
 73
2
  0
LINE
  5
C6
330
17
100
AcDbEntity
  8
GRID
100
AcDbLine
 10
2000.0
 20
-300.0
 30
0.0
 11
2000.0
 21
3700.0
 31
0.0
  0
TEXT
  5
C7
330
17
100
AcDbEntity
  8
GRID
100
AcDbText
 10
2000.0
 20
-360.0
 30
0.0
 40
22.0
  1
E 2000
  7
PORT_TXT
 72
1
 11
2000.0
 21
-360.0
 31
0.0
100
AcDbText
 73
2
  0
LINE
  5
C8
330
17
100
AcDbEntity
  8
GRID
100
AcDbLine
 10
2500.0
 20
-300.0
 30
0.0
 11
2500.0
 21
3700.0
 31
0.0
  0
TEXT
  5
C9
330
17
100
AcDbEntity
  8
GRID
100
AcDbText
 10
2500.0
 20
-360.0
 30
0.0
 40
22.0
  1
E 2500
  7
PORT_TXT
 72
1
 11
2500.0
 21
-360.0
 31
0.0
100
AcDbText
 73
2
  0
LINE
  5
CA
330
17
100
AcDbEntity
  8
GRID
100
AcDbLine
 10
3000.0
 20
-300.0
 30
0.0
 11
3000.0
 21
3700.0
 31
0.0
  0
TEXT
  5
CB
330
17
100
AcDbEntity
  8
GRID
100
AcDbText
 10
3000.0
 20
-360.0
 30
0.0
 40
22.0
  1
E 3000
  7
PORT_TXT
 72
1
 11
3000.0
 21
-360.0
 31
0.0
100
AcDbText
 73
2
  0
LINE
  5
CC
330
17
100
AcDbEntity
  8
GRID
100
AcDbLine
 10
3500.0
 20
-300.0
 30
0.0
 11
3500.0
 21
3700.0
 31
0.0
  0
TEXT
  5
CD
330
17
100
AcDbEntity
  8
GRID
100
AcDbText
 10
3500.0
 20
-360.0
 30
0.0
 40
22.0
  1
E 3500
  7
PORT_TXT
 72
1
 11
3500.0
 21
-360.0
 31
0.0
100
AcDbText
 73
2
  0
LINE
  5
CE
330
17
100
AcDbEntity
  8
GRID
100
AcDbLine
 10
4000.0
 20
-300.0
 30
0.0
 11
4000.0
 21
3700.0
 31
0.0
  0
TEXT
  5
CF
330
17
100
AcDbEntity
  8
GRID
100
AcDbText
 10
4000.0
 20
-360.0
 30
0.0
 40
22.0
  1
E 4000
  7
PORT_TXT
 72
1
 11
4000.0
 21
-360.0
 31
0.0
100
AcDbText
 73
2
  0
LINE
  5
D0
330
17
100
AcDbEntity
  8
GRID
100
AcDbLine
 10
4500.0
 20
-300.0
 30
0.0
 11
4500.0
 21
3700.0
 31
0.0
  0
TEXT
  5
D1
330
17
100
AcDbEntity
  8
GRID
100
AcDbText
 10
4500.0
 20
-360.0
 30
0.0
 40
22.0
  1
E 4500
  7
PORT_TXT
 72
1
 11
4500.0
 21
-360.0
 31
0.0
100
AcDbText
 73
2
  0
LINE
  5
D2
330
17
100
AcDbEntity
  8
GRID
100
AcDbLine
 10
-3925.0
 20
0.0
 30
0.0
 11
4900.0
 21
0.0
 31
0.0
  0
TEXT
  5
D3
330
17
100
AcDbEntity
  8
GRID
100
AcDbText
 10
-4045.0
 20
0.0
 30
0.0
 40
22.0
  1
N 0
  7
PORT_TXT
 72
1
 11
-4045.0
 21
0.0
 31
0.0
100
AcDbText
 73
2
  0
LINE
  5
D4
330
17
100
AcDbEntity
  8
GRID
100
AcDbLine
 10
-3925.0
 20
500.0
 30
0.0
 11
4900.0
 21
500.0
 31
0.0
  0
TEXT
  5
D5
330
17
100
AcDbEntity
  8
GRID
100
AcDbText
 10
-4045.0
 20
500.0
 30
0.0
 40
22.0
  1
N 500
  7
PORT_TXT
 72
1
 11
-4045.0
 21
500.0
 31
0.0
100
AcDbText
 73
2
  0
LINE
  5
D6
330
17
100
AcDbEntity
  8
GRID
100
AcDbLine
 10
-3925.0
 20
1000.0
 30
0.0
 11
4900.0
 21
1000.0
 31
0.0
  0
TEXT
  5
D7
330
17
100
AcDbEntity
  8
GRID
100
AcDbText
 10
-4045.0
 20
1000.0
 30
0.0
 40
22.0
  1
N 1000
  7
PORT_TXT
 72
1
 11
-4045.0
 21
1000.0
 31
0.0
100
AcDbText
 73
2
  0
LINE
  5
D8
330
17
100
AcDbEntity
  8
GRID
100
AcDbLine
 10
-3925.0
 20
1500.0
 30
0.0
 11
4900.0
 21
1500.0
 31
0.0
  0
TEXT
  5
D9
330
17
100
AcDbEntity
  8
GRID
100
AcDbText
 10
-4045.0
 20
1500.0
 30
0.0
 40
22.0
  1
N 1500
  7
PORT_TXT
 72
1
 11
-4045.0
 21
1500.0
 31
0.0
100
AcDbText
 73
2
  0
LINE
  5
DA
330
17
100
AcDbEntity
  8
GRID
100
AcDbLine
 10
-3925.0
 20
2000.0
 30
0.0
 11
4900.0
 21
2000.0
 31
0.0
  0
TEXT
  5
DB
330
17
100
AcDbEntity
  8
GRID
100
AcDbText
 10
-4045.0
 20
2000.0
 30
0.0
 40
22.0
  1
N 2000
  7
PORT_TXT
 72
1
 11
-4045.0
 21
2000.0
 31
0.0
100
AcDbText
 73
2
  0
LINE
  5
DC
330
17
100
AcDbEntity
  8
GRID
100
AcDbLine
 10
-3925.0
 20
2500.0
 30
0.0
 11
4900.0
 21
2500.0
 31
0.0
  0
TEXT
  5
DD
330
17
100
AcDbEntity
  8
GRID
100
AcDbText
 10
-4045.0
 20
2500.0
 30
0.0
 40
22.0
  1
N 2500
  7
PORT_TXT
 72
1
 11
-4045.0
 21
2500.0
 31
0.0
100
AcDbText
 73
2
  0
LINE
  5
DE
330
17
100
AcDbEntity
  8
GRID
100
AcDbLine
 10
-3925.0
 20
3000.0
 30
0.0
 11
4900.0
 21
3000.0
 31
0.0
  0
TEXT
  5
DF
330
17
100
AcDbEntity
  8
GRID
100
AcDbText
 10
-4045.0
 20
3000.0
 30
0.0
 40
22.0
  1
N 3000
  7
PORT_TXT
 72
1
 11
-4045.0
 21
3000.0
 31
0.0
100
AcDbText
 73
2
  0
LINE
  5
E0
330
17
100
AcDbEntity
  8
GRID
100
AcDbLine
 10
-3925.0
 20
3500.0
 30
0.0
 11
4900.0
 21
3500.0
 31
0.0
  0
TEXT
  5
E1
330
17
100
AcDbEntity
  8
GRID
100
AcDbText
 10
-4045.0
 20
3500.0
 30
0.0
 40
22.0
  1
N 3500
  7
PORT_TXT
 72
1
 11
-4045.0
 21
3500.0
 31
0.0
100
AcDbText
 73
2
  0
LINE
  5
E2
330
17
100
AcDbEntity
  8
BOUNDARY
100
AcDbLine
 10
440.0
 20
3360.0
 30
0.0
 11
4660.0
 21
3360.0
 31
0.0
  0
LINE
  5
E3
330
17
100
AcDbEntity
  8
BOUNDARY
100
AcDbLine
 10
440.0
 20
140.0
 30
0.0
 11
4660.0
 21
140.0
 31
0.0
  0
LINE
  5
E4
330
17
100
AcDbEntity
  8
BOUNDARY
100
AcDbLine
 10
4660.0
 20
140.0
 30
0.0
 11
4660.0
 21
1690.0
 31
0.0
  0
LINE
  5
E5
330
17
100
AcDbEntity
  8
BOUNDARY
100
AcDbLine
 10
4660.0
 20
1810.0
 30
0.0
 11
4660.0
 21
3360.0
 31
0.0
  0
TEXT
  5
E6
330
17
100
AcDbEntity
  8
TEXT
100
AcDbText
 10
4720.0
 20
1750.0
 30
0.0
 40
22.0
  1
MAIN GATE
  7
PORT_TXT
 11
4720.0
 21
1750.0
 31
0.0
100
AcDbText
 73
2
  0
LINE
  5
E7
330
17
100
AcDbEntity
  8
ROADS
100
AcDbLine
 10
4640.0
 20
1680.0
 30
0.0
 11
4640.0
 21
1820.0
 31
0.0
  0
LINE
  5
E8
330
17
100
AcDbEntity
  8
ROADS
100
AcDbLine
 10
4680.0
 20
1680.0
 30
0.0
 11
4680.0
 21
1820.0
 31
0.0
  0
TEXT
  5
E9
330
17
100
AcDbEntity
  8
TEXT
100
AcDbText
 10
4720.0
 20
540.0
 30
0.0
 40
22.0
  1
TRUCK GATE
  7
PORT_TXT
 11
4720.0
 21
540.0
 31
0.0
100
AcDbText
 73
2
  0
LINE
  5
EA
330
17
100
AcDbEntity
  8
ROADS
100
AcDbLine
 10
4640.0
 20
470.0
 30
0.0
 11
4640.0
 21
610.0
 31
0.0
  0
LINE
  5
EB
330
17
100
AcDbEntity
  8
ROADS
100
AcDbLine
 10
4680.0
 20
470.0
 30
0.0
 11
4680.0
 21
610.0
 31
0.0
  0
LINE
  5
EC
330
17
100
AcDbEntity
  8
ROADS
  6
DASHED2
100
AcDbLine
 10
1060.0
 20
300.0
 30
0.0
 11
1060.0
 21
3200.0
 31
0.0
  0
TEXT
  5
ED
330
17
100
AcDbEntity
  8
TEXT
100
AcDbText
 10
1040.0
 20
1750.0
 30
0.0
 40
22.0
  1
UTILITY CORRIDOR
 50
90.0
  7
PORT_TXT
 72
1
 11
1040.0
 21
1750.0
 31
0.0
100
AcDbText
 73
2
  0
LWPOLYLINE
  5
EE
330
17
100
AcDbEntity
  8
WATER
100
AcDbPolyline
 90
4
 70
1
 10
-3375.0
 20
2350.0
 10
-2575.0
 20
2350.0
 10
-2575.0
 20
2950.0
 10
-3375.0
 20
2950.0
  0
TEXT
  5
EF
330
17
100
AcDbEntity
  8
WATER
100
AcDbText
 10
-2975.0
 20
2890.0
 30
0.0
 40
34.0
  1
DESIGNATED ANCHORAGE AREA
  7
PORT_TXT
 72
1
 11
-2975.0
 21
2890.0
 31
0.0
100
AcDbText
 73
2
  0
TEXT
  5
F0
330
17
100
AcDbEntity
  8
WATER
100
AcDbText
 10
-2975.0
 20
2650.0
 30
0.0
 40
22.0
  1
(+) ANCHOR SYMBOL
  7
PORT_TXT
 72
1
 11
-2975.0
 21
2650.0
 31
0.0
100
AcDbText
 73
2
  0
TEXT
  5
F1
330
17
100
AcDbEntity
  8
WATER
100
AcDbText
 10
-2975.0
 20
2410.0
 30
0.0
 40
22.0
  1
DEPTH: NATURAL SEABED
  7
PORT_TXT
 72
1
 11
-2975.0
 21
2410.0
 31
0.0
100
AcDbText
 73
2
  0
LWPOLYLINE
  5
F2
330
17
100
AcDbEntity
  8
FACILITIES
100
AcDbPolyline
 90
4
 70
1
 10
4220.0
 20
1630.0
 10
4480.0
 20
1630.0
 10
4480.0
 20
1810.0
 10
4220.0
 20
1810.0
  0
HATCH
  5
F3
330
17
100
AcDbEntity
  8
HATCH
 62
7
420
14471870
100
AcDbHatch
 10
0.0
 20
0.0
 30
0.0
210
0.0
220
0.0
230
1.0
  2
SOLID
 70
1
 71
0
 91
1
 92
3
 72
0
 73
1
 93
4
 10
4220.0
 20
1630.0
 10
4480.0
 20
1630.0
 10
4480.0
 20
1810.0
 10
4220.0
 20
1810.0
 97
0
 75
1
 76
1
 98
0
  0
LINE
  5
F4
330
17
100
AcDbEntity
  8
FACILITIES
100
AcDbLine
 10
4220.0
 20
1630.0
 30
0.0
 11
4480.0
 21
1810.0
 31
0.0
  0
LINE
  5
F5
330
17
100
AcDbEntity
  8
FACILITIES
100
AcDbLine
 10
4480.0
 20
1630.0
 30
0.0
 11
4220.0
 21
1810.0
 31
0.0
  0
TEXT
  5
F6
330
17
100
AcDbEntity
  8
FACILITIES
100
AcDbText
 10
4350.0
 20
1780.0
 30
0.0
 40
22.0
  1
PORT AUTHORITY
  7
PORT_TXT
 72
1
 11
4350.0
 21
1780.0
 31
0.0
100
AcDbText
 73
2
  0
TEXT
  5
F7
330
17
100
AcDbEntity
  8
FACILITIES
100
AcDbText
 10
4350.0
 20
1720.0
 30
0.0
 40
22.0
  1
ADMIN BUILDING
  7
PORT_TXT
 72
1
 11
4350.0
 21
1720.0
 31
0.0
100
AcDbText
 73
2
  0
LWPOLYLINE
  5
F8
330
17
100
AcDbEntity
  8
FACILITIES
100
AcDbPolyline
 90
4
 70
1
 10
1140.0
 20
880.0
 10
1300.0
 20
880.0
 10
1300.0
 20
1020.0
 10
1140.0
 20
1020.0
  0
HATCH
  5
F9
330
17
100
AcDbEntity
  8
HATCH
 62
7
420
15517896
100
AcDbHatch
 10
0.0
 20
0.0
 30
0.0
210
0.0
220
0.0
230
1.0
  2
SOLID
 70
1
 71
0
 91
1
 92
3
 72
0
 73
1
 93
4
 10
1140.0
 20
880.0
 10
1300.0
 20
880.0
 10
1300.0
 20
1020.0
 10
1140.0
 20
1020.0
 97
0
 75
1
 76
1
 98
0
  0
TEXT
  5
FA
330
17
100
AcDbEntity
  8
FACILITIES
100
AcDbText
 10
1220.0
 20
970.0
 30
0.0
 40
22.0
  1
FIRE STATION
  7
PORT_TXT
 72
1
 11
1220.0
 21
970.0
 31
0.0
100
AcDbText
 73
2
  0
TEXT
  5
FB
330
17
100
AcDbEntity
  8
FACILITIES
100
AcDbText
 10
1220.0
 20
930.0
 30
0.0
 40
22.0
  1
[!] EMERGENCY
  7
PORT_TXT
 72
1
 11
1220.0
 21
930.0
 31
0.0
100
AcDbText
 73
2
  0
LWPOLYLINE
  5
FC
330
17
100
AcDbEntity
  8
FACILITIES
100
AcDbPolyline
 90
4
 70
1
 10
1660.0
 20
360.0
 10
1800.0
 20
360.0
 10
1800.0
 20
480.0
 10
1660.0
 20
480.0
  0
HATCH
  5
FD
330
17
100
AcDbEntity
  8
HATCH
 62
7
420
14474475
100
AcDbHatch
 10
0.0
 20
0.0
 30
0.0
210
0.0
220
0.0
230
1.0
  2
SOLID
 70
1
 71
0
 91
1
 92
3
 72
0
 73
1
 93
4
 10
1660.0
 20
360.0
 10
1800.0
 20
360.0
 10
1800.0
 20
480.0
 10
1660.0
 20
480.0
 97
0
 75
1
 76
1
 98
0
  0
TEXT
  5
FE
330
17
100
AcDbEntity
  8
FACILITIES
100
AcDbText
 10
1730.0
 20
440.0
 30
0.0
 40
22.0
  1
MOSQUE &
  7
PORT_TXT
 72
1
 11
1730.0
 21
440.0
 31
0.0
100
AcDbText
 73
2
  0
TEXT
  5
FF
330
17
100
AcDbEntity
  8
FACILITIES
100
AcDbText
 10
1730.0
 20
400.0
 30
0.0
 40
22.0
  1
AMENITIES
  7
PORT_TXT
 72
1
 11
1730.0
 21
400.0
 31
0.0
100
AcDbText
 73
2
  0
LWPOLYLINE
  5
100
330
17
100
AcDbEntity
  8
CHANNEL
100
AcDbPolyline
 90
4
 70
1
 10
-2025.0
 20
1638.0
 10
-25.0
 20
1638.0
 10
-25.0
 20
1862.0
 10
-2025.0
 20
1862.0
  0
HATCH
  5
101
330
17
100
AcDbEntity
  8
CHANNEL
 62
7
420
7910100
100
AcDbHatch
 10
0.0
 20
0.0
 30
0.0
210
0.0
220
0.0
230
1.0
  2
SOLID
 70
1
 71
0
 91
1
 92
3
 72
0
 73
1
 93
4
 10
-2025.0
 20
1638.0
 10
-25.0
 20
1638.0
 10
-25.0
 20
1862.0
 10
-2025.0
 20
1862.0
 97
0
 75
1
 76
1
 98
0
  0
LINE
  5
102
330
17
100
AcDbEntity
  8
CENTERLINES
  6
CENTER2
100
AcDbLine
 10
-2025.0
 20
1750.0
 30
0.0
 11
-25.0
 21
1750.0
 31
0.0
  0
LINE
  5
103
330
17
100
AcDbEntity
  8
CENTERLINES
100
AcDbLine
 10
-1525.0
 20
1750.0
 30
0.0
 11
-1582.1576766497728
 21
1783.0
 31
0.0
  0
LINE
  5
104
330
17
100
AcDbEntity
  8
CENTERLINES
100
AcDbLine
 10
-1525.0
 20
1750.0
 30
0.0
 11
-1582.1576766497728
 21
1717.0
 31
0.0
  0
LINE
  5
105
330
17
100
AcDbEntity
  8
CENTERLINES
100
AcDbLine
 10
-1591.0
 20
1750.0
 30
0.0
 11
-1525.0
 21
1750.0
 31
0.0
  0
LINE
  5
106
330
17
100
AcDbEntity
  8
CENTERLINES
100
AcDbLine
 10
-925.0
 20
1750.0
 30
0.0
 11
-982.157676649773
 21
1783.0
 31
0.0
  0
LINE
  5
107
330
17
100
AcDbEntity
  8
CENTERLINES
100
AcDbLine
 10
-925.0
 20
1750.0
 30
0.0
 11
-982.157676649773
 21
1717.0
 31
0.0
  0
LINE
  5
108
330
17
100
AcDbEntity
  8
CENTERLINES
100
AcDbLine
 10
-991.0
 20
1750.0
 30
0.0
 11
-925.0
 21
1750.0
 31
0.0
  0
LINE
  5
109
330
17
100
AcDbEntity
  8
CENTERLINES
100
AcDbLine
 10
-325.0
 20
1750.0
 30
0.0
 11
-382.15767664977295
 21
1783.0
 31
0.0
  0
LINE
  5
10A
330
17
100
AcDbEntity
  8
CENTERLINES
100
AcDbLine
 10
-325.0
 20
1750.0
 30
0.0
 11
-382.15767664977295
 21
1717.0
 31
0.0
  0
LINE
  5
10B
330
17
100
AcDbEntity
  8
CENTERLINES
100
AcDbLine
 10
-391.0
 20
1750.0
 30
0.0
 11
-325.0
 21
1750.0
 31
0.0
  0
TEXT
  5
10C
330
17
100
AcDbEntity
  8
CHANNEL
100
AcDbText
 10
-1025.0
 20
1932.0
 30
0.0
 40
34.0
  1
APPROACH CHANNEL  L=2000 m  W=224 m
  7
PORT_TXT
 72
1
 11
-1025.0
 21
1932.0
 31
0.0
100
AcDbText
 73
2
  0
TEXT
  5
10D
330
17
100
AcDbEntity
  8
CHANNEL
100
AcDbText
 10
-1025.0
 20
1548.0
 30
0.0
 40
22.0
  1
DREDGED TO -13.4 m CD
  7
PORT_TXT
 72
1
 11
-1025.0
 21
1548.0
 31
0.0
100
AcDbText
 73
2
  0
LWPOLYLINE
  5
10E
330
17
100
AcDbEntity
  8
CENTERLINES
100
AcDbPolyline
 90
41
 70
0
 10
-2025.0
 20
1750.0
 10
-2041.3621372412736
 20
1750.0892424997753
 10
-2057.7223275518418
 20
1750.3569593801362
 10
-2074.078624232664
 20
1750.8031187854515
 10
-2090.429081048004
 20
1751.4276676272134
 10
-2106.7717524570094
 20
1752.2305315903554
 10
-2123.1046938452146
 20
1753.2116151420948
 10
-2139.4259617559287
 20
1754.3708015433
 10
-2155.7336141214873
 20
1755.7079528623817
 10
-2172.025710494341
 20
1757.2229099917047
 10
-2188.300312277947
 20
1758.9154926665205
 10
-2204.555482957444
 20
1760.7854994864174
 10
-2220.7892883300774
 20
1762.8327079392843
 10
-2236.999796735351
 20
1765.0568744277882
 10
-2253.185079284875
 20
1767.457734298359
 10
-2269.343210091883
 20
1770.0350018726815
 10
-2285.4722665003956
 20
1772.788370481688
 10
-2301.570329313995
 20
1775.717512502048
 10
-2317.635483024192
 20
1778.8220793951543
 10
-2333.665816038352
 20
1782.1017017485924
 10
-2349.659420907154
 20
1785.5559893201
 10
-2365.6143945515596
 20
1789.1845310839994
 10
-2381.5288384892597
 20
1792.9868952801078
 10
-2397.400859060574
 20
1796.9626294651105
 10
-2413.2285676537813
 20
1801.1112605663975
 10
-2429.010080929839
 20
1805.4322949383559
 10
-2444.7435210464882
 20
1809.925218421107
 10
-2460.4270158816935
 20
1814.5894964016868
 10
-2476.0586992564095
 20
1819.4245738776597
 10
-2491.6367111566365
 20
1824.4298755231582
 10
-2507.1591979547425
 20
1829.6048057573414
 10
-2522.6243126300283
 20
1834.9487488152622
 10
-2538.030214988503
 20
1840.4610688211374
 10
-2553.37507188185
 20
1846.1411098640115
 10
-2568.6570574255525
 20
1851.988196075802
 10
-2583.8743532161543
 20
1858.0016317117231
 10
-2599.0251485476347
 20
1864.1807012330698
 10
-2614.107640626861
 20
1870.5246693923616
 10
-2629.120034788106
 20
1877.0327813208291
 10
-2644.060544706592
 20
1883.704262618236
 10
-2658.927392611049
 20
1890.5383194450249
  0
TEXT
  5
10F
330
17
100
AcDbEntity
  8
CHANNEL
100
AcDbText
 10
-2275.0
 20
1870.0
 30
0.0
 40
22.0
  1
APPROACH BEND  R=1500 m
  7
PORT_TXT
 72
1
 11
-2275.0
 21
1870.0
 31
0.0
100
AcDbText
 73
2
  0
CIRCLE
  5
110
330
17
100
AcDbEntity
  8
TURNING_BASIN
100
AcDbCircle
 10
162.5
 20
1750.0
 30
0.0
 40
187.5
  0
HATCH
  5
111
330
17
100
AcDbEntity
  8
TURNING_BASIN
 62
7
420
7910100
100
AcDbHatch
 10
0.0
 20
0.0
 30
0.0
210
0.0
220
0.0
230
1.0
  2
SOLID
 70
1
 71
0
 91
1
 92
3
 72
0
 73
1
 93
72
 10
350.0
 20
1750.0
 10
349.2865058922023
 20
1766.341701765186
 10
347.15145368978904
 20
1782.5590333125494
 10
343.6110924292003
 20
1798.5285709567227
 10
338.69236639735783
 20
1814.1287768735629
 10
332.43271006937186
 20
1829.2409240763811
 10
324.8797632095823
 20
1843.75
 10
316.09100830418595
 20
1857.5455818158212
 10
306.1333330848084
 20
1870.522676816226
 10
295.08252147247765
 20
1882.5825214724778
 10
283.0226768162261
 20
1893.6333330848083
 10
270.04558181582115
 20
1903.5910083041858
 10
256.25
 20
1912.3797632095823
 10
241.74092407638113
 20
1919.9327100693718
 10
226.6287768735629
 20
1926.1923663973578
 10
211.0285709567227
 20
1931.1110924292002
 10
195.05903331254945
 20
1934.651453689789
 10
178.84170176518592
 20
1936.7865058922023
 10
162.5
 20
1937.5
 10
146.1582982348141
 20
1936.7865058922023
 10
129.94096668745055
 20
1934.651453689789
 10
113.97142904327734
 20
1931.1110924292002
 10
98.37122312643716
 20
1926.1923663973578
 10
83.25907592361888
 20
1919.932710069372
 10
68.75000000000004
 20
1912.3797632095823
 10
54.95441818417885
 20
1903.5910083041858
 10
41.977323183773876
 20
1893.6333330848083
 10
29.91747852752235
 20
1882.5825214724778
 10
18.866666915191644
 20
1870.522676816226
 10
8.908991695814024
 20
1857.5455818158212
 10
0.12023679041777768
 20
1843.75
 10
-7.432710069371865
 20
1829.2409240763811
 10
-13.692366397357802
 20
1814.1287768735629
 10
-18.611092429200312
 20
1798.5285709567227
 10
-22.151453689789008
 20
1782.5590333125494
 10
-24.286505892202285
 20
1766.341701765186
 10
-25.0
 20
1750.0
 10
-24.286505892202285
 20
1733.658298234814
 10
-22.151453689789037
 20
1717.4409666874506
 10
-18.61109242920034
 20
1701.4714290432773
 10
-13.69236639735783
 20
1685.8712231264371
 10
-7.432710069371922
 20
1670.7590759236189
 10
0.12023679041774926
 20
1656.25
 10
8.908991695813995
 20
1642.4544181841788
 10
18.86666691519156
 20
1629.477323183774
 10
29.91747852752232
 20
1617.4174785275222
 10
41.97732318377385
 20
1606.3666669151917
 10
54.95441818417895
 20
1596.408991695814
 10
68.74999999999991
 20
1587.6202367904177
 10
83.25907592361877
 20
1580.0672899306282
 10
98.37122312643714
 20
1573.8076336026422
 10
113.97142904327738
 20
1568.8889075707998
 10
129.94096668745055
 20
1565.348546310211
 10
146.15829823481408
 20
1563.2134941077977
 10
162.49999999999997
 20
1562.5
 10
178.84170176518586
 20
1563.2134941077977
 10
195.05903331254936
 20
1565.348546310211
 10
211.02857095672255
 20
1568.8889075707996
 10
226.62877687356294
 20
1573.8076336026422
 10
241.74092407638102
 20
1580.067289930628
 10
256.2499999999999
 20
1587.6202367904177
 10
270.04558181582115
 20
1596.408991695814
 10
283.0226768162261
 20
1606.3666669151917
 10
295.08252147247765
 20
1617.4174785275222
 10
306.1333330848083
 20
1629.477323183774
 10
316.09100830418595
 20
1642.4544181841788
 10
324.8797632095823
 20
1656.25
 10
332.4327100693718
 20
1670.7590759236186
 10
338.69236639735783
 20
1685.8712231264371
 10
343.6110924292003
 20
1701.4714290432773
 10
347.15145368978904
 20
1717.4409666874506
 10
349.2865058922023
 20
1733.658298234814
 97
0
 75
1
 76
1
 98
0
  0
LINE
  5
112
330
17
100
AcDbEntity
  8
CENTERLINES
  6
CENTER2
100
AcDbLine
 10
-25.0
 20
1750.0
 30
0.0
 11
350.0
 21
1750.0
 31
0.0
  0
LINE
  5
113
330
17
100
AcDbEntity
  8
CENTERLINES
  6
CENTER2
100
AcDbLine
 10
162.5
 20
1562.5
 30
0.0
 11
162.5
 21
1937.5
 31
0.0
  0
MTEXT
  5
114
330
17
100
AcDbEntity
  8
TURNING_BASIN
100
AcDbMText
 10
162.5
 20
1750.0
 30
0.0
 40
34.0
 71
5
  1
TURNING BASIN\PØ 375 m
  7
PORT_TXT
  0
LWPOLYLINE
  5
115
330
17
100
AcDbEntity
  8
CENTERLINES
100
AcDbPolyline
 90
72
 70
1
 10
380.0
 20
1750.0
 10
379.1723468349546
 20
1768.9563740476156
 10
376.69568628015526
 20
1787.7684786425573
 10
372.58886721787235
 20
1806.2931423097982
 10
366.8831450209351
 20
1824.389381173333
 10
359.62194368047136
 20
1841.9194719286022
 10
350.86052532311544
 20
1858.75
 10
340.66556963285575
 20
1874.7528749063524
 10
329.1146663783777
 20
1889.8063051068223
 10
316.29572490807413
 20
1903.7957249080741
 10
302.3063051068223
 20
1916.6146663783777
 10
287.25287490635253
 20
1928.1655696328557
 10
271.25
 20
1938.3605253231153
 10
254.41947192860215
 20
1947.1219436804713
 10
236.88938117333296
 20
1954.383145020935
 10
218.7931423097983
 20
1960.0888672178723
 10
200.26847864255737
 20
1964.1956862801553
 10
181.45637404761564
 20
1966.6723468349546
 10
162.5
 20
1967.5
 10
143.5436259523844
 20
1966.6723468349546
 10
124.73152135744266
 20
1964.1956862801553
 10
106.20685769020172
 20
1960.0888672178723
 10
88.1106188266671
 20
1954.383145020935
 10
70.5805280713979
 20
1947.1219436804713
 10
53.75000000000004
 20
1938.3605253231153
 10
37.747125093647455
 20
1928.1655696328557
 10
22.69369489317768
 20
1916.6146663783777
 10
8.704275091925922
 20
1903.7957249080741
 10
-4.114666378377706
 20
1889.8063051068223
 10
-15.66556963285575
 20
1874.7528749063524
 10
-25.860525323115382
 20
1858.75
 10
-34.62194368047136
 20
1841.9194719286022
 10
-41.883145020935046
 20
1824.389381173333
 10
-47.58886721787235
 20
1806.2931423097982
 10
-51.69568628015526
 20
1787.7684786425573
 10
-54.17234683495465
 20
1768.9563740476156
 10
-55.0
 20
1750.0
 10
-54.17234683495465
 20
1731.0436259523844
 10
-51.69568628015526
 20
1712.2315213574427
 10
-47.58886721787238
 20
1693.7068576902018
 10
-41.883145020935075
 20
1675.6106188266672
 10
-34.621943680471446
 20
1658.080528071398
 10
-25.860525323115382
 20
1641.25
 10
-15.665569632855778
 20
1625.2471250936476
 10
-4.114666378377791
 20
1610.1936948931777
 10
8.704275091925865
 20
1596.2042750919259
 10
22.69369489317768
 20
1583.3853336216223
 10
37.74712509364758
 20
1571.8344303671443
 10
53.7499999999999
 20
1561.6394746768847
 10
70.58052807139777
 20
1552.8780563195287
 10
88.11061882666709
 20
1545.616854979065
 10
106.20685769020176
 20
1539.9111327821277
 10
124.73152135744266
 20
1535.8043137198447
 10
143.54362595238433
 20
1533.3276531650454
 10
162.49999999999997
 20
1532.5
 10
181.45637404761558
 20
1533.3276531650454
 10
200.26847864255728
 20
1535.8043137198447
 10
218.79314230979816
 20
1539.9111327821277
 10
236.889381173333
 20
1545.616854979065
 10
254.41947192860198
 20
1552.8780563195285
 10
271.2499999999999
 20
1561.6394746768844
 10
287.25287490635253
 20
1571.8344303671443
 10
302.30630510682226
 20
1583.3853336216223
 10
316.295724908074
 20
1596.2042750919259
 10
329.1146663783777
 20
1610.1936948931777
 10
340.66556963285564
 20
1625.2471250936474
 10
350.86052532311544
 20
1641.25
 10
359.6219436804713
 20
1658.0805280713978
 10
366.8831450209351
 20
1675.6106188266672
 10
372.58886721787235
 20
1693.7068576902018
 10
376.69568628015526
 20
1712.2315213574427
 10
379.1723468349546
 20
1731.0436259523842
  0
TEXT
  5
116
330
17
100
AcDbEntity
  8
TURNING_BASIN
100
AcDbText
 10
162.5
 20
1492.5
 30
0.0
 40
22.0
  1
SAFE CLEARANCE +30 m
  7
PORT_TXT
 72
1
 11
162.5
 21
1492.5
 31
0.0
100
AcDbText
 73
2
  0
CIRCLE
  5
117
330
17
100
AcDbEntity
  8
CHANNEL
100
AcDbCircle
 10
-2425.0
 20
1750.0
 30
0.0
 40
35.0
  0
LINE
  5
118
330
17
100
AcDbEntity
  8
CHANNEL
100
AcDbLine
 10
-2449.5
 20
1750.0
 30
0.0
 11
-2400.5
 21
1750.0
 31
0.0
  0
LINE
  5
119
330
17
100
AcDbEntity
  8
CHANNEL
100
AcDbLine
 10
-2425.0
 20
1725.5
 30
0.0
 11
-2425.0
 21
1774.5
 31
0.0
  0
TEXT
  5
11A
330
17
100
AcDbEntity
  8
CHANNEL
100
AcDbText
 10
-2425.0
 20
1825.0
 30
0.0
 40
22.0
  1
PILOT BOARDING
  7
PORT_TXT
 72
1
 11
-2425.0
 21
1825.0
 31
0.0
100
AcDbText
 73
2
  0
TEXT
  5
11B
330
17
100
AcDbEntity
  8
CHANNEL
100
AcDbText
 10
-2425.0
 20
1795.0
 30
0.0
 40
22.0
  1
STATION
  7
PORT_TXT
 72
1
 11
-2425.0
 21
1795.0
 31
0.0
100
AcDbText
 73
2
  0
LWPOLYLINE
  5
11C
330
17
100
AcDbEntity
  8
TURNING_BASIN
100
AcDbPolyline
 90
4
 70
1
 10
380.0
 20
1602.5
 10
560.0
 20
1602.5
 10
560.0
 20
1802.5
 10
380.0
 20
1802.5
  0
HATCH
  5
11D
330
17
100
AcDbEntity
  8
TURNING_BASIN
 62
7
420
7910100
100
AcDbHatch
 10
0.0
 20
0.0
 30
0.0
210
0.0
220
0.0
230
1.0
  2
SOLID
 70
1
 71
0
 91
1
 92
3
 72
0
 73
1
 93
4
 10
380.0
 20
1602.5
 10
560.0
 20
1602.5
 10
560.0
 20
1802.5
 10
380.0
 20
1802.5
 97
0
 75
1
 76
1
 98
0
  0
MTEXT
  5
11E
330
17
100
AcDbEntity
  8
TURNING_BASIN
100
AcDbMText
 10
470.0
 20
1702.5
 30
0.0
 40
22.0
 71
5
  1
TUG BASIN\PSERVICE CRAFT
  7
PORT_TXT
  0
LWPOLYLINE
  5
11F
330
17
100
AcDbEntity
  8
BREAKWATER
100
AcDbPolyline
 90
4
 70
1
 10
-1845.0
 20
1907.0
 10
-1845.0
 20
1982.0
 10
-3295.0
 20
2027.0
 10
-3295.0
 20
1862.0
  0
HATCH
  5
120
330
17
100
AcDbEntity
  8
BREAKWATER
 62
7
420
7895164
100
AcDbHatch
 10
0.0
 20
0.0
 30
0.0
210
0.0
220
0.0
230
1.0
  2
SOLID
 70
1
 71
0
 91
1
 92
3
 72
0
 73
1
 93
4
 10
-1845.0
 20
1907.0
 10
-1845.0
 20
1982.0
 10
-3295.0
 20
2027.0
 10
-3295.0
 20
1862.0
 97
0
 75
1
 76
1
 98
0
  0
HATCH
  5
121
330
17
100
AcDbEntity
  8
BREAKWATER
 62
7
100
AcDbHatch
 10
0.0
 20
0.0
 30
0.0
210
0.0
220
0.0
230
1.0
  2
GRAVEL
 70
0
 71
0
 91
1
 92
3
 72
0
 73
1
 93
4
 10
-1845.0
 20
1907.0
 10
-1845.0
 20
1982.0
 10
-3295.0
 20
2027.0
 10
-3295.0
 20
1862.0
 97
0
 75
1
 76
1
 52
0.0
 41
55.0
 77
0
 78
41
 53
228.0127875
 43
1005.84
 44
1397.0
 45
-11176.00000088
 46
-12572.999999219
 79
2
 49
187.946792
 49
-18606.766001758
 53
184.969741
 43
880.11
 44
1257.3
 45
16763.999993367
 46
1397.000079585
 79
2
 49
322.522596
 49
-31929.726891436
 53
132.5104471
 43
558.8
 44
1229.36
 45
13970.0000059015
 46
-15366.9999946375
 79
2
 49
227.414836
 49
-22514.097536755
 53
267.273689
 43
13.97
 44
880.11
 45
1397.000002926
 46
27939.9999998515
 79
2
 49
293.702486
 49
-29076.540584157
 53
292.83365418
 43
0.0
 44
586.74
 45
-6985.000000583
 46
16763.999999758
 79
2
 49
287.998535
 49
-28511.894259937
 53
357.273689
 43
111.76
 44
321.31
 45
-27939.9999998515
 46
1397.000002926
 79
2
 49
293.702486
 49
-29076.540584157
 53
37.69424047
 43
405.13
 44
307.34
 45
-18160.999999197
 46
-13970.000001045
 79
2
 49
388.406513
 49
-38452.2134228375
 53
72.25532837
 43
712.47
 44
544.83
 45
9779.000002629
 46
30733.999999164
 79
2
 49
366.695736
 49
-36302.8911310505
 53
121.42956562
 43
824.23
 44
894.08
 45
-11176.000001584
 46
18160.9999990265
 79
2
 49
294.69715
 49
-29175.0501342905
 53
175.2363583
 43
670.56
 44
1145.54
 45
15366.99999978
 46
-1397.0000024145
 79
2
 49
336.442304
 49
-16485.6653225
 53
222.3974378
 43
335.28
 44
1173.48
 45
-16763.999999461
 46
-15367.000000583
 79
2
 49
435.092856
 49
-43074.224881699
 53
138.81407483
 43
1397.0
 44
866.14
 45
-9778.9999994115
 46
8382.000000682
 79
2
 49
148.502497
 49
-14701.811203387
 53
171.4692344
 43
1285.24
 44
963.93
 45
18161.0000004895
 46
-2793.999996832
 79
2
 49
282.525089
 49
-27970.051448372
 53
225.0
 43
1005.84
 44
1005.84
 45
-0.0
 46
-1397.0
 79
2
 49
197.565137
 49
-1778.0912096365
 53
203.19859051
 43
908.05
 44
1173.48
 45
6985.0000001925
 46
2793.9999995105
 79
2
 49
106.392726
 49
-10532.8423028895
 53
291.80140949
 43
810.26
 44
1131.57
 45
-1397.0000002915
 46
4190.999999901
 79
2
 49
150.461091
 49
-7372.6141445
 53
30.96375653
 43
866.14
 44
991.87
 45
4191.0000001045
 46
2793.999999846
 79
2
 49
244.375813
 49
-7901.4639841005
 53
161.56505118
 43
1075.69
 44
1117.6
 45
2794.0000000715
 46
-1396.9999998515
 79
2
 49
176.707927
 49
-4240.9939642565
 53
16.389540334
 43
0.0
 44
1131.57
 45
13970.0
 46
4191.0
 79
2
 49
247.5484
 49
-24507.354669897
 53
70.34617594
 43
237.49
 44
1201.42
 45
-5588.0000005115
 46
-15366.9999998185
 79
2
 49
207.679417
 49
-20560.21862301
 53
293.19859051
 43
1075.69
 44
1397.0
 45
-2793.9999995105
 46
6985.000000198
 79
2
 49
212.784055
 49
-10426.4509738895
 53
343.61045967
 43
1159.51
 44
1201.42
 45
-13970.0000002915
 46
4190.999999021
 79
2
 49
247.5484
 49
-24507.354669897
 53
339.44395478
 43
0.0
 44
265.43
 45
-6985.0
 46
2794.0
 79
2
 49
238.71936
 49
-11697.2538722105
 53
294.7751406
 43
223.52
 44
181.61
 45
-6985.000008316
 46
15366.9999962215
 79
2
 49
200.019666
 49
-19801.976359396
 53
66.80140949
 43
1089.66
 44
0.0
 45
2793.99999956
 46
6985.000000176
 79
2
 49
212.784055
 49
-10426.4509738895
 53
17.35402464
 43
1173.48
 44
195.58
 45
-18160.999999637
 46
-5588.0000011715
 79
2
 49
234.180507
 49
-23183.80678911
 53
69.44395478
 43
405.13
 44
0.0
 45
-2794.0000000495
 46
-6984.999999978
 79
2
 49
119.35968
 49
-11816.6135522105
 53
101.309932474
 43
1005.84
 44
0.0
 45
-1397.0
 46
5588.0
 79
2
 49
71.23303
 49
-7052.0972304915
 53
165.963756532
 43
991.87
 44
69.85
 45
4191.0
 46
-1397.0
 79
2
 49
287.998535
 49
-5471.9800239885
 53
186.00900596
 43
712.47
 44
139.7
 45
13969.9999999285
 46
1397.0000007315
 79
2
 49
266.89685
 49
-26422.750674837
 53
303.69006753
 43
866.14
 44
866.14
 45
-1397.0000001925
 46
2793.999999901
 79
2
 49
201.478134
 49
-4835.476997824
 53
353.15722659
 43
977.9
 44
698.5
 45
23749.0000001485
 46
-2793.999998757
 79
2
 49
351.756218
 49
-34823.8049857665
 53
60.9453959
 43
1327.15
 44
656.59
 45
-5588.000000154
 46
-9778.999999912
 79
2
 49
143.829532
 49
-14239.1657749605
 53
90.0
 43
1397.0
 44
782.32
 45
-1397.0
 46
1397.0
 79
2
 49
83.82
 49
-1313.18
 53
120.25643716
 43
684.53
 44
181.61
 45
5587.999999318
 46
-9779.0000003905
 79
2
 49
194.076828
 49
-19213.66742526
 53
48.0127875
 43
586.74
 44
349.25
 45
11176.000000924
 46
12572.9999991805
 79
2
 49
375.893584
 49
-18418.8192097635
 53
0.0
 43
838.2
 44
628.65
 45
1397.0
 46
1397.0
 79
2
 49
363.22
 49
-1033.78
 53
325.3048465
 43
1201.42
 44
628.65
 45
13970.000005291
 46
-9778.9999924375
 79
2
 49
220.885258
 49
-21867.624198277
 53
254.0546041
 43
1383.03
 44
502.92
 45
-1396.999999901
 46
-5588.000000022
 79
2
 49
203.405994
 49
-9966.9075213235
 53
207.64597536
 43
1327.15
 44
307.34
 45
-26543.0000009735
 46
-13969.9999981465
 79
2
 49
331.179805
 49
-32786.855432617
 53
175.42607874
 43
1033.78
 44
153.67
 45
-18161.0
 46
1397.0
 79
2
 49
350.366203
 49
-34686.215550932
 98
0
  0
CIRCLE
  5
122
330
17
100
AcDbEntity
  8
BREAKWATER
100
AcDbCircle
 10
-3295.0
 20
1944.5
 30
0.0
 40
56.25
  0
TEXT
  5
123
330
17
100
AcDbEntity
  8
BREAKWATER
100
AcDbText
 10
-2570.0
 20
2102.0
 30
0.0
 40
34.0
  1
NORTH BREAKWATER  L=1450 m
  7
PORT_TXT
 72
1
 11
-2570.0
 21
2102.0
 31
0.0
100
AcDbText
 73
2
  0
TEXT
  5
124
330
17
100
AcDbEntity
  8
BREAKWATER
100
AcDbText
 10
-3295.0
 20
2059.5
 30
0.0
 40
22.0
  1
ROUNDHEAD
  7
PORT_TXT
 72
1
 11
-3295.0
 21
2059.5
 31
0.0
100
AcDbText
 73
2
  0
LWPOLYLINE
  5
125
330
17
100
AcDbEntity
  8
BREAKWATER
100
AcDbPolyline
 90
4
 70
1
 10
-1845.0
 20
1518.0
 10
-1845.0
 20
1593.0
 10
-2795.0
 20
1638.0
 10
-2795.0
 20
1473.0
  0
HATCH
  5
126
330
17
100
AcDbEntity
  8
BREAKWATER
 62
7
420
7895164
100
AcDbHatch
 10
0.0
 20
0.0
 30
0.0
210
0.0
220
0.0
230
1.0
  2
SOLID
 70
1
 71
0
 91
1
 92
3
 72
0
 73
1
 93
4
 10
-1845.0
 20
1518.0
 10
-1845.0
 20
1593.0
 10
-2795.0
 20
1638.0
 10
-2795.0
 20
1473.0
 97
0
 75
1
 76
1
 98
0
  0
HATCH
  5
127
330
17
100
AcDbEntity
  8
BREAKWATER
 62
7
100
AcDbHatch
 10
0.0
 20
0.0
 30
0.0
210
0.0
220
0.0
230
1.0
  2
GRAVEL
 70
0
 71
0
 91
1
 92
3
 72
0
 73
1
 93
4
 10
-1845.0
 20
1518.0
 10
-1845.0
 20
1593.0
 10
-2795.0
 20
1638.0
 10
-2795.0
 20
1473.0
 97
0
 75
1
 76
1
 52
0.0
 41
55.0
 77
0
 78
41
 53
228.0127875
 43
1005.84
 44
1397.0
 45
-11176.00000088
 46
-12572.999999219
 79
2
 49
187.946792
 49
-18606.766001758
 53
184.969741
 43
880.11
 44
1257.3
 45
16763.999993367
 46
1397.000079585
 79
2
 49
322.522596
 49
-31929.726891436
 53
132.5104471
 43
558.8
 44
1229.36
 45
13970.0000059015
 46
-15366.9999946375
 79
2
 49
227.414836
 49
-22514.097536755
 53
267.273689
 43
13.97
 44
880.11
 45
1397.000002926
 46
27939.9999998515
 79
2
 49
293.702486
 49
-29076.540584157
 53
292.83365418
 43
0.0
 44
586.74
 45
-6985.000000583
 46
16763.999999758
 79
2
 49
287.998535
 49
-28511.894259937
 53
357.273689
 43
111.76
 44
321.31
 45
-27939.9999998515
 46
1397.000002926
 79
2
 49
293.702486
 49
-29076.540584157
 53
37.69424047
 43
405.13
 44
307.34
 45
-18160.999999197
 46
-13970.000001045
 79
2
 49
388.406513
 49
-38452.2134228375
 53
72.25532837
 43
712.47
 44
544.83
 45
9779.000002629
 46
30733.999999164
 79
2
 49
366.695736
 49
-36302.8911310505
 53
121.42956562
 43
824.23
 44
894.08
 45
-11176.000001584
 46
18160.9999990265
 79
2
 49
294.69715
 49
-29175.0501342905
 53
175.2363583
 43
670.56
 44
1145.54
 45
15366.99999978
 46
-1397.0000024145
 79
2
 49
336.442304
 49
-16485.6653225
 53
222.3974378
 43
335.28
 44
1173.48
 45
-16763.999999461
 46
-15367.000000583
 79
2
 49
435.092856
 49
-43074.224881699
 53
138.81407483
 43
1397.0
 44
866.14
 45
-9778.9999994115
 46
8382.000000682
 79
2
 49
148.502497
 49
-14701.811203387
 53
171.4692344
 43
1285.24
 44
963.93
 45
18161.0000004895
 46
-2793.999996832
 79
2
 49
282.525089
 49
-27970.051448372
 53
225.0
 43
1005.84
 44
1005.84
 45
-0.0
 46
-1397.0
 79
2
 49
197.565137
 49
-1778.0912096365
 53
203.19859051
 43
908.05
 44
1173.48
 45
6985.0000001925
 46
2793.9999995105
 79
2
 49
106.392726
 49
-10532.8423028895
 53
291.80140949
 43
810.26
 44
1131.57
 45
-1397.0000002915
 46
4190.999999901
 79
2
 49
150.461091
 49
-7372.6141445
 53
30.96375653
 43
866.14
 44
991.87
 45
4191.0000001045
 46
2793.999999846
 79
2
 49
244.375813
 49
-7901.4639841005
 53
161.56505118
 43
1075.69
 44
1117.6
 45
2794.0000000715
 46
-1396.9999998515
 79
2
 49
176.707927
 49
-4240.9939642565
 53
16.389540334
 43
0.0
 44
1131.57
 45
13970.0
 46
4191.0
 79
2
 49
247.5484
 49
-24507.354669897
 53
70.34617594
 43
237.49
 44
1201.42
 45
-5588.0000005115
 46
-15366.9999998185
 79
2
 49
207.679417
 49
-20560.21862301
 53
293.19859051
 43
1075.69
 44
1397.0
 45
-2793.9999995105
 46
6985.000000198
 79
2
 49
212.784055
 49
-10426.4509738895
 53
343.61045967
 43
1159.51
 44
1201.42
 45
-13970.0000002915
 46
4190.999999021
 79
2
 49
247.5484
 49
-24507.354669897
 53
339.44395478
 43
0.0
 44
265.43
 45
-6985.0
 46
2794.0
 79
2
 49
238.71936
 49
-11697.2538722105
 53
294.7751406
 43
223.52
 44
181.61
 45
-6985.000008316
 46
15366.9999962215
 79
2
 49
200.019666
 49
-19801.976359396
 53
66.80140949
 43
1089.66
 44
0.0
 45
2793.99999956
 46
6985.000000176
 79
2
 49
212.784055
 49
-10426.4509738895
 53
17.35402464
 43
1173.48
 44
195.58
 45
-18160.999999637
 46
-5588.0000011715
 79
2
 49
234.180507
 49
-23183.80678911
 53
69.44395478
 43
405.13
 44
0.0
 45
-2794.0000000495
 46
-6984.999999978
 79
2
 49
119.35968
 49
-11816.6135522105
 53
101.309932474
 43
1005.84
 44
0.0
 45
-1397.0
 46
5588.0
 79
2
 49
71.23303
 49
-7052.0972304915
 53
165.963756532
 43
991.87
 44
69.85
 45
4191.0
 46
-1397.0
 79
2
 49
287.998535
 49
-5471.9800239885
 53
186.00900596
 43
712.47
 44
139.7
 45
13969.9999999285
 46
1397.0000007315
 79
2
 49
266.89685
 49
-26422.750674837
 53
303.69006753
 43
866.14
 44
866.14
 45
-1397.0000001925
 46
2793.999999901
 79
2
 49
201.478134
 49
-4835.476997824
 53
353.15722659
 43
977.9
 44
698.5
 45
23749.0000001485
 46
-2793.999998757
 79
2
 49
351.756218
 49
-34823.8049857665
 53
60.9453959
 43
1327.15
 44
656.59
 45
-5588.000000154
 46
-9778.999999912
 79
2
 49
143.829532
 49
-14239.1657749605
 53
90.0
 43
1397.0
 44
782.32
 45
-1397.0
 46
1397.0
 79
2
 49
83.82
 49
-1313.18
 53
120.25643716
 43
684.53
 44
181.61
 45
5587.999999318
 46
-9779.0000003905
 79
2
 49
194.076828
 49
-19213.66742526
 53
48.0127875
 43
586.74
 44
349.25
 45
11176.000000924
 46
12572.9999991805
 79
2
 49
375.893584
 49
-18418.8192097635
 53
0.0
 43
838.2
 44
628.65
 45
1397.0
 46
1397.0
 79
2
 49
363.22
 49
-1033.78
 53
325.3048465
 43
1201.42
 44
628.65
 45
13970.000005291
 46
-9778.9999924375
 79
2
 49
220.885258
 49
-21867.624198277
 53
254.0546041
 43
1383.03
 44
502.92
 45
-1396.999999901
 46
-5588.000000022
 79
2
 49
203.405994
 49
-9966.9075213235
 53
207.64597536
 43
1327.15
 44
307.34
 45
-26543.0000009735
 46
-13969.9999981465
 79
2
 49
331.179805
 49
-32786.855432617
 53
175.42607874
 43
1033.78
 44
153.67
 45
-18161.0
 46
1397.0
 79
2
 49
350.366203
 49
-34686.215550932
 98
0
  0
CIRCLE
  5
128
330
17
100
AcDbEntity
  8
BREAKWATER
100
AcDbCircle
 10
-2795.0
 20
1555.5
 30
0.0
 40
56.25
  0
TEXT
  5
129
330
17
100
AcDbEntity
  8
BREAKWATER
100
AcDbText
 10
-2320.0
 20
1398.0
 30
0.0
 40
34.0
  1
SOUTH BREAKWATER  L=950 m
  7
PORT_TXT
 72
1
 11
-2320.0
 21
1398.0
 31
0.0
100
AcDbText
 73
2
  0
TEXT
  5
12A
330
17
100
AcDbEntity
  8
BREAKWATER
100
AcDbText
 10
-1785.0
 20
1750.0
 30
0.0
 40
22.0
  1
ENTRANCE GAP 314 m
  7
PORT_TXT
 11
-1785.0
 21
1750.0
 31
0.0
100
AcDbText
 73
2
  0
CIRCLE
  5
12B
330
17
100
AcDbEntity
  8
BREAKWATER
100
AcDbCircle
 10
-3295.0
 20
1944.5
 30
0.0
 40
18.0
  0
CIRCLE
  5
12C
330
17
100
AcDbEntity
  8
BREAKWATER
100
AcDbCircle
 10
-3295.0
 20
1944.5
 30
0.0
 40
7.2
  0
TEXT
  5
12D
330
17
100
AcDbEntity
  8
BREAKWATER
100
AcDbText
 10
-3295.0
 20
1896.5
 30
0.0
 40
22.0
  1
FL.G 5s
  7
PORT_TXT
 72
1
 11
-3295.0
 21
1896.5
 31
0.0
100
AcDbText
 73
2
  0
CIRCLE
  5
12E
330
17
100
AcDbEntity
  8
BREAKWATER
100
AcDbCircle
 10
-2795.0
 20
1555.5
 30
0.0
 40
18.0
  0
CIRCLE
  5
12F
330
17
100
AcDbEntity
  8
BREAKWATER
100
AcDbCircle
 10
-2795.0
 20
1555.5
 30
0.0
 40
7.2
  0
TEXT
  5
130
330
17
100
AcDbEntity
  8
BREAKWATER
100
AcDbText
 10
-2795.0
 20
1507.5
 30
0.0
 40
22.0
  1
FL.R 5s
  7
PORT_TXT
 72
1
 11
-2795.0
 21
1507.5
 31
0.0
100
AcDbText
 73
2
  0
LWPOLYLINE
  5
131
330
17
100
AcDbEntity
  8
BREAKWATER
100
AcDbPolyline
 90
4
 70
1
 10
-3803.0
 20
320.0
 10
-2822.0
 20
320.0
 10
-3119.0
 20
572.0
 10
-3299.0
 20
572.0
  0
HATCH
  5
132
330
17
100
AcDbEntity
  8
HATCH
 62
7
100
AcDbHatch
 10
0.0
 20
0.0
 30
0.0
210
0.0
220
0.0
230
1.0
  2
GRAVEL
 70
0
 71
0
 91
1
 92
3
 72
0
 73
1
 93
4
 10
-3803.0
 20
320.0
 10
-2822.0
 20
320.0
 10
-3119.0
 20
572.0
 10
-3299.0
 20
572.0
 97
0
 75
1
 76
1
 52
0.0
 41
7.0
 77
0
 78
41
 53
228.0127875
 43
128.016
 44
177.8
 45
-1422.400000112
 46
-1600.1999999006
 79
2
 49
23.9205008
 49
-2368.1338547692
 53
184.969741
 43
112.014
 44
160.02
 45
2133.5999991558
 46
177.800010129
 79
2
 49
41.0483304
 49
-4063.7834225464
 53
132.5104471
 43
71.12
 44
156.464
 45
1778.0000007511
 46
-1955.7999993175
 79
2
 49
28.9437064
 49
-2865.430595587
 53
267.273689
 43
1.778
 44
112.014
 45
177.8000003724
 46
3555.9999999811
 79
2
 49
37.3803164
 49
-3700.6506198018
 53
292.83365418
 43
0.0
 44
74.676
 45
-889.0000000742
 46
2133.5999999692
 79
2
 49
36.654359
 49
-3628.7865421738
 53
357.273689
 43
14.224
 44
40.894
 45
-3555.9999999811
 46
177.8000003724
 79
2
 49
37.3803164
 49
-3700.6506198018
 53
37.69424047
 43
51.562
 44
39.116
 45
-2311.3999998978
 46
-1778.000000133
 79
2
 49
49.4335562
 49
-4893.9180719975
 53
72.25532837
 43
90.678
 44
69.342
 45
1244.6000003346
 46
3911.5999998936
 79
2
 49
46.6703664
 49
-4620.3679621337
 53
121.42956562
 43
104.902
 44
113.792
 45
-1422.4000002016
 46
2311.3999998761
 79
2
 49
37.50691
 49
-3713.1881989097
 53
175.2363583
 43
85.344
 44
145.796
 45
1955.799999972
 46
-177.8000003073
 79
2
 49
42.8199296
 49
-2098.1755865
 53
222.3974378
 43
42.672
 44
149.352
 45
-2133.5999999314
 46
-1955.8000000742
 79
2
 49
55.3754544
 49
-5482.1740758526
 53
138.81407483
 43
177.8
 44
110.236
 45
-1244.5999999251
 46
1066.8000000868
 79
2
 49
18.9003178
 49
-1871.1396077038
 53
171.4692344
 43
163.576
 44
122.682
 45
2311.4000000623
 46
-355.5999995968
 79
2
 49
35.9577386
 49
-3559.8247297928
 53
225.0
 43
128.016
 44
128.016
 45
-0.0
 46
-177.8
 79
2
 49
25.1446538
 49
-226.3025175901
 53
203.19859051
 43
115.57
 44
149.352
 45
889.0000000245
 46
355.5999999377
 79
2
 49
13.5408924
 49
-1340.5435658223
 53
291.80140949
 43
103.124
 44
144.018
 45
-177.8000000371
 46
533.3999999874
 79
2
 49
19.1495934
 49
-938.3327093
 53
30.96375653
 43
110.236
 44
126.238
 45
533.4000000133
 46
355.5999999804
 79
2
 49
31.1023762
 49
-1005.6408707037
 53
161.56505118
 43
136.906
 44
142.24
 45
355.6000000091
 46
-177.7999999811
 79
2
 49
22.4900998
 49
-539.7628681781
 53
16.389540334
 43
0.0
 44
144.018
 45
1778.0
 46
533.4
 79
2
 49
31.50616
 49
-3119.1178670778
 53
70.34617594
 43
30.226
 44
152.908
 45
-711.2000000651
 46
-1955.7999999769
 79
2
 49
26.4319258
 49
-2616.755097474
 53
293.19859051
 43
136.906
 44
177.8
 45
-355.5999999377
 46
889.0000000252
 79
2
 49
27.081607
 49
-1327.0028512223
 53
343.61045967
 43
147.574
 44
152.908
 45
-1778.0000000371
 46
533.3999998754
 79
2
 49
31.50616
 49
-3119.1178670778
 53
339.44395478
 43
0.0
 44
33.782
 45
-889.0
 46
355.6
 79
2
 49
30.382464
 49
-1488.7414019177
 53
294.7751406
 43
28.448
 44
23.114
 45
-889.0000010584
 46
1955.7999995191
 79
2
 49
25.4570484
 49
-2520.2515366504
 53
66.80140949
 43
138.684
 44
0.0
 45
355.599999944
 46
889.0000000224
 79
2
 49
27.081607
 49
-1327.0028512223
 53
17.35402464
 43
149.352
 44
24.892
 45
-2311.3999999538
 46
-711.2000001491
 79
2
 49
29.8047918
 49
-2950.666318614
 53
69.44395478
 43
51.562
 44
0.0
 45
-355.6000000063
 46
-888.9999999972
 79
2
 49
15.191232
 49
-1503.9326339177
 53
101.309932474
 43
128.016
 44
0.0
 45
-177.8
 46
711.2
 79
2
 49
9.066022
 49
-897.5396475171
 53
165.963756532
 43
126.238
 44
8.89
 45
533.4
 46
-177.8
 79
2
 49
36.654359
 49
-696.4338212349
 53
186.00900596
 43
90.678
 44
17.78
 45
1777.9999999909
 46
177.8000000931
 79
2
 49
33.96869
 49
-3362.8955404338
 53
303.69006753
 43
110.236
 44
110.236
 45
-177.8000000245
 46
355.5999999874
 79
2
 49
25.6426716
 49
-615.4243451776
 53
353.15722659
 43
124.46
 44
88.9
 45
3022.6000000189
 46
-355.5999998418
 79
2
 49
44.7689732
 49
-4432.1206345521
 53
60.9453959
 43
168.91
 44
83.566
 45
-711.2000000196
 46
-1244.5999999888
 79
2
 49
18.3055768
 49
-1812.2574622677
 53
90.0
 43
177.8
 44
99.568
 45
-177.8
 46
177.8
 79
2
 49
10.668
 49
-167.132
 53
120.25643716
 43
87.122
 44
23.114
 45
711.1999999132
 46
-1244.6000000497
 79
2
 49
24.7006872
 49
-2445.375854124
 53
48.0127875
 43
74.676
 44
44.45
 45
1422.4000001176
 46
1600.1999998957
 79
2
 49
47.8410016
 49
-2344.2133539699
 53
0.0
 43
106.68
 44
80.01
 45
177.8
 46
177.8
 79
2
 49
46.228
 49
-131.572
 53
325.3048465
 43
152.908
 44
80.01
 45
1778.0000006734
 46
-1244.5999990375
 79
2
 49
28.1126692
 49
-2783.1521706898
 53
254.0546041
 43
176.022
 44
64.008
 45
-177.7999999874
 46
-711.2000000028
 79
2
 49
25.8880356
 49
-1268.5155027139
 53
207.64597536
 43
168.91
 44
39.116
 45
-3378.2000001239
 46
-1777.9999997641
 79
2
 49
42.150157
 49
-4172.8725096058
 53
175.42607874
 43
131.572
 44
19.558
 45
-2311.4
 46
177.8
 79
2
 49
44.5920622
 49
-4414.6092519368
 98
0
  0
TEXT
  5
133
330
17
100
AcDbEntity
  8
BREAKWATER
100
AcDbText
 10
-3312.5
 20
392.0
 30
0.0
 40
22.0
  1
ARMOUR
  7
PORT_TXT
 72
1
 11
-3312.5
 21
392.0
 31
0.0
100
AcDbText
 73
2
  0
LWPOLYLINE
  5
134
330
17
100
AcDbEntity
  8
BREAKWATER
100
AcDbPolyline
 90
4
 70
1
 10
-3731.0
 20
320.0
 10
-2894.0
 20
320.0
 10
-3191.0
 20
536.0
 10
-3299.0
 20
536.0
  0
HATCH
  5
135
330
17
100
AcDbEntity
  8
HATCH
 62
7
100
AcDbHatch
 10
0.0
 20
0.0
 30
0.0
210
0.0
220
0.0
230
1.0
  2
ANSI37
 70
0
 71
0
 91
1
 92
3
 72
0
 73
1
 93
4
 10
-3731.0
 20
320.0
 10
-2894.0
 20
320.0
 10
-3191.0
 20
536.0
 10
-3299.0
 20
536.0
 97
0
 75
1
 76
1
 52
0.0
 41
5.0
 77
0
 78
2
 53
45.0
 43
0.0
 44
0.0
 45
-11.2253201515
 46
11.2253201515
 79
0
 53
135.0
 43
0.0
 44
0.0
 45
-11.2253201515
 46
-11.2253201515
 79
0
 98
0
  0
TEXT
  5
136
330
17
100
AcDbEntity
  8
BREAKWATER
100
AcDbText
 10
-3743.0
 20
474.44
 30
0.0
 40
22.0
  1
FILTER
  7
PORT_TXT
 72
2
 11
-3743.0
 21
474.44
 31
0.0
100
AcDbText
 73
2
  0
LWPOLYLINE
  5
137
330
17
100
AcDbEntity
  8
BREAKWATER
100
AcDbPolyline
 90
4
 70
1
 10
-3695.0
 20
320.0
 10
-2930.0
 20
320.0
 10
-3227.0
 20
518.0
 10
-3299.0
 20
518.0
  0
HATCH
  5
138
330
17
100
AcDbEntity
  8
HATCH
 62
7
100
AcDbHatch
 10
0.0
 20
0.0
 30
0.0
210
0.0
220
0.0
230
1.0
  2
ANSI31
 70
0
 71
0
 91
1
 92
3
 72
0
 73
1
 93
4
 10
-3695.0
 20
320.0
 10
-2930.0
 20
320.0
 10
-3227.0
 20
518.0
 10
-3299.0
 20
518.0
 97
0
 75
1
 76
1
 52
0.0
 41
6.0
 77
0
 78
1
 53
45.0
 43
0.0
 44
0.0
 45
-13.4703841818
 46
13.4703841818
 79
0
 98
0
  0
TEXT
  5
139
330
17
100
AcDbEntity
  8
BREAKWATER
100
AcDbText
 10
-3312.5
 20
389.3
 30
0.0
 40
22.0
  1
CORE
  7
PORT_TXT
 72
1
 11
-3312.5
 21
389.3
 31
0.0
100
AcDbText
 73
2
  0
LWPOLYLINE
  5
13A
330
17
100
AcDbEntity
  8
BREAKWATER
100
AcDbPolyline
 90
4
 70
1
 10
-3803.0
 20
320.0
 10
-3857.0
 20
320.0
 10
-3857.0
 20
347.0
 10
-3803.0
 20
347.0
  0
LWPOLYLINE
  5
13B
330
17
100
AcDbEntity
  8
BREAKWATER
100
AcDbPolyline
 90
4
 70
1
 10
-2849.0
 20
320.0
 10
-2795.0
 20
320.0
 10
-2795.0
 20
347.0
 10
-2849.0
 20
347.0
  0
TEXT
  5
13C
330
17
100
AcDbEntity
  8
BREAKWATER
100
AcDbText
 10
-3823.0
 20
347.0
 30
0.0
 40
22.0
  1
TOE
  7
PORT_TXT
 72
2
 11
-3823.0
 21
347.0
 31
0.0
100
AcDbText
 73
2
  0
LINE
  5
13D
330
17
100
AcDbEntity
  8
WATER
  6
DASHED2
100
AcDbLine
 10
-4154.0
 20
455.0
 30
0.0
 11
-2777.0
 21
455.0
 31
0.0
  0
TEXT
  5
13E
330
17
100
AcDbEntity
  8
WATER
100
AcDbText
 10
-2761.7
 20
455.0
 30
0.0
 40
22.0
  1
SWL +0.0 m CD
  7
PORT_TXT
 11
-2761.7
 21
455.0
 31
0.0
100
AcDbText
 73
2
  0
TEXT
  5
13F
330
17
100
AcDbEntity
  8
BREAKWATER
100
AcDbText
 10
-3312.5
 20
597.0
 30
0.0
 40
22.0
  1
CREST +7.0 m CD
  7
PORT_TXT
 72
1
 11
-3312.5
 21
597.0
 31
0.0
100
AcDbText
 73
2
  0
MTEXT
  5
140
330
17
100
AcDbEntity
  8
TEXT
100
AcDbMText
 10
-2738.75
 20
518.0
 30
0.0
 40
22.0
 41
688.5
 71
1
  1
HUDSON ARMOUR DESIGN\PHs=4.5 m  Kd=4.0\Prho_s=2650  rho_w=1025 kg/m3\Pcot(a)=2.0  slope 2H:1V\P=> W50=7.6 t   armour t=4.0 m\Pcrest width=8.0 m
  7
PORT_TXT
  0
TEXT
  5
141
330
17
100
AcDbEntity
  8
TEXT
100
AcDbText
 10
-3312.5
 20
250.0
 30
0.0
 40
34.0
  1
DETAIL A - BREAKWATER TRUNK CROSS-SECTION (N.T.S.)
  7
PORT_TXT
 72
1
 11
-3312.5
 21
250.0
 31
0.0
100
AcDbText
 73
2
  0
LWPOLYLINE
  5
142
330
17
100
AcDbEntity
  8
TERMINALS
100
AcDbPolyline
 90
4
 70
1
 10
400.0
 20
2350.0
 10
1000.0
 20
2350.0
 10
1000.0
 20
3400.0
 10
400.0
 20
3400.0
  0
TEXT
  5
143
330
17
100
AcDbEntity
  8
TERMINALS
100
AcDbText
 10
700.0
 20
3350.0
 30
0.0
 40
34.0
  1
CONTAINER TERMINAL
  7
PORT_TXT
 72
1
 11
700.0
 21
3350.0
 31
0.0
100
AcDbText
 73
2
  0
LINE
  5
144
330
17
100
AcDbEntity
  8
QUAYS
100
AcDbLine
 10
400.0
 20
2350.0
 30
0.0
 11
400.0
 21
3400.0
 31
0.0
  0
LWPOLYLINE
  5
145
330
17
100
AcDbEntity
  8
QUAYS
100
AcDbPolyline
 90
4
 70
1
 10
400.0
 20
2350.0
 10
460.0
 20
2350.0
 10
460.0
 20
3400.0
 10
400.0
 20
3400.0
  0
LINE
  5
146
330
17
100
AcDbEntity
  8
BERTHS
100
AcDbLine
 10
392.0
 20
2360.0
 30
0.0
 11
392.0
 21
2690.0
 31
0.0
  0
TEXT
  5
147
330
17
100
AcDbEntity
  8
BERTHS
100
AcDbText
 10
440.0
 20
2525.0
 30
0.0
 40
22.0
  1
B1
  7
PORT_TXT
 11
440.0
 21
2525.0
 31
0.0
100
AcDbText
 73
2
  0
LINE
  5
148
330
17
100
AcDbEntity
  8
BERTHS
100
AcDbLine
 10
392.0
 20
2710.0
 30
0.0
 11
392.0
 21
3040.0
 31
0.0
  0
TEXT
  5
149
330
17
100
AcDbEntity
  8
BERTHS
100
AcDbText
 10
440.0
 20
2875.0
 30
0.0
 40
22.0
  1
B2
  7
PORT_TXT
 11
440.0
 21
2875.0
 31
0.0
100
AcDbText
 73
2
  0
LINE
  5
14A
330
17
100
AcDbEntity
  8
BERTHS
100
AcDbLine
 10
392.0
 20
3060.0
 30
0.0
 11
392.0
 21
3390.0
 31
0.0
  0
TEXT
  5
14B
330
17
100
AcDbEntity
  8
BERTHS
100
AcDbText
 10
440.0
 20
3225.0
 30
0.0
 40
22.0
  1
B3
  7
PORT_TXT
 11
440.0
 21
3225.0
 31
0.0
100
AcDbText
 73
2
  0
TEXT
  5
14C
330
17
100
AcDbEntity
  8
BERTHS
100
AcDbText
 10
490.0
 20
2875.0
 30
0.0
 40
22.0
  1
3 BERTHS @ 350 m
  7
PORT_TXT
 11
490.0
 21
2875.0
 31
0.0
100
AcDbText
 73
2
  0
LWPOLYLINE
  5
14D
330
17
100
AcDbEntity
  8
TERMINALS
100
AcDbPolyline
 90
4
 70
1
 10
490.0
 20
2390.0
 10
940.0
 20
2390.0
 10
940.0
 20
3020.0
 10
490.0
 20
3020.0
  0
HATCH
  5
14E
330
17
100
AcDbEntity
  8
HATCH
 62
7
420
13689580
100
AcDbHatch
 10
0.0
 20
0.0
 30
0.0
210
0.0
220
0.0
230
1.0
  2
SOLID
 70
1
 71
0
 91
1
 92
3
 72
0
 73
1
 93
4
 10
490.0
 20
2390.0
 10
940.0
 20
2390.0
 10
940.0
 20
3020.0
 10
490.0
 20
3020.0
 97
0
 75
1
 76
1
 98
0
  0
TEXT
  5
14F
330
17
100
AcDbEntity
  8
TERMINALS
100
AcDbText
 10
715.0
 20
2705.0
 30
0.0
 40
22.0
  1
STORAGE YARD
  7
PORT_TXT
 72
1
 11
715.0
 21
2705.0
 31
0.0
100
AcDbText
 73
2
  0
LWPOLYLINE
  5
150
330
17
100
AcDbEntity
  8
TERMINALS
100
AcDbPolyline
 90
4
 70
1
 10
490.0
 20
3040.0
 10
940.0
 20
3040.0
 10
940.0
 20
3380.0
 10
490.0
 20
3380.0
  0
TEXT
  5
151
330
17
100
AcDbEntity
  8
TERMINALS
100
AcDbText
 10
715.0
 20
3210.0
 30
0.0
 40
22.0
  1
SERVICE AREA
  7
PORT_TXT
 72
1
 11
715.0
 21
3210.0
 31
0.0
100
AcDbText
 73
2
  0
LINE
  5
152
330
17
100
AcDbEntity
  8
ROADS
100
AcDbLine
 10
1000.0
 20
2875.0
 30
0.0
 11
940.0
 21
2875.0
 31
0.0
  0
LWPOLYLINE
  5
153
330
17
100
AcDbEntity
  8
TERMINALS
100
AcDbPolyline
 90
4
 70
1
 10
400.0
 20
1960.0
 10
1000.0
 20
1960.0
 10
1000.0
 20
2320.0
 10
400.0
 20
2320.0
  0
TEXT
  5
154
330
17
100
AcDbEntity
  8
TERMINALS
100
AcDbText
 10
700.0
 20
2270.0
 30
0.0
 40
34.0
  1
PASSENGER TERMINAL
  7
PORT_TXT
 72
1
 11
700.0
 21
2270.0
 31
0.0
100
AcDbText
 73
2
  0
LINE
  5
155
330
17
100
AcDbEntity
  8
QUAYS
100
AcDbLine
 10
400.0
 20
1960.0
 30
0.0
 11
400.0
 21
2320.0
 31
0.0
  0
LWPOLYLINE
  5
156
330
17
100
AcDbEntity
  8
QUAYS
100
AcDbPolyline
 90
4
 70
1
 10
400.0
 20
1960.0
 10
460.0
 20
1960.0
 10
460.0
 20
2320.0
 10
400.0
 20
2320.0
  0
LINE
  5
157
330
17
100
AcDbEntity
  8
BERTHS
100
AcDbLine
 10
392.0
 20
1970.0
 30
0.0
 11
392.0
 21
2310.0
 31
0.0
  0
TEXT
  5
158
330
17
100
AcDbEntity
  8
BERTHS
100
AcDbText
 10
440.0
 20
2140.0
 30
0.0
 40
22.0
  1
B1
  7
PORT_TXT
 11
440.0
 21
2140.0
 31
0.0
100
AcDbText
 73
2
  0
TEXT
  5
159
330
17
100
AcDbEntity
  8
BERTHS
100
AcDbText
 10
490.0
 20
2140.0
 30
0.0
 40
22.0
  1
1 BERTHS @ 360 m
  7
PORT_TXT
 11
490.0
 21
2140.0
 31
0.0
100
AcDbText
 73
2
  0
LWPOLYLINE
  5
15A
330
17
100
AcDbEntity
  8
TERMINALS
100
AcDbPolyline
 90
4
 70
1
 10
490.0
 20
2000.0
 10
940.0
 20
2000.0
 10
940.0
 20
2216.0
 10
490.0
 20
2216.0
  0
HATCH
  5
15B
330
17
100
AcDbEntity
  8
HATCH
 62
7
420
14735084
100
AcDbHatch
 10
0.0
 20
0.0
 30
0.0
210
0.0
220
0.0
230
1.0
  2
SOLID
 70
1
 71
0
 91
1
 92
3
 72
0
 73
1
 93
4
 10
490.0
 20
2000.0
 10
940.0
 20
2000.0
 10
940.0
 20
2216.0
 10
490.0
 20
2216.0
 97
0
 75
1
 76
1
 98
0
  0
TEXT
  5
15C
330
17
100
AcDbEntity
  8
TERMINALS
100
AcDbText
 10
715.0
 20
2108.0
 30
0.0
 40
22.0
  1
STORAGE YARD
  7
PORT_TXT
 72
1
 11
715.0
 21
2108.0
 31
0.0
100
AcDbText
 73
2
  0
LWPOLYLINE
  5
15D
330
17
100
AcDbEntity
  8
TERMINALS
100
AcDbPolyline
 90
4
 70
1
 10
490.0
 20
2236.0
 10
940.0
 20
2236.0
 10
940.0
 20
2300.0
 10
490.0
 20
2300.0
  0
TEXT
  5
15E
330
17
100
AcDbEntity
  8
TERMINALS
100
AcDbText
 10
715.0
 20
2268.0
 30
0.0
 40
22.0
  1
SERVICE AREA
  7
PORT_TXT
 72
1
 11
715.0
 21
2268.0
 31
0.0
100
AcDbText
 73
2
  0
LINE
  5
15F
330
17
100
AcDbEntity
  8
ROADS
100
AcDbLine
 10
1000.0
 20
2140.0
 30
0.0
 11
940.0
 21
2140.0
 31
0.0
  0
LWPOLYLINE
  5
160
330
17
100
AcDbEntity
  8
TERMINALS
100
AcDbPolyline
 90
4
 70
1
 10
400.0
 20
1470.0
 10
1000.0
 20
1470.0
 10
1000.0
 20
1930.0
 10
400.0
 20
1930.0
  0
TEXT
  5
161
330
17
100
AcDbEntity
  8
TERMINALS
100
AcDbText
 10
700.0
 20
1880.0
 30
0.0
 40
34.0
  1
GENERAL CARGO WHARF
  7
PORT_TXT
 72
1
 11
700.0
 21
1880.0
 31
0.0
100
AcDbText
 73
2
  0
LINE
  5
162
330
17
100
AcDbEntity
  8
QUAYS
100
AcDbLine
 10
400.0
 20
1470.0
 30
0.0
 11
400.0
 21
1930.0
 31
0.0
  0
LWPOLYLINE
  5
163
330
17
100
AcDbEntity
  8
QUAYS
100
AcDbPolyline
 90
4
 70
1
 10
400.0
 20
1470.0
 10
460.0
 20
1470.0
 10
460.0
 20
1930.0
 10
400.0
 20
1930.0
  0
LINE
  5
164
330
17
100
AcDbEntity
  8
BERTHS
100
AcDbLine
 10
392.0
 20
1480.0
 30
0.0
 11
392.0
 21
1690.0
 31
0.0
  0
TEXT
  5
165
330
17
100
AcDbEntity
  8
BERTHS
100
AcDbText
 10
440.0
 20
1585.0
 30
0.0
 40
22.0
  1
B1
  7
PORT_TXT
 11
440.0
 21
1585.0
 31
0.0
100
AcDbText
 73
2
  0
LINE
  5
166
330
17
100
AcDbEntity
  8
BERTHS
100
AcDbLine
 10
392.0
 20
1710.0
 30
0.0
 11
392.0
 21
1920.0
 31
0.0
  0
TEXT
  5
167
330
17
100
AcDbEntity
  8
BERTHS
100
AcDbText
 10
440.0
 20
1815.0
 30
0.0
 40
22.0
  1
B2
  7
PORT_TXT
 11
440.0
 21
1815.0
 31
0.0
100
AcDbText
 73
2
  0
TEXT
  5
168
330
17
100
AcDbEntity
  8
BERTHS
100
AcDbText
 10
490.0
 20
1700.0
 30
0.0
 40
22.0
  1
2 BERTHS @ 230 m
  7
PORT_TXT
 11
490.0
 21
1700.0
 31
0.0
100
AcDbText
 73
2
  0
LWPOLYLINE
  5
169
330
17
100
AcDbEntity
  8
TERMINALS
100
AcDbPolyline
 90
4
 70
1
 10
490.0
 20
1510.0
 10
940.0
 20
1510.0
 10
940.0
 20
1786.0
 10
490.0
 20
1786.0
  0
HATCH
  5
16A
330
17
100
AcDbEntity
  8
HATCH
 62
7
420
14999750
100
AcDbHatch
 10
0.0
 20
0.0
 30
0.0
210
0.0
220
0.0
230
1.0
  2
SOLID
 70
1
 71
0
 91
1
 92
3
 72
0
 73
1
 93
4
 10
490.0
 20
1510.0
 10
940.0
 20
1510.0
 10
940.0
 20
1786.0
 10
490.0
 20
1786.0
 97
0
 75
1
 76
1
 98
0
  0
TEXT
  5
16B
330
17
100
AcDbEntity
  8
TERMINALS
100
AcDbText
 10
715.0
 20
1648.0
 30
0.0
 40
22.0
  1
STORAGE YARD
  7
PORT_TXT
 72
1
 11
715.0
 21
1648.0
 31
0.0
100
AcDbText
 73
2
  0
LWPOLYLINE
  5
16C
330
17
100
AcDbEntity
  8
TERMINALS
100
AcDbPolyline
 90
4
 70
1
 10
490.0
 20
1806.0
 10
940.0
 20
1806.0
 10
940.0
 20
1910.0
 10
490.0
 20
1910.0
  0
TEXT
  5
16D
330
17
100
AcDbEntity
  8
TERMINALS
100
AcDbText
 10
715.0
 20
1858.0
 30
0.0
 40
22.0
  1
SERVICE AREA
  7
PORT_TXT
 72
1
 11
715.0
 21
1858.0
 31
0.0
100
AcDbText
 73
2
  0
LINE
  5
16E
330
17
100
AcDbEntity
  8
ROADS
100
AcDbLine
 10
1000.0
 20
1700.0
 30
0.0
 11
940.0
 21
1700.0
 31
0.0
  0
LWPOLYLINE
  5
16F
330
17
100
AcDbEntity
  8
TERMINALS
100
AcDbPolyline
 90
4
 70
1
 10
400.0
 20
1110.0
 10
1000.0
 20
1110.0
 10
1000.0
 20
1440.0
 10
400.0
 20
1440.0
  0
TEXT
  5
170
330
17
100
AcDbEntity
  8
TERMINALS
100
AcDbText
 10
700.0
 20
1390.0
 30
0.0
 40
34.0
  1
RO-RO BERTHS
  7
PORT_TXT
 72
1
 11
700.0
 21
1390.0
 31
0.0
100
AcDbText
 73
2
  0
LINE
  5
171
330
17
100
AcDbEntity
  8
QUAYS
100
AcDbLine
 10
400.0
 20
1110.0
 30
0.0
 11
400.0
 21
1440.0
 31
0.0
  0
LWPOLYLINE
  5
172
330
17
100
AcDbEntity
  8
QUAYS
100
AcDbPolyline
 90
4
 70
1
 10
400.0
 20
1110.0
 10
460.0
 20
1110.0
 10
460.0
 20
1440.0
 10
400.0
 20
1440.0
  0
LINE
  5
173
330
17
100
AcDbEntity
  8
BERTHS
100
AcDbLine
 10
392.0
 20
1120.0
 30
0.0
 11
392.0
 21
1430.0
 31
0.0
  0
TEXT
  5
174
330
17
100
AcDbEntity
  8
BERTHS
100
AcDbText
 10
440.0
 20
1275.0
 30
0.0
 40
22.0
  1
B1
  7
PORT_TXT
 11
440.0
 21
1275.0
 31
0.0
100
AcDbText
 73
2
  0
TEXT
  5
175
330
17
100
AcDbEntity
  8
BERTHS
100
AcDbText
 10
490.0
 20
1275.0
 30
0.0
 40
22.0
  1
1 BERTHS @ 330 m
  7
PORT_TXT
 11
490.0
 21
1275.0
 31
0.0
100
AcDbText
 73
2
  0
LWPOLYLINE
  5
176
330
17
100
AcDbEntity
  8
TERMINALS
100
AcDbPolyline
 90
4
 70
1
 10
490.0
 20
1150.0
 10
940.0
 20
1150.0
 10
940.0
 20
1348.0
 10
490.0
 20
1348.0
  0
HATCH
  5
177
330
17
100
AcDbEntity
  8
HATCH
 62
7
420
13821142
100
AcDbHatch
 10
0.0
 20
0.0
 30
0.0
210
0.0
220
0.0
230
1.0
  2
SOLID
 70
1
 71
0
 91
1
 92
3
 72
0
 73
1
 93
4
 10
490.0
 20
1150.0
 10
940.0
 20
1150.0
 10
940.0
 20
1348.0
 10
490.0
 20
1348.0
 97
0
 75
1
 76
1
 98
0
  0
TEXT
  5
178
330
17
100
AcDbEntity
  8
TERMINALS
100
AcDbText
 10
715.0
 20
1249.0
 30
0.0
 40
22.0
  1
STORAGE YARD
  7
PORT_TXT
 72
1
 11
715.0
 21
1249.0
 31
0.0
100
AcDbText
 73
2
  0
LWPOLYLINE
  5
179
330
17
100
AcDbEntity
  8
TERMINALS
100
AcDbPolyline
 90
4
 70
1
 10
490.0
 20
1368.0
 10
940.0
 20
1368.0
 10
940.0
 20
1420.0
 10
490.0
 20
1420.0
  0
TEXT
  5
17A
330
17
100
AcDbEntity
  8
TERMINALS
100
AcDbText
 10
715.0
 20
1394.0
 30
0.0
 40
22.0
  1
SERVICE AREA
  7
PORT_TXT
 72
1
 11
715.0
 21
1394.0
 31
0.0
100
AcDbText
 73
2
  0
LINE
  5
17B
330
17
100
AcDbEntity
  8
ROADS
100
AcDbLine
 10
1000.0
 20
1275.0
 30
0.0
 11
940.0
 21
1275.0
 31
0.0
  0
LWPOLYLINE
  5
17C
330
17
100
AcDbEntity
  8
TERMINALS
100
AcDbPolyline
 90
4
 70
1
 10
400.0
 20
300.0
 10
1000.0
 20
300.0
 10
1000.0
 20
1080.0
 10
400.0
 20
1080.0
  0
TEXT
  5
17D
330
17
100
AcDbEntity
  8
TERMINALS
100
AcDbText
 10
700.0
 20
1030.0
 30
0.0
 40
34.0
  1
OIL TERMINAL
  7
PORT_TXT
 72
1
 11
700.0
 21
1030.0
 31
0.0
100
AcDbText
 73
2
  0
LINE
  5
17E
330
17
100
AcDbEntity
  8
QUAYS
100
AcDbLine
 10
400.0
 20
300.0
 30
0.0
 11
400.0
 21
1080.0
 31
0.0
  0
LWPOLYLINE
  5
17F
330
17
100
AcDbEntity
  8
QUAYS
100
AcDbPolyline
 90
4
 70
1
 10
400.0
 20
300.0
 10
460.0
 20
300.0
 10
460.0
 20
1080.0
 10
400.0
 20
1080.0
  0
LINE
  5
180
330
17
100
AcDbEntity
  8
BERTHS
100
AcDbLine
 10
392.0
 20
310.0
 30
0.0
 11
392.0
 21
680.0
 31
0.0
  0
TEXT
  5
181
330
17
100
AcDbEntity
  8
BERTHS
100
AcDbText
 10
440.0
 20
495.0
 30
0.0
 40
22.0
  1
B1
  7
PORT_TXT
 11
440.0
 21
495.0
 31
0.0
100
AcDbText
 73
2
  0
LINE
  5
182
330
17
100
AcDbEntity
  8
BERTHS
100
AcDbLine
 10
392.0
 20
700.0
 30
0.0
 11
392.0
 21
1070.0
 31
0.0
  0
TEXT
  5
183
330
17
100
AcDbEntity
  8
BERTHS
100
AcDbText
 10
440.0
 20
885.0
 30
0.0
 40
22.0
  1
B2
  7
PORT_TXT
 11
440.0
 21
885.0
 31
0.0
100
AcDbText
 73
2
  0
TEXT
  5
184
330
17
100
AcDbEntity
  8
BERTHS
100
AcDbText
 10
490.0
 20
690.0
 30
0.0
 40
22.0
  1
2 BERTHS @ 390 m
  7
PORT_TXT
 11
490.0
 21
690.0
 31
0.0
100
AcDbText
 73
2
  0
LWPOLYLINE
  5
185
330
17
100
AcDbEntity
  8
TERMINALS
100
AcDbPolyline
 90
4
 70
1
 10
490.0
 20
340.0
 10
940.0
 20
340.0
 10
940.0
 20
808.0
 10
490.0
 20
808.0
  0
HATCH
  5
186
330
17
100
AcDbEntity
  8
HATCH
 62
7
420
15522510
100
AcDbHatch
 10
0.0
 20
0.0
 30
0.0
210
0.0
220
0.0
230
1.0
  2
SOLID
 70
1
 71
0
 91
1
 92
3
 72
0
 73
1
 93
4
 10
490.0
 20
340.0
 10
940.0
 20
340.0
 10
940.0
 20
808.0
 10
490.0
 20
808.0
 97
0
 75
1
 76
1
 98
0
  0
TEXT
  5
187
330
17
100
AcDbEntity
  8
TERMINALS
100
AcDbText
 10
715.0
 20
574.0
 30
0.0
 40
22.0
  1
STORAGE YARD
  7
PORT_TXT
 72
1
 11
715.0
 21
574.0
 31
0.0
100
AcDbText
 73
2
  0
LWPOLYLINE
  5
188
330
17
100
AcDbEntity
  8
TERMINALS
100
AcDbPolyline
 90
4
 70
1
 10
490.0
 20
828.0
 10
940.0
 20
828.0
 10
940.0
 20
1060.0
 10
490.0
 20
1060.0
  0
TEXT
  5
189
330
17
100
AcDbEntity
  8
TERMINALS
100
AcDbText
 10
715.0
 20
944.0
 30
0.0
 40
22.0
  1
SERVICE AREA
  7
PORT_TXT
 72
1
 11
715.0
 21
944.0
 31
0.0
100
AcDbText
 73
2
  0
LINE
  5
18A
330
17
100
AcDbEntity
  8
ROADS
100
AcDbLine
 10
1000.0
 20
690.0
 30
0.0
 11
940.0
 21
690.0
 31
0.0
  0
HATCH
  5
18B
330
17
100
AcDbEntity
  8
HATCH
 62
7
420
15521480
100
AcDbHatch
 10
0.0
 20
0.0
 30
0.0
210
0.0
220
0.0
230
1.0
  2
SOLID
 70
1
 71
0
 91
1
 92
3
 72
0
 73
1
 93
4
 10
1120.0
 20
2550.0
 10
1880.0
 20
2550.0
 10
1880.0
 20
3400.0
 10
1120.0
 20
3400.0
 97
0
 75
1
 76
1
 98
0
  0
LWPOLYLINE
  5
18C
330
17
100
AcDbEntity
  8
TERMINALS
100
AcDbPolyline
 90
4
 70
1
 10
1120.0
 20
2550.0
 10
1880.0
 20
2550.0
 10
1880.0
 20
3400.0
 10
1120.0
 20
3400.0
  0
TEXT
  5
18D
330
17
100
AcDbEntity
  8
TERMINALS
100
AcDbText
 10
1500.0
 20
3350.0
 30
0.0
 40
34.0
  1
LIQUID BULK TERMINAL (TANK FARM)
  7
PORT_TXT
 72
1
 11
1500.0
 21
3350.0
 31
0.0
100
AcDbText
 73
2
  0
LINE
  5
18E
330
17
100
AcDbEntity
  8
ROADS
100
AcDbLine
 10
1880.0
 20
2975.0
 30
0.0
 11
1150.0
 21
2975.0
 31
0.0
  0
HATCH
  5
18F
330
17
100
AcDbEntity
  8
HATCH
 62
7
420
14868680
100
AcDbHatch
 10
0.0
 20
0.0
 30
0.0
210
0.0
220
0.0
230
1.0
  2
SOLID
 70
1
 71
0
 91
1
 92
3
 72
0
 73
1
 93
4
 10
1120.0
 20
1650.0
 10
1880.0
 20
1650.0
 10
1880.0
 20
2410.0
 10
1120.0
 20
2410.0
 97
0
 75
1
 76
1
 98
0
  0
LWPOLYLINE
  5
190
330
17
100
AcDbEntity
  8
TERMINALS
100
AcDbPolyline
 90
4
 70
1
 10
1120.0
 20
1650.0
 10
1880.0
 20
1650.0
 10
1880.0
 20
2410.0
 10
1120.0
 20
2410.0
  0
TEXT
  5
191
330
17
100
AcDbEntity
  8
TERMINALS
100
AcDbText
 10
1500.0
 20
2360.0
 30
0.0
 40
34.0
  1
DRY BULK TERMINAL (SILOS)
  7
PORT_TXT
 72
1
 11
1500.0
 21
2360.0
 31
0.0
100
AcDbText
 73
2
  0
LINE
  5
192
330
17
100
AcDbEntity
  8
ROADS
100
AcDbLine
 10
1880.0
 20
2030.0
 30
0.0
 11
1150.0
 21
2030.0
 31
0.0
  0
LWPOLYLINE
  5
193
330
17
100
AcDbEntity
  8
TERMINALS
100
AcDbPolyline
 90
4
 70
1
 10
1600.0
 20
950.0
 10
1880.0
 20
950.0
 10
1880.0
 20
1550.0
 10
1600.0
 20
1550.0
  0
TEXT
  5
194
330
17
100
AcDbEntity
  8
TERMINALS
100
AcDbText
 10
1740.0
 20
1500.0
 30
0.0
 40
34.0
  1
REPAIR YARD
  7
PORT_TXT
 72
1
 11
1740.0
 21
1500.0
 31
0.0
100
AcDbText
 73
2
  0
LWPOLYLINE
  5
195
330
17
100
AcDbEntity
  8
TERMINALS
100
AcDbPolyline
 90
4
 70
1
 10
1660.0
 20
990.0
 10
1820.0
 20
990.0
 10
1820.0
 20
1350.0
 10
1660.0
 20
1350.0
  0
HATCH
  5
196
330
17
100
AcDbEntity
  8
HATCH
 62
7
420
14737632
100
AcDbHatch
 10
0.0
 20
0.0
 30
0.0
210
0.0
220
0.0
230
1.0
  2
SOLID
 70
1
 71
0
 91
1
 92
3
 72
0
 73
1
 93
4
 10
1660.0
 20
990.0
 10
1820.0
 20
990.0
 10
1820.0
 20
1350.0
 10
1660.0
 20
1350.0
 97
0
 75
1
 76
1
 98
0
  0
TEXT
  5
197
330
17
100
AcDbEntity
  8
TERMINALS
100
AcDbText
 10
1740.0
 20
1170.0
 30
0.0
 40
22.0
  1
STORAGE YARD
  7
PORT_TXT
 72
1
 11
1740.0
 21
1170.0
 31
0.0
100
AcDbText
 73
2
  0
LWPOLYLINE
  5
198
330
17
100
AcDbEntity
  8
TERMINALS
100
AcDbPolyline
 90
4
 70
1
 10
1660.0
 20
1370.0
 10
1820.0
 20
1370.0
 10
1820.0
 20
1530.0
 10
1660.0
 20
1530.0
  0
TEXT
  5
199
330
17
100
AcDbEntity
  8
TERMINALS
100
AcDbText
 10
1740.0
 20
1450.0
 30
0.0
 40
22.0
  1
SERVICE AREA
  7
PORT_TXT
 72
1
 11
1740.0
 21
1450.0
 31
0.0
100
AcDbText
 73
2
  0
LINE
  5
19A
330
17
100
AcDbEntity
  8
ROADS
100
AcDbLine
 10
1880.0
 20
1250.0
 30
0.0
 11
1820.0
 21
1250.0
 31
0.0
  0
LWPOLYLINE
  5
19B
330
17
100
AcDbEntity
  8
TERMINALS
100
AcDbPolyline
 90
4
 70
1
 10
1120.0
 20
300.0
 10
1880.0
 20
300.0
 10
1880.0
 20
900.0
 10
1120.0
 20
900.0
  0
TEXT
  5
19C
330
17
100
AcDbEntity
  8
TERMINALS
100
AcDbText
 10
1500.0
 20
850.0
 30
0.0
 40
34.0
  1
ECOSYSTEM ZONE / GREENSPACE
  7
PORT_TXT
 72
1
 11
1500.0
 21
850.0
 31
0.0
100
AcDbText
 73
2
  0
HATCH
  5
19D
330
17
100
AcDbEntity
  8
HATCH
 62
7
420
11854260
100
AcDbHatch
 10
0.0
 20
0.0
 30
0.0
210
0.0
220
0.0
230
1.0
  2
SOLID
 70
1
 71
0
 91
1
 92
3
 72
0
 73
1
 93
4
 10
1140.0
 20
320.0
 10
1860.0
 20
320.0
 10
1860.0
 20
880.0
 10
1140.0
 20
880.0
 97
0
 75
1
 76
1
 98
0
  0
CIRCLE
  5
19E
330
17
100
AcDbEntity
  8
TERMINALS
100
AcDbCircle
 10
1180.0
 20
360.0
 30
0.0
 40
12.0
  0
CIRCLE
  5
19F
330
17
100
AcDbEntity
  8
TERMINALS
100
AcDbCircle
 10
1180.0
 20
360.0
 30
0.0
 40
4.800000000000001
  0
CIRCLE
  5
1A0
330
17
100
AcDbEntity
  8
TERMINALS
100
AcDbCircle
 10
1180.0
 20
440.0
 30
0.0
 40
12.0
  0
CIRCLE
  5
1A1
330
17
100
AcDbEntity
  8
TERMINALS
100
AcDbCircle
 10
1180.0
 20
440.0
 30
0.0
 40
4.800000000000001
  0
CIRCLE
  5
1A2
330
17
100
AcDbEntity
  8
TERMINALS
100
AcDbCircle
 10
1180.0
 20
520.0
 30
0.0
 40
12.0
  0
CIRCLE
  5
1A3
330
17
100
AcDbEntity
  8
TERMINALS
100
AcDbCircle
 10
1180.0
 20
520.0
 30
0.0
 40
4.800000000000001
  0
CIRCLE
  5
1A4
330
17
100
AcDbEntity
  8
TERMINALS
100
AcDbCircle
 10
1180.0
 20
600.0
 30
0.0
 40
12.0
  0
CIRCLE
  5
1A5
330
17
100
AcDbEntity
  8
TERMINALS
100
AcDbCircle
 10
1180.0
 20
600.0
 30
0.0
 40
4.800000000000001
  0
CIRCLE
  5
1A6
330
17
100
AcDbEntity
  8
TERMINALS
100
AcDbCircle
 10
1180.0
 20
680.0
 30
0.0
 40
12.0
  0
CIRCLE
  5
1A7
330
17
100
AcDbEntity
  8
TERMINALS
100
AcDbCircle
 10
1180.0
 20
680.0
 30
0.0
 40
4.800000000000001
  0
CIRCLE
  5
1A8
330
17
100
AcDbEntity
  8
TERMINALS
100
AcDbCircle
 10
1180.0
 20
760.0
 30
0.0
 40
12.0
  0
CIRCLE
  5
1A9
330
17
100
AcDbEntity
  8
TERMINALS
100
AcDbCircle
 10
1180.0
 20
760.0
 30
0.0
 40
4.800000000000001
  0
CIRCLE
  5
1AA
330
17
100
AcDbEntity
  8
TERMINALS
100
AcDbCircle
 10
1260.0
 20
360.0
 30
0.0
 40
12.0
  0
CIRCLE
  5
1AB
330
17
100
AcDbEntity
  8
TERMINALS
100
AcDbCircle
 10
1260.0
 20
360.0
 30
0.0
 40
4.800000000000001
  0
CIRCLE
  5
1AC
330
17
100
AcDbEntity
  8
TERMINALS
100
AcDbCircle
 10
1260.0
 20
440.0
 30
0.0
 40
12.0
  0
CIRCLE
  5
1AD
330
17
100
AcDbEntity
  8
TERMINALS
100
AcDbCircle
 10
1260.0
 20
440.0
 30
0.0
 40
4.800000000000001
  0
CIRCLE
  5
1AE
330
17
100
AcDbEntity
  8
TERMINALS
100
AcDbCircle
 10
1260.0
 20
520.0
 30
0.0
 40
12.0
  0
CIRCLE
  5
1AF
330
17
100
AcDbEntity
  8
TERMINALS
100
AcDbCircle
 10
1260.0
 20
520.0
 30
0.0
 40
4.800000000000001
  0
CIRCLE
  5
1B0
330
17
100
AcDbEntity
  8
TERMINALS
100
AcDbCircle
 10
1260.0
 20
600.0
 30
0.0
 40
12.0
  0
CIRCLE
  5
1B1
330
17
100
AcDbEntity
  8
TERMINALS
100
AcDbCircle
 10
1260.0
 20
600.0
 30
0.0
 40
4.800000000000001
  0
CIRCLE
  5
1B2
330
17
100
AcDbEntity
  8
TERMINALS
100
AcDbCircle
 10
1260.0
 20
680.0
 30
0.0
 40
12.0
  0
CIRCLE
  5
1B3
330
17
100
AcDbEntity
  8
TERMINALS
100
AcDbCircle
 10
1260.0
 20
680.0
 30
0.0
 40
4.800000000000001
  0
CIRCLE
  5
1B4
330
17
100
AcDbEntity
  8
TERMINALS
100
AcDbCircle
 10
1260.0
 20
760.0
 30
0.0
 40
12.0
  0
CIRCLE
  5
1B5
330
17
100
AcDbEntity
  8
TERMINALS
100
AcDbCircle
 10
1260.0
 20
760.0
 30
0.0
 40
4.800000000000001
  0
CIRCLE
  5
1B6
330
17
100
AcDbEntity
  8
TERMINALS
100
AcDbCircle
 10
1340.0
 20
360.0
 30
0.0
 40
12.0
  0
CIRCLE
  5
1B7
330
17
100
AcDbEntity
  8
TERMINALS
100
AcDbCircle
 10
1340.0
 20
360.0
 30
0.0
 40
4.800000000000001
  0
CIRCLE
  5
1B8
330
17
100
AcDbEntity
  8
TERMINALS
100
AcDbCircle
 10
1340.0
 20
440.0
 30
0.0
 40
12.0
  0
CIRCLE
  5
1B9
330
17
100
AcDbEntity
  8
TERMINALS
100
AcDbCircle
 10
1340.0
 20
440.0
 30
0.0
 40
4.800000000000001
  0
CIRCLE
  5
1BA
330
17
100
AcDbEntity
  8
TERMINALS
100
AcDbCircle
 10
1340.0
 20
520.0
 30
0.0
 40
12.0
  0
CIRCLE
  5
1BB
330
17
100
AcDbEntity
  8
TERMINALS
100
AcDbCircle
 10
1340.0
 20
520.0
 30
0.0
 40
4.800000000000001
  0
CIRCLE
  5
1BC
330
17
100
AcDbEntity
  8
TERMINALS
100
AcDbCircle
 10
1340.0
 20
600.0
 30
0.0
 40
12.0
  0
CIRCLE
  5
1BD
330
17
100
AcDbEntity
  8
TERMINALS
100
AcDbCircle
 10
1340.0
 20
600.0
 30
0.0
 40
4.800000000000001
  0
CIRCLE
  5
1BE
330
17
100
AcDbEntity
  8
TERMINALS
100
AcDbCircle
 10
1340.0
 20
680.0
 30
0.0
 40
12.0
  0
CIRCLE
  5
1BF
330
17
100
AcDbEntity
  8
TERMINALS
100
AcDbCircle
 10
1340.0
 20
680.0
 30
0.0
 40
4.800000000000001
  0
CIRCLE
  5
1C0
330
17
100
AcDbEntity
  8
TERMINALS
100
AcDbCircle
 10
1340.0
 20
760.0
 30
0.0
 40
12.0
  0
CIRCLE
  5
1C1
330
17
100
AcDbEntity
  8
TERMINALS
100
AcDbCircle
 10
1340.0
 20
760.0
 30
0.0
 40
4.800000000000001
  0
CIRCLE
  5
1C2
330
17
100
AcDbEntity
  8
TERMINALS
100
AcDbCircle
 10
1420.0
 20
360.0
 30
0.0
 40
12.0
  0
CIRCLE
  5
1C3
330
17
100
AcDbEntity
  8
TERMINALS
100
AcDbCircle
 10
1420.0
 20
360.0
 30
0.0
 40
4.800000000000001
  0
CIRCLE
  5
1C4
330
17
100
AcDbEntity
  8
TERMINALS
100
AcDbCircle
 10
1420.0
 20
440.0
 30
0.0
 40
12.0
  0
CIRCLE
  5
1C5
330
17
100
AcDbEntity
  8
TERMINALS
100
AcDbCircle
 10
1420.0
 20
440.0
 30
0.0
 40
4.800000000000001
  0
CIRCLE
  5
1C6
330
17
100
AcDbEntity
  8
TERMINALS
100
AcDbCircle
 10
1420.0
 20
520.0
 30
0.0
 40
12.0
  0
CIRCLE
  5
1C7
330
17
100
AcDbEntity
  8
TERMINALS
100
AcDbCircle
 10
1420.0
 20
520.0
 30
0.0
 40
4.800000000000001
  0
CIRCLE
  5
1C8
330
17
100
AcDbEntity
  8
TERMINALS
100
AcDbCircle
 10
1420.0
 20
600.0
 30
0.0
 40
12.0
  0
CIRCLE
  5
1C9
330
17
100
AcDbEntity
  8
TERMINALS
100
AcDbCircle
 10
1420.0
 20
600.0
 30
0.0
 40
4.800000000000001
  0
CIRCLE
  5
1CA
330
17
100
AcDbEntity
  8
TERMINALS
100
AcDbCircle
 10
1420.0
 20
680.0
 30
0.0
 40
12.0
  0
CIRCLE
  5
1CB
330
17
100
AcDbEntity
  8
TERMINALS
100
AcDbCircle
 10
1420.0
 20
680.0
 30
0.0
 40
4.800000000000001
  0
CIRCLE
  5
1CC
330
17
100
AcDbEntity
  8
TERMINALS
100
AcDbCircle
 10
1420.0
 20
760.0
 30
0.0
 40
12.0
  0
CIRCLE
  5
1CD
330
17
100
AcDbEntity
  8
TERMINALS
100
AcDbCircle
 10
1420.0
 20
760.0
 30
0.0
 40
4.800000000000001
  0
CIRCLE
  5
1CE
330
17
100
AcDbEntity
  8
TERMINALS
100
AcDbCircle
 10
1500.0
 20
360.0
 30
0.0
 40
12.0
  0
CIRCLE
  5
1CF
330
17
100
AcDbEntity
  8
TERMINALS
100
AcDbCircle
 10
1500.0
 20
360.0
 30
0.0
 40
4.800000000000001
  0
CIRCLE
  5
1D0
330
17
100
AcDbEntity
  8
TERMINALS
100
AcDbCircle
 10
1500.0
 20
440.0
 30
0.0
 40
12.0
  0
CIRCLE
  5
1D1
330
17
100
AcDbEntity
  8
TERMINALS
100
AcDbCircle
 10
1500.0
 20
440.0
 30
0.0
 40
4.800000000000001
  0
CIRCLE
  5
1D2
330
17
100
AcDbEntity
  8
TERMINALS
100
AcDbCircle
 10
1500.0
 20
520.0
 30
0.0
 40
12.0
  0
CIRCLE
  5
1D3
330
17
100
AcDbEntity
  8
TERMINALS
100
AcDbCircle
 10
1500.0
 20
520.0
 30
0.0
 40
4.800000000000001
  0
CIRCLE
  5
1D4
330
17
100
AcDbEntity
  8
TERMINALS
100
AcDbCircle
 10
1500.0
 20
600.0
 30
0.0
 40
12.0
  0
CIRCLE
  5
1D5
330
17
100
AcDbEntity
  8
TERMINALS
100
AcDbCircle
 10
1500.0
 20
600.0
 30
0.0
 40
4.800000000000001
  0
CIRCLE
  5
1D6
330
17
100
AcDbEntity
  8
TERMINALS
100
AcDbCircle
 10
1500.0
 20
680.0
 30
0.0
 40
12.0
  0
CIRCLE
  5
1D7
330
17
100
AcDbEntity
  8
TERMINALS
100
AcDbCircle
 10
1500.0
 20
680.0
 30
0.0
 40
4.800000000000001
  0
CIRCLE
  5
1D8
330
17
100
AcDbEntity
  8
TERMINALS
100
AcDbCircle
 10
1500.0
 20
760.0
 30
0.0
 40
12.0
  0
CIRCLE
  5
1D9
330
17
100
AcDbEntity
  8
TERMINALS
100
AcDbCircle
 10
1500.0
 20
760.0
 30
0.0
 40
4.800000000000001
  0
CIRCLE
  5
1DA
330
17
100
AcDbEntity
  8
TERMINALS
100
AcDbCircle
 10
1580.0
 20
360.0
 30
0.0
 40
12.0
  0
CIRCLE
  5
1DB
330
17
100
AcDbEntity
  8
TERMINALS
100
AcDbCircle
 10
1580.0
 20
360.0
 30
0.0
 40
4.800000000000001
  0
CIRCLE
  5
1DC
330
17
100
AcDbEntity
  8
TERMINALS
100
AcDbCircle
 10
1580.0
 20
440.0
 30
0.0
 40
12.0
  0
CIRCLE
  5
1DD
330
17
100
AcDbEntity
  8
TERMINALS
100
AcDbCircle
 10
1580.0
 20
440.0
 30
0.0
 40
4.800000000000001
  0
CIRCLE
  5
1DE
330
17
100
AcDbEntity
  8
TERMINALS
100
AcDbCircle
 10
1580.0
 20
520.0
 30
0.0
 40
12.0
  0
CIRCLE
  5
1DF
330
17
100
AcDbEntity
  8
TERMINALS
100
AcDbCircle
 10
1580.0
 20
520.0
 30
0.0
 40
4.800000000000001
  0
CIRCLE
  5
1E0
330
17
100
AcDbEntity
  8
TERMINALS
100
AcDbCircle
 10
1580.0
 20
600.0
 30
0.0
 40
12.0
  0
CIRCLE
  5
1E1
330
17
100
AcDbEntity
  8
TERMINALS
100
AcDbCircle
 10
1580.0
 20
600.0
 30
0.0
 40
4.800000000000001
  0
CIRCLE
  5
1E2
330
17
100
AcDbEntity
  8
TERMINALS
100
AcDbCircle
 10
1580.0
 20
680.0
 30
0.0
 40
12.0
  0
CIRCLE
  5
1E3
330
17
100
AcDbEntity
  8
TERMINALS
100
AcDbCircle
 10
1580.0
 20
680.0
 30
0.0
 40
4.800000000000001
  0
CIRCLE
  5
1E4
330
17
100
AcDbEntity
  8
TERMINALS
100
AcDbCircle
 10
1580.0
 20
760.0
 30
0.0
 40
12.0
  0
CIRCLE
  5
1E5
330
17
100
AcDbEntity
  8
TERMINALS
100
AcDbCircle
 10
1580.0
 20
760.0
 30
0.0
 40
4.800000000000001
  0
CIRCLE
  5
1E6
330
17
100
AcDbEntity
  8
TERMINALS
100
AcDbCircle
 10
1660.0
 20
360.0
 30
0.0
 40
12.0
  0
CIRCLE
  5
1E7
330
17
100
AcDbEntity
  8
TERMINALS
100
AcDbCircle
 10
1660.0
 20
360.0
 30
0.0
 40
4.800000000000001
  0
CIRCLE
  5
1E8
330
17
100
AcDbEntity
  8
TERMINALS
100
AcDbCircle
 10
1660.0
 20
440.0
 30
0.0
 40
12.0
  0
CIRCLE
  5
1E9
330
17
100
AcDbEntity
  8
TERMINALS
100
AcDbCircle
 10
1660.0
 20
440.0
 30
0.0
 40
4.800000000000001
  0
CIRCLE
  5
1EA
330
17
100
AcDbEntity
  8
TERMINALS
100
AcDbCircle
 10
1660.0
 20
520.0
 30
0.0
 40
12.0
  0
CIRCLE
  5
1EB
330
17
100
AcDbEntity
  8
TERMINALS
100
AcDbCircle
 10
1660.0
 20
520.0
 30
0.0
 40
4.800000000000001
  0
CIRCLE
  5
1EC
330
17
100
AcDbEntity
  8
TERMINALS
100
AcDbCircle
 10
1660.0
 20
600.0
 30
0.0
 40
12.0
  0
CIRCLE
  5
1ED
330
17
100
AcDbEntity
  8
TERMINALS
100
AcDbCircle
 10
1660.0
 20
600.0
 30
0.0
 40
4.800000000000001
  0
CIRCLE
  5
1EE
330
17
100
AcDbEntity
  8
TERMINALS
100
AcDbCircle
 10
1660.0
 20
680.0
 30
0.0
 40
12.0
  0
CIRCLE
  5
1EF
330
17
100
AcDbEntity
  8
TERMINALS
100
AcDbCircle
 10
1660.0
 20
680.0
 30
0.0
 40
4.800000000000001
  0
CIRCLE
  5
1F0
330
17
100
AcDbEntity
  8
TERMINALS
100
AcDbCircle
 10
1660.0
 20
760.0
 30
0.0
 40
12.0
  0
CIRCLE
  5
1F1
330
17
100
AcDbEntity
  8
TERMINALS
100
AcDbCircle
 10
1660.0
 20
760.0
 30
0.0
 40
4.800000000000001
  0
CIRCLE
  5
1F2
330
17
100
AcDbEntity
  8
TERMINALS
100
AcDbCircle
 10
1740.0
 20
360.0
 30
0.0
 40
12.0
  0
CIRCLE
  5
1F3
330
17
100
AcDbEntity
  8
TERMINALS
100
AcDbCircle
 10
1740.0
 20
360.0
 30
0.0
 40
4.800000000000001
  0
CIRCLE
  5
1F4
330
17
100
AcDbEntity
  8
TERMINALS
100
AcDbCircle
 10
1740.0
 20
440.0
 30
0.0
 40
12.0
  0
CIRCLE
  5
1F5
330
17
100
AcDbEntity
  8
TERMINALS
100
AcDbCircle
 10
1740.0
 20
440.0
 30
0.0
 40
4.800000000000001
  0
CIRCLE
  5
1F6
330
17
100
AcDbEntity
  8
TERMINALS
100
AcDbCircle
 10
1740.0
 20
520.0
 30
0.0
 40
12.0
  0
CIRCLE
  5
1F7
330
17
100
AcDbEntity
  8
TERMINALS
100
AcDbCircle
 10
1740.0
 20
520.0
 30
0.0
 40
4.800000000000001
  0
CIRCLE
  5
1F8
330
17
100
AcDbEntity
  8
TERMINALS
100
AcDbCircle
 10
1740.0
 20
600.0
 30
0.0
 40
12.0
  0
CIRCLE
  5
1F9
330
17
100
AcDbEntity
  8
TERMINALS
100
AcDbCircle
 10
1740.0
 20
600.0
 30
0.0
 40
4.800000000000001
  0
CIRCLE
  5
1FA
330
17
100
AcDbEntity
  8
TERMINALS
100
AcDbCircle
 10
1740.0
 20
680.0
 30
0.0
 40
12.0
  0
CIRCLE
  5
1FB
330
17
100
AcDbEntity
  8
TERMINALS
100
AcDbCircle
 10
1740.0
 20
680.0
 30
0.0
 40
4.800000000000001
  0
CIRCLE
  5
1FC
330
17
100
AcDbEntity
  8
TERMINALS
100
AcDbCircle
 10
1740.0
 20
760.0
 30
0.0
 40
12.0
  0
CIRCLE
  5
1FD
330
17
100
AcDbEntity
  8
TERMINALS
100
AcDbCircle
 10
1740.0
 20
760.0
 30
0.0
 40
4.800000000000001
  0
TEXT
  5
1FE
330
17
100
AcDbEntity
  8
TERMINALS
100
AcDbText
 10
1500.0
 20
750.0
 30
0.0
 40
22.0
  1
LANDSCAPED BUFFER ZONE
  7
PORT_TXT
 72
1
 11
1500.0
 21
750.0
 31
0.0
100
AcDbText
 73
2
  0
TEXT
  5
1FF
330
17
100
AcDbEntity
  8
TERMINALS
100
AcDbText
 10
1500.0
 20
450.0
 30
0.0
 40
22.0
  1
STORMWATER RETENTION
  7
PORT_TXT
 72
1
 11
1500.0
 21
450.0
 31
0.0
100
AcDbText
 73
2
  0
LINE
  5
200
330
17
100
AcDbEntity
  8
TERMINALS
  6
DASHED2
100
AcDbLine
 10
1160.0
 20
600.0
 30
0.0
 11
1840.0
 21
600.0
 31
0.0
  0
LINE
  5
201
330
17
100
AcDbEntity
  8
ROADS
100
AcDbLine
 10
1880.0
 20
600.0
 30
0.0
 11
1910.0
 21
600.0
 31
0.0
  0
LWPOLYLINE
  5
202
330
17
100
AcDbEntity
  8
TERMINALS
100
AcDbPolyline
 90
4
 70
1
 10
2020.0
 20
300.0
 10
3200.0
 20
300.0
 10
3200.0
 20
3400.0
 10
2020.0
 20
3400.0
  0
TEXT
  5
203
330
17
100
AcDbEntity
  8
TERMINALS
100
AcDbText
 10
2610.0
 20
3350.0
 30
0.0
 40
34.0
  1
FUTURE EXPANSION AREA
  7
PORT_TXT
 72
1
 11
2610.0
 21
3350.0
 31
0.0
100
AcDbText
 73
2
  0
LWPOLYLINE
  5
204
330
17
100
AcDbEntity
  8
TERMINALS
100
AcDbPolyline
 90
4
 70
1
 10
2080.0
 20
340.0
 10
3140.0
 20
340.0
 10
3140.0
 20
2200.0
 10
2080.0
 20
2200.0
  0
HATCH
  5
205
330
17
100
AcDbEntity
  8
HATCH
 62
7
420
15789798
100
AcDbHatch
 10
0.0
 20
0.0
 30
0.0
210
0.0
220
0.0
230
1.0
  2
SOLID
 70
1
 71
0
 91
1
 92
3
 72
0
 73
1
 93
4
 10
2080.0
 20
340.0
 10
3140.0
 20
340.0
 10
3140.0
 20
2200.0
 10
2080.0
 20
2200.0
 97
0
 75
1
 76
1
 98
0
  0
TEXT
  5
206
330
17
100
AcDbEntity
  8
TERMINALS
100
AcDbText
 10
2610.0
 20
1270.0
 30
0.0
 40
22.0
  1
STORAGE YARD
  7
PORT_TXT
 72
1
 11
2610.0
 21
1270.0
 31
0.0
100
AcDbText
 73
2
  0
LWPOLYLINE
  5
207
330
17
100
AcDbEntity
  8
TERMINALS
100
AcDbPolyline
 90
4
 70
1
 10
2080.0
 20
2220.0
 10
3140.0
 20
2220.0
 10
3140.0
 20
3380.0
 10
2080.0
 20
3380.0
  0
TEXT
  5
208
330
17
100
AcDbEntity
  8
TERMINALS
100
AcDbText
 10
2610.0
 20
2800.0
 30
0.0
 40
22.0
  1
SERVICE AREA
  7
PORT_TXT
 72
1
 11
2610.0
 21
2800.0
 31
0.0
100
AcDbText
 73
2
  0
LINE
  5
209
330
17
100
AcDbEntity
  8
ROADS
100
AcDbLine
 10
3200.0
 20
1850.0
 30
0.0
 11
3140.0
 21
1850.0
 31
0.0
  0
LWPOLYLINE
  5
20A
330
17
100
AcDbEntity
  8
TERMINALS
100
AcDbPolyline
 90
4
 70
1
 10
1120.0
 20
950.0
 10
1540.0
 20
950.0
 10
1540.0
 20
1550.0
 10
1120.0
 20
1550.0
  0
TEXT
  5
20B
330
17
100
AcDbEntity
  8
TERMINALS
100
AcDbText
 10
1330.0
 20
1500.0
 30
0.0
 40
34.0
  1
DRY DOCK
  7
PORT_TXT
 72
1
 11
1330.0
 21
1500.0
 31
0.0
100
AcDbText
 73
2
  0
LWPOLYLINE
  5
20C
330
17
100
AcDbEntity
  8
BERTHS
100
AcDbPolyline
 90
4
 70
1
 10
1304.0
 20
1105.0
 10
1356.0
 20
1105.0
 10
1356.0
 20
1395.0
 10
1304.0
 20
1395.0
  0
MTEXT
  5
20D
330
17
100
AcDbEntity
  8
BERTHS
100
AcDbMText
 10
1330.0
 20
1250.0
 30
0.0
 40
22.0
 71
5
  1
GRAVING DOCK\P290×52 m
  7
PORT_TXT
  0
LINE
  5
20E
330
17
100
AcDbEntity
  8
QUAYS
100
AcDbLine
 10
1304.0
 20
1105.0
 30
0.0
 11
1356.0
 21
1105.0
 31
0.0
  0
LWPOLYLINE
  5
20F
330
17
100
AcDbEntity
  8
TANKS
100
AcDbPolyline
 90
4
 70
1
 10
1370.0
 20
2892.5
 10
1630.0
 20
2892.5
 10
1630.0
 20
2972.5
 10
1370.0
 20
2972.5
  0
TEXT
  5
210
330
17
100
AcDbEntity
  8
TANKS
100
AcDbText
 10
1390.0
 20
2952.5
 30
0.0
 40
22.0
  1
BUND WALL
  7
PORT_TXT
 11
1390.0
 21
2952.5
 31
0.0
100
AcDbText
 73
2
  0
CIRCLE
  5
211
330
17
100
AcDbEntity
  8
TANKS
100
AcDbCircle
 10
1410.0
 20
2932.5
 30
0.0
 40
15.0
  0
TEXT
  5
212
330
17
100
AcDbEntity
  8
TANKS
100
AcDbText
 10
1410.0
 20
2932.5
 30
0.0
 40
22.0
  1
T1
  7
PORT_TXT
 72
1
 11
1410.0
 21
2932.5
 31
0.0
100
AcDbText
 73
2
  0
CIRCLE
  5
213
330
17
100
AcDbEntity
  8
TANKS
100
AcDbCircle
 10
1455.0
 20
2932.5
 30
0.0
 40
15.0
  0
TEXT
  5
214
330
17
100
AcDbEntity
  8
TANKS
100
AcDbText
 10
1455.0
 20
2932.5
 30
0.0
 40
22.0
  1
T2
  7
PORT_TXT
 72
1
 11
1455.0
 21
2932.5
 31
0.0
100
AcDbText
 73
2
  0
CIRCLE
  5
215
330
17
100
AcDbEntity
  8
TANKS
100
AcDbCircle
 10
1500.0
 20
2932.5
 30
0.0
 40
15.0
  0
TEXT
  5
216
330
17
100
AcDbEntity
  8
TANKS
100
AcDbText
 10
1500.0
 20
2932.5
 30
0.0
 40
22.0
  1
T3
  7
PORT_TXT
 72
1
 11
1500.0
 21
2932.5
 31
0.0
100
AcDbText
 73
2
  0
CIRCLE
  5
217
330
17
100
AcDbEntity
  8
TANKS
100
AcDbCircle
 10
1545.0
 20
2932.5
 30
0.0
 40
15.0
  0
TEXT
  5
218
330
17
100
AcDbEntity
  8
TANKS
100
AcDbText
 10
1545.0
 20
2932.5
 30
0.0
 40
22.0
  1
T4
  7
PORT_TXT
 72
1
 11
1545.0
 21
2932.5
 31
0.0
100
AcDbText
 73
2
  0
CIRCLE
  5
219
330
17
100
AcDbEntity
  8
TANKS
100
AcDbCircle
 10
1590.0
 20
2932.5
 30
0.0
 40
15.0
  0
TEXT
  5
21A
330
17
100
AcDbEntity
  8
TANKS
100
AcDbText
 10
1590.0
 20
2932.5
 30
0.0
 40
22.0
  1
T5
  7
PORT_TXT
 72
1
 11
1590.0
 21
2932.5
 31
0.0
100
AcDbText
 73
2
  0
TEXT
  5
21B
330
17
100
AcDbEntity
  8
TANKS
100
AcDbText
 10
1500.0
 20
2842.5
 30
0.0
 40
22.0
  1
5× TANKS  Ø30 m  @ 45 m c/c
  7
PORT_TXT
 72
1
 11
1500.0
 21
2842.5
 31
0.0
100
AcDbText
 73
2
  0
LINE
  5
21C
330
17
100
AcDbEntity
  8
ROADS
  6
DASHED2
100
AcDbLine
 10
1140.0
 20
3340.0
 30
0.0
 11
1860.0
 21
3340.0
 31
0.0
  0
TEXT
  5
21D
330
17
100
AcDbEntity
  8
TANKS
100
AcDbText
 10
1500.0
 20
3310.0
 30
0.0
 40
22.0
  1
PIPE CORRIDOR
  7
PORT_TXT
 72
1
 11
1500.0
 21
3310.0
 31
0.0
100
AcDbText
 73
2
  0
CIRCLE
  5
21E
330
17
100
AcDbEntity
  8
SILOS
100
AcDbCircle
 10
1348.0
 20
1954.0
 30
0.0
 40
5.0
  0
CIRCLE
  5
21F
330
17
100
AcDbEntity
  8
SILOS
100
AcDbCircle
 10
1364.0
 20
1954.0
 30
0.0
 40
5.0
  0
CIRCLE
  5
220
330
17
100
AcDbEntity
  8
SILOS
100
AcDbCircle
 10
1380.0
 20
1954.0
 30
0.0
 40
5.0
  0
CIRCLE
  5
221
330
17
100
AcDbEntity
  8
SILOS
100
AcDbCircle
 10
1396.0
 20
1954.0
 30
0.0
 40
5.0
  0
CIRCLE
  5
222
330
17
100
AcDbEntity
  8
SILOS
100
AcDbCircle
 10
1412.0
 20
1954.0
 30
0.0
 40
5.0
  0
CIRCLE
  5
223
330
17
100
AcDbEntity
  8
SILOS
100
AcDbCircle
 10
1348.0
 20
1970.0
 30
0.0
 40
5.0
  0
CIRCLE
  5
224
330
17
100
AcDbEntity
  8
SILOS
100
AcDbCircle
 10
1364.0
 20
1970.0
 30
0.0
 40
5.0
  0
CIRCLE
  5
225
330
17
100
AcDbEntity
  8
SILOS
100
AcDbCircle
 10
1380.0
 20
1970.0
 30
0.0
 40
5.0
  0
CIRCLE
  5
226
330
17
100
AcDbEntity
  8
SILOS
100
AcDbCircle
 10
1396.0
 20
1970.0
 30
0.0
 40
5.0
  0
CIRCLE
  5
227
330
17
100
AcDbEntity
  8
SILOS
100
AcDbCircle
 10
1412.0
 20
1970.0
 30
0.0
 40
5.0
  0
TEXT
  5
228
330
17
100
AcDbEntity
  8
SILOS
100
AcDbText
 10
1500.0
 20
1889.0
 30
0.0
 40
22.0
  1
10× SILOS  Ø10 m  @ 16 m c/c
  7
PORT_TXT
 72
1
 11
1500.0
 21
1889.0
 31
0.0
100
AcDbText
 73
2
  0
LINE
  5
229
330
17
100
AcDbEntity
  8
ROADS
100
AcDbLine
 10
1140.0
 20
1710.0
 30
0.0
 11
1860.0
 21
1710.0
 31
0.0
  0
TEXT
  5
22A
330
17
100
AcDbEntity
  8
SILOS
100
AcDbText
 10
1500.0
 20
1740.0
 30
0.0
 40
22.0
  1
TRUCK ACCESS
  7
PORT_TXT
 72
1
 11
1500.0
 21
1740.0
 31
0.0
100
AcDbText
 73
2
  0
LINE
  5
22B
330
17
100
AcDbEntity
  8
ROADS
  6
DASHED2
100
AcDbLine
 10
1140.0
 20
2350.0
 30
0.0
 11
1860.0
 21
2350.0
 31
0.0
  0
TEXT
  5
22C
330
17
100
AcDbEntity
  8
SILOS
100
AcDbText
 10
1500.0
 20
2320.0
 30
0.0
 40
22.0
  1
RAIL CORRIDOR
  7
PORT_TXT
 72
1
 11
1500.0
 21
2320.0
 31
0.0
100
AcDbText
 73
2
  0
LWPOLYLINE
  5
22D
330
17
100
AcDbEntity
  8
TERMINALS
100
AcDbPolyline
 90
4
 70
1
 10
523.75
 20
2420.0
 10
906.25
 20
2420.0
 10
906.25
 20
2450.0
 10
523.75
 20
2450.0
  0
LWPOLYLINE
  5
22E
330
17
100
AcDbEntity
  8
TERMINALS
100
AcDbPolyline
 90
4
 70
1
 10
523.75
 20
2475.0
 10
906.25
 20
2475.0
 10
906.25
 20
2505.0
 10
523.75
 20
2505.0
  0
LWPOLYLINE
  5
22F
330
17
100
AcDbEntity
  8
TERMINALS
100
AcDbPolyline
 90
4
 70
1
 10
523.75
 20
2530.0
 10
906.25
 20
2530.0
 10
906.25
 20
2560.0
 10
523.75
 20
2560.0
  0
LWPOLYLINE
  5
230
330
17
100
AcDbEntity
  8
TERMINALS
100
AcDbPolyline
 90
4
 70
1
 10
523.75
 20
2585.0
 10
906.25
 20
2585.0
 10
906.25
 20
2615.0
 10
523.75
 20
2615.0
  0
LWPOLYLINE
  5
231
330
17
100
AcDbEntity
  8
TERMINALS
100
AcDbPolyline
 90
4
 70
1
 10
523.75
 20
2640.0
 10
906.25
 20
2640.0
 10
906.25
 20
2670.0
 10
523.75
 20
2670.0
  0
LWPOLYLINE
  5
232
330
17
100
AcDbEntity
  8
TERMINALS
100
AcDbPolyline
 90
4
 70
1
 10
523.75
 20
2695.0
 10
906.25
 20
2695.0
 10
906.25
 20
2725.0
 10
523.75
 20
2725.0
  0
LWPOLYLINE
  5
233
330
17
100
AcDbEntity
  8
TERMINALS
100
AcDbPolyline
 90
4
 70
1
 10
523.75
 20
2750.0
 10
906.25
 20
2750.0
 10
906.25
 20
2780.0
 10
523.75
 20
2780.0
  0
LWPOLYLINE
  5
234
330
17
100
AcDbEntity
  8
TERMINALS
100
AcDbPolyline
 90
4
 70
1
 10
523.75
 20
2805.0
 10
906.25
 20
2805.0
 10
906.25
 20
2835.0
 10
523.75
 20
2835.0
  0
LWPOLYLINE
  5
235
330
17
100
AcDbEntity
  8
TERMINALS
100
AcDbPolyline
 90
4
 70
1
 10
523.75
 20
2860.0
 10
906.25
 20
2860.0
 10
906.25
 20
2890.0
 10
523.75
 20
2890.0
  0
LWPOLYLINE
  5
236
330
17
100
AcDbEntity
  8
TERMINALS
100
AcDbPolyline
 90
4
 70
1
 10
523.75
 20
2915.0
 10
906.25
 20
2915.0
 10
906.25
 20
2945.0
 10
523.75
 20
2945.0
  0
TEXT
  5
237
330
17
100
AcDbEntity
  8
TERMINALS
100
AcDbText
 10
715.0
 20
3050.0
 30
0.0
 40
22.0
  1
10 CONTAINER BLOCKS
  7
PORT_TXT
 72
1
 11
715.0
 21
3050.0
 31
0.0
100
AcDbText
 73
2
  0
LINE
  5
238
330
17
100
AcDbEntity
  8
CENTERLINES
  6
CENTER2
100
AcDbLine
 10
550.0
 20
220.0
 30
0.0
 11
550.0
 21
3280.0
 31
0.0
  0
LINE
  5
239
330
17
100
AcDbEntity
  8
ROADS
100
AcDbLine
 10
538.0
 20
220.0
 30
0.0
 11
538.0
 21
3280.0
 31
0.0
  0
LINE
  5
23A
330
17
100
AcDbEntity
  8
ROADS
100
AcDbLine
 10
562.0
 20
220.0
 30
0.0
 11
562.0
 21
3280.0
 31
0.0
  0
TEXT
  5
23B
330
17
100
AcDbEntity
  8
ROADS
100
AcDbText
 10
550.0
 20
1750.0
 30
0.0
 40
22.0
  1
PRIMARY ROAD (SPINE)
  7
PORT_TXT
 72
1
 11
550.0
 21
1750.0
 31
0.0
100
AcDbText
 73
2
  0
LINE
  5
23C
330
17
100
AcDbEntity
  8
CENTERLINES
  6
CENTER2
100
AcDbLine
 10
550.0
 20
1750.0
 30
0.0
 11
4580.0
 21
1750.0
 31
0.0
  0
LINE
  5
23D
330
17
100
AcDbEntity
  8
ROADS
100
AcDbLine
 10
550.0
 20
1738.0
 30
0.0
 11
4580.0
 21
1738.0
 31
0.0
  0
LINE
  5
23E
330
17
100
AcDbEntity
  8
ROADS
100
AcDbLine
 10
550.0
 20
1762.0
 30
0.0
 11
4580.0
 21
1762.0
 31
0.0
  0
TEXT
  5
23F
330
17
100
AcDbEntity
  8
ROADS
100
AcDbText
 10
2565.0
 20
1750.0
 30
0.0
 40
22.0
  1
PRIMARY ROAD
  7
PORT_TXT
 72
1
 11
2565.0
 21
1750.0
 31
0.0
100
AcDbText
 73
2
  0
LINE
  5
240
330
17
100
AcDbEntity
  8
CENTERLINES
  6
CENTER2
100
AcDbLine
 10
550.0
 20
2975.0
 30
0.0
 11
1120.0
 21
2975.0
 31
0.0
  0
LINE
  5
241
330
17
100
AcDbEntity
  8
ROADS
100
AcDbLine
 10
550.0
 20
2969.0
 30
0.0
 11
1120.0
 21
2969.0
 31
0.0
  0
LINE
  5
242
330
17
100
AcDbEntity
  8
ROADS
100
AcDbLine
 10
550.0
 20
2981.0
 30
0.0
 11
1120.0
 21
2981.0
 31
0.0
  0
LINE
  5
243
330
17
100
AcDbEntity
  8
CENTERLINES
  6
CENTER2
100
AcDbLine
 10
550.0
 20
2030.0
 30
0.0
 11
1120.0
 21
2030.0
 31
0.0
  0
LINE
  5
244
330
17
100
AcDbEntity
  8
ROADS
100
AcDbLine
 10
550.0
 20
2024.0
 30
0.0
 11
1120.0
 21
2024.0
 31
0.0
  0
LINE
  5
245
330
17
100
AcDbEntity
  8
ROADS
100
AcDbLine
 10
550.0
 20
2036.0
 30
0.0
 11
1120.0
 21
2036.0
 31
0.0
  0
LINE
  5
246
330
17
100
AcDbEntity
  8
CENTERLINES
  6
CENTER2
100
AcDbLine
 10
550.0
 20
1250.0
 30
0.0
 11
1120.0
 21
1250.0
 31
0.0
  0
LINE
  5
247
330
17
100
AcDbEntity
  8
ROADS
100
AcDbLine
 10
550.0
 20
1244.0
 30
0.0
 11
1120.0
 21
1244.0
 31
0.0
  0
LINE
  5
248
330
17
100
AcDbEntity
  8
ROADS
100
AcDbLine
 10
550.0
 20
1256.0
 30
0.0
 11
1120.0
 21
1256.0
 31
0.0
  0
LINE
  5
249
330
17
100
AcDbEntity
  8
CENTERLINES
  6
CENTER2
100
AcDbLine
 10
550.0
 20
600.0
 30
0.0
 11
1120.0
 21
600.0
 31
0.0
  0
LINE
  5
24A
330
17
100
AcDbEntity
  8
ROADS
100
AcDbLine
 10
550.0
 20
594.0
 30
0.0
 11
1120.0
 21
594.0
 31
0.0
  0
LINE
  5
24B
330
17
100
AcDbEntity
  8
ROADS
100
AcDbLine
 10
550.0
 20
606.0
 30
0.0
 11
1120.0
 21
606.0
 31
0.0
  0
LINE
  5
24C
330
17
100
AcDbEntity
  8
CENTERLINES
  6
CENTER2
100
AcDbLine
 10
550.0
 20
1250.0
 30
0.0
 11
1600.0
 21
1250.0
 31
0.0
  0
LINE
  5
24D
330
17
100
AcDbEntity
  8
ROADS
100
AcDbLine
 10
550.0
 20
1244.0
 30
0.0
 11
1600.0
 21
1244.0
 31
0.0
  0
LINE
  5
24E
330
17
100
AcDbEntity
  8
ROADS
100
AcDbLine
 10
550.0
 20
1256.0
 30
0.0
 11
1600.0
 21
1256.0
 31
0.0
  0
CIRCLE
  5
24F
330
17
100
AcDbEntity
  8
ROADS
100
AcDbCircle
 10
550.0
 20
1750.0
 30
0.0
 40
35.0
  0
CIRCLE
  5
250
330
17
100
AcDbEntity
  8
ROADS
100
AcDbCircle
 10
550.0
 20
1750.0
 30
0.0
 40
15.75
  0
TEXT
  5
251
330
17
100
AcDbEntity
  8
ROADS
100
AcDbText
 10
550.0
 20
1750.0
 30
0.0
 40
22.0
  1
R/A
  7
PORT_TXT
 72
1
 11
550.0
 21
1750.0
 31
0.0
100
AcDbText
 73
2
  0
CIRCLE
  5
252
330
17
100
AcDbEntity
  8
ROADS
100
AcDbCircle
 10
550.0
 20
1160.0
 30
0.0
 40
28.0
  0
CIRCLE
  5
253
330
17
100
AcDbEntity
  8
ROADS
100
AcDbCircle
 10
550.0
 20
1160.0
 30
0.0
 40
12.25
  0
TEXT
  5
254
330
17
100
AcDbEntity
  8
ROADS
100
AcDbText
 10
550.0
 20
1160.0
 30
0.0
 40
22.0
  1
R/A
  7
PORT_TXT
 72
1
 11
550.0
 21
1160.0
 31
0.0
100
AcDbText
 73
2
  0
LWPOLYLINE
  5
255
330
17
100
AcDbEntity
  8
ROADS
100
AcDbPolyline
 90
4
 70
1
 10
4080.0
 20
300.0
 10
4540.0
 20
300.0
 10
4540.0
 20
600.0
 10
4080.0
 20
600.0
  0
TEXT
  5
256
330
17
100
AcDbEntity
  8
ROADS
100
AcDbText
 10
4310.0
 20
560.0
 30
0.0
 40
22.0
  1
TRUCK PARKING / STAGING
  7
PORT_TXT
 72
1
 11
4310.0
 21
560.0
 31
0.0
100
AcDbText
 73
2
  0
LINE
  5
257
330
17
100
AcDbEntity
  8
ROADS
100
AcDbLine
 10
4137.5
 20
300.0
 30
0.0
 11
4137.5
 21
510.0
 31
0.0
  0
LINE
  5
258
330
17
100
AcDbEntity
  8
ROADS
100
AcDbLine
 10
4195.0
 20
300.0
 30
0.0
 11
4195.0
 21
510.0
 31
0.0
  0
LINE
  5
259
330
17
100
AcDbEntity
  8
ROADS
100
AcDbLine
 10
4252.5
 20
300.0
 30
0.0
 11
4252.5
 21
510.0
 31
0.0
  0
LINE
  5
25A
330
17
100
AcDbEntity
  8
ROADS
100
AcDbLine
 10
4310.0
 20
300.0
 30
0.0
 11
4310.0
 21
510.0
 31
0.0
  0
LINE
  5
25B
330
17
100
AcDbEntity
  8
ROADS
100
AcDbLine
 10
4367.5
 20
300.0
 30
0.0
 11
4367.5
 21
510.0
 31
0.0
  0
LINE
  5
25C
330
17
100
AcDbEntity
  8
ROADS
100
AcDbLine
 10
4425.0
 20
300.0
 30
0.0
 11
4425.0
 21
510.0
 31
0.0
  0
LINE
  5
25D
330
17
100
AcDbEntity
  8
ROADS
100
AcDbLine
 10
4482.5
 20
300.0
 30
0.0
 11
4482.5
 21
510.0
 31
0.0
  0
DIMENSION
  5
25E
330
17
100
AcDbEntity
  8
DIMENSIONS
100
AcDbDimension
280
0
  2
*D1
  3
PORT
 10
-1985.0
 20
1638.0
 30
0.0
 11
-1985.0
 21
1750.0
 31
0.0
 70
32
 71
5
  1
<>
100
AcDbAlignedDimension
 13
-1825.0
 23
1638.0
 33
0.0
 14
-1825.0
 24
1862.0
 34
0.0
 50
90.0
100
AcDbRotatedDimension
  0
DIMENSION
  5
26E
330
17
100
AcDbEntity
  8
DIMENSIONS
100
AcDbDimension
280
0
  2
*D2
  3
PORT
 10
-2025.0
 20
1378.0
 30
0.0
 11
-1025.0
 21
1378.0
 31
0.0
 70
32
 71
5
  1
<>
100
AcDbAlignedDimension
 13
-2025.0
 23
1438.0
 33
0.0
 14
-25.0
 24
1438.0
 34
0.0
 50
0.0
100
AcDbRotatedDimension
  0
DIMENSION
  5
27E
330
17
100
AcDbEntity
  8
DIMENSIONS
100
AcDbDimension
280
0
  2
*D3
  3
PORT
 10
295.08252147247765
 20
1882.5825214724778
 30
0.0
 11
-53.52112165249025
 21
1533.9788783475096
 31
0.0
 70
35
 71
5
  1
<>
100
AcDbDiametricDimension
 15
29.91747852752232
 25
1617.4174785275222
 35
0.0
  0
DIMENSION
  5
28B
330
17
100
AcDbEntity
  8
DIMENSIONS
100
AcDbDimension
280
0
  2
*D4
  3
PORT
 10
400.0
 20
3660.0
 30
0.0
 11
2550.0
 21
3660.0
 31
0.0
 70
32
 71
5
  1
<>
100
AcDbAlignedDimension
 13
400.0
 23
3580.0
 33
0.0
 14
4700.0
 24
3580.0
 34
0.0
 50
0.0
100
AcDbRotatedDimension
  0
DIMENSION
  5
29B
330
17
100
AcDbEntity
  8
DIMENSIONS
100
AcDbDimension
280
0
  2
*D5
  3
PORT
 10
4960.0
 20
100.0
 30
0.0
 11
4960.0
 21
1750.0
 31
0.0
 70
32
 71
5
  1
<>
100
AcDbAlignedDimension
 13
4880.0
 23
100.0
 33
0.0
 14
4880.0
 24
3400.0
 34
0.0
 50
90.0
100
AcDbRotatedDimension
  0
DIMENSION
  5
2AB
330
17
100
AcDbEntity
  8
DIMENSIONS
100
AcDbDimension
280
0
  2
*D6
  3
PORT
 10
180.0
 20
2350.0
 30
0.0
 11
180.0
 21
2875.0
 31
0.0
 70
32
 71
5
  1
<>
100
AcDbAlignedDimension
 13
280.0
 23
2350.0
 33
0.0
 14
280.0
 24
3400.0
 34
0.0
 50
90.0
100
AcDbRotatedDimension
  0
DIMENSION
  5
2BB
330
17
100
AcDbEntity
  8
DIMENSIONS
100
AcDbDimension
280
0
  2
*D7
  3
PORT
 10
1420.6066017177982
 20
2943.106601717798
 30
0.0
 11
1330.09693372592
 21
2852.5969337259203
 31
0.0
 70
35
 71
5
  1
<>
100
AcDbDiametricDimension
 15
1399.3933982822018
 25
2921.893398282202
 35
0.0
  0
ENDSEC
  0
SECTION
  2
OBJECTS
  0
DICTIONARY
  5
A
330
0
100
AcDbDictionary
280
0
281
1
  3
ACAD_COLOR
350
B
  3
ACAD_GROUP
350
C
  3
ACAD_LAYOUT
350
D
  3
ACAD_MATERIAL
350
E
  3
ACAD_MLEADERSTYLE
350
F
  3
ACAD_MLINESTYLE
350
10
  3
ACAD_PLOTSETTINGS
350
11
  3
ACAD_PLOTSTYLENAME
350
12
  3
ACAD_SCALELIST
350
14
  3
ACAD_TABLESTYLE
350
15
  3
ACAD_VISUALSTYLE
350
16
  3
EZDXF_META
350
2D
  0
DICTIONARY
  5
B
330
A
100
AcDbDictionary
280
0
281
1
  0
DICTIONARY
  5
C
330
A
100
AcDbDictionary
280
0
281
1
  0
DICTIONARY
  5
D
330
A
100
AcDbDictionary
280
0
281
1
  3
Model
350
1A
  3
Layout1
350
1E
  3
A1-LAYOUT
350
2CB
  3
A3-LAYOUT
350
303
  0
DICTIONARY
  5
E
330
A
100
AcDbDictionary
280
0
281
1
  3
ByBlock
350
1F
  3
ByLayer
350
20
  3
Global
350
21
  0
DICTIONARY
  5
F
330
A
100
AcDbDictionary
280
0
281
1
  3
Standard
350
2C
  0
DICTIONARY
  5
10
330
A
100
AcDbDictionary
280
0
281
1
  3
Standard
350
22
  0
DICTIONARY
  5
11
330
A
100
AcDbDictionary
280
0
281
1
  0
ACDBDICTIONARYWDFLT
  5
12
330
A
100
AcDbDictionary
280
0
281
1
  3
Normal
350
13
100
AcDbDictionaryWithDefault
340
13
  0
ACDBPLACEHOLDER
  5
13
330
12
  0
DICTIONARY
  5
14
330
A
100
AcDbDictionary
280
0
281
1
  0
DICTIONARY
  5
15
330
A
100
AcDbDictionary
280
0
281
1
  0
DICTIONARY
  5
16
330
A
100
AcDbDictionary
280
0
281
1
  3
2dWireframe
350
5A
  3
Basic
350
5B
  3
Brighten
350
5C
  3
ColorChange
350
5D
  3
Conceptual
350
5E
  3
Dim
350
5F
  3
EdgeColorOff
350
60
  3
Facepattern
350
61
  3
Flat
350
62
  3
FlatWithEdges
350
63
  3
Gouraud
350
64
  3
GouraudWithEdges
350
65
  3
Hidden
350
66
  3
JitterOff
350
67
  3
Linepattern
350
68
  3
Modeling
350
69
  3
OverhangOff
350
6A
  3
Realistic
350
6B
  3
Shaded
350
6C
  3
Shaded with edges
350
6D
  3
Shades of Gray
350
6E
  3
Sketchy
350
6F
  3
Thicken
350
70
  3
Wireframe
350
71
  3
X-Ray
350
72
  0
LAYOUT
  5
1A
330
D
100
AcDbPlotSettings
  1

  4
A3
  6

 40
7.5
 41
20.0
 42
7.5
 43
20.0
 44
420.0
 45
297.0
 46
0.0
 47
0.0
 48
0.0
 49
0.0
140
0.0
141
0.0
142
1.0
143
1.0
 70
1024
 72
1
 73
0
 74
5
  7

 75
16
 76
0
 77
2
 78
300
147
1.0
148
0.0
149
0.0
100
AcDbLayout
  1
Model
 70
1
 71
0
 10
0.0
 20
0.0
 11
420.0
 21
297.0
 12
0.0
 22
0.0
 32
0.0
 14
1e+20
 24
1e+20
 34
1e+20
 15
-1e+20
 25
-1e+20
 35
-1e+20
146
0.0
 13
0.0
 23
0.0
 33
0.0
 16
1.0
 26
0.0
 36
0.0
 17
0.0
 27
1.0
 37
0.0
 76
1
330
17
  0
LAYOUT
  5
1E
330
D
100
AcDbPlotSettings
  1

  4
A3
  6

 40
7.5
 41
20.0
 42
7.5
 43
20.0
 44
420.0
 45
297.0
 46
0.0
 47
0.0
 48
0.0
 49
0.0
140
0.0
141
0.0
142
1.0
143
1.0
 70
0
 72
1
 73
0
 74
5
  7

 75
16
 76
0
 77
2
 78
300
147
1.0
148
0.0
149
0.0
100
AcDbLayout
  1
Layout1
 70
1
 71
1
 10
0.0
 20
0.0
 11
420.0
 21
297.0
 12
0.0
 22
0.0
 32
0.0
 14
1e+20
 24
1e+20
 34
1e+20
 15
-1e+20
 25
-1e+20
 35
-1e+20
146
0.0
 13
0.0
 23
0.0
 33
0.0
 16
1.0
 26
0.0
 36
0.0
 17
0.0
 27
1.0
 37
0.0
 76
1
330
1B
  0
MATERIAL
  5
1F
102
{ACAD_REACTORS
330
E
102
}
330
E
100
AcDbMaterial
  1
ByBlock
  2

 70
0
 40
1.0
 71
1
 41
1.0
 91
-1023410177
 42
1.0
 72
1
  3

 73
1
 74
1
 75
1
 44
0.5
 73
0
 45
1.0
 46
1.0
 77
1
  4

 78
1
 79
1
170
1
 48
1.0
171
1
  6

172
1
173
1
174
1
140
1.0
141
1.0
175
1
  7

176
1
177
1
178
1
143
1.0
179
1
  8

270
1
271
1
272
1
145
1.0
146
1.0
273
1
  9

274
1
275
1
276
1
 42
1.0
 72
1
  3

 73
1
 74
1
 75
1
 94
63
  0
MATERIAL
  5
20
102
{ACAD_REACTORS
330
E
102
}
330
E
100
AcDbMaterial
  1
ByLayer
  2

 70
0
 40
1.0
 71
1
 41
1.0
 91
-1023410177
 42
1.0
 72
1
  3

 73
1
 74
1
 75
1
 44
0.5
 73
0
 45
1.0
 46
1.0
 77
1
  4

 78
1
 79
1
170
1
 48
1.0
171
1
  6

172
1
173
1
174
1
140
1.0
141
1.0
175
1
  7

176
1
177
1
178
1
143
1.0
179
1
  8

270
1
271
1
272
1
145
1.0
146
1.0
273
1
  9

274
1
275
1
276
1
 42
1.0
 72
1
  3

 73
1
 74
1
 75
1
 94
63
  0
MATERIAL
  5
21
102
{ACAD_REACTORS
330
E
102
}
330
E
100
AcDbMaterial
  1
Global
  2

 70
0
 40
1.0
 71
1
 41
1.0
 91
-1023410177
 42
1.0
 72
1
  3

 73
1
 74
1
 75
1
 44
0.5
 73
0
 45
1.0
 46
1.0
 77
1
  4

 78
1
 79
1
170
1
 48
1.0
171
1
  6

172
1
173
1
174
1
140
1.0
141
1.0
175
1
  7

176
1
177
1
178
1
143
1.0
179
1
  8

270
1
271
1
272
1
145
1.0
146
1.0
273
1
  9

274
1
275
1
276
1
 42
1.0
 72
1
  3

 73
1
 74
1
 75
1
 94
63
  0
MLINESTYLE
  5
22
102
{ACAD_REACTORS
330
10
102
}
330
10
100
AcDbMlineStyle
  2
Standard
 70
0
  3

 62
256
 51
90.0
 52
90.0
 71
2
 49
0.5
 62
256
  6
BYLAYER
 49
-0.5
 62
256
  6
BYLAYER
  0
MLEADERSTYLE
  5
2C
102
{ACAD_REACTORS
330
F
102
}
330
F
100
AcDbMLeaderStyle
179
2
170
2
171
1
172
0
 90
2
 40
0.0
 41
0.0
173
1
 91
-1056964608
 92
-2
290
1
 42
2.0
291
1
 43
8.0
  3
Standard
 44
4.0
300

342
29
174
1
175
1
176
0
178
1
 93
-1056964608
 45
4.0
292
0
297
0
 46
4.0
 94
-1056964608
 47
1.0
 49
1.0
140
1.0
294
1
141
0.0
177
0
142
1.0
295
0
296
0
143
3.75
271
0
272
9
273
9
  0
DICTIONARY
  5
2D
330
A
100
AcDbDictionary
280
1
281
1
  3
CREATED_BY_EZDXF
350
2E
  3
WRITTEN_BY_EZDXF
350
33B
  0
DICTIONARYVAR
  5
2E
330
2D
100
DictionaryVariables
280
0
  1
1.3.5 @ 2026-06-30T09:51:30.107406+00:00
  0
VISUALSTYLE
  5
5A
102
{ACAD_REACTORS
330
16
102
}
330
16
100
AcDbVisualStyle
  2
2dWireframe
 70
4
177
3
291
0
 70
58
 90
2
176
1
 90
2
176
1
 90
0
176
1
 90
0
176
1
 40
0.6
176
1
 40
30.0
176
1
 62
7
420
16777215
176
1
 90
1
176
1
 90
4
176
1
 62
7
176
1
 62
257
176
1
 90
1
176
1
 90
1
176
1
 40
1.0
176
1
 90
8
176
1
 62
7
176
1
 40
1.0
176
1
 90
1
176
1
 90
6
176
1
 90
2
176
1
 62
7
176
1
 90
5
176
1
 90
0
176
1
 90
0
176
1
290
0
176
1
 90
1
176
1
 40
0.0
176
1
 90
0
176
1
290
1
176
1
290
1
176
1
290
0
176
1
290
0
176
1
290
0
176
1
290
0
176
1
290
0
176
1
290
0
176
1
290
0
176
1
 90
50
176
1
 40
0.0
176
1
 40
1.0
176
1
 90
0
176
1
 62
18
420
0
176
1
 90
50
176
1
 90
3
176
1
 62
5
420
255
176
1
290
0
176
1
 90
50
176
1
 90
50
176
1
 90
50
176
1
290
0
176
1
 90
50
176
1
 62
256
176
0
 40
1.0
176
0
 90
2
176
1
  1
strokes_ogs.tif
176
1
290
0
176
1
 40
1.0
176
1
 40
1.0
176
1
  0
VISUALSTYLE
  5
5B
102
{ACAD_REACTORS
330
16
102
}
330
16
100
AcDbVisualStyle
  2
Basic
 70
7
177
3
291
1
 70
58
 90
2
176
1
 90
2
176
1
 90
0
176
1
 90
1
176
1
 40
0.6
176
1
 40
30.0
176
1
 62
7
420
16777215
176
1
 90
1
176
1
 90
4
176
1
 62
7
176
1
 62
257
176
1
 90
1
176
1
 90
1
176
1
 40
1.0
176
1
 90
8
176
1
 62
7
176
1
 40
1.0
176
1
 90
1
176
1
 90
6
176
1
 90
2
176
1
 62
7
176
1
 90
5
176
1
 90
0
176
1
 90
0
176
1
290
0
176
1
 90
1
176
1
 40
0.0
176
1
 90
0
176
1
290
0
176
1
290
1
176
1
290
1
176
1
290
0
176
1
290
0
176
1
290
0
176
1
290
0
176
1
290
0
176
1
290
0
176
1
 90
50
176
1
 40
0.0
176
1
 40
1.0
176
1
 90
0
176
1
 62
18
420
0
176
1
 90
50
176
1
 90
3
176
1
 62
5
420
255
176
1
290
0
176
1
 90
50
176
1
 90
50
176
1
 90
50
176
1
290
0
176
1
 90
50
176
1
 62
256
176
0
 40
1.0
176
0
 90
2
176
1
  1
strokes_ogs.tif
176
1
290
0
176
1
 40
1.0
176
1
 40
1.0
176
1
  0
VISUALSTYLE
  5
5C
102
{ACAD_REACTORS
330
16
102
}
330
16
100
AcDbVisualStyle
  2
Brighten
 70
12
177
3
291
1
 70
58
 90
2
176
1
 90
2
176
1
 90
0
176
1
 90
2
176
1
 40
0.6
176
1
 40
30.0
176
1
 62
7
420
16777215
176
1
 90
1
176
1
 90
4
176
1
 62
7
176
1
 62
257
176
1
 90
1
176
1
 90
1
176
1
 40
1.0
176
1
 90
8
176
1
 62
7
176
1
 40
1.0
176
1
 90
1
176
1
 90
6
176
1
 90
2
176
1
 62
7
176
1
 90
5
176
1
 90
0
176
1
 90
0
176
1
290
0
176
1
 90
1
176
1
 40
0.0
176
1
 90
0
176
1
290
0
176
1
290
1
176
1
290
1
176
1
290
0
176
1
290
0
176
1
290
0
176
1
290
0
176
1
290
0
176
1
290
0
176
1
 90
50
176
1
 40
0.0
176
1
 40
1.0
176
1
 90
0
176
1
 62
18
420
0
176
1
 90
50
176
1
 90
3
176
1
 62
5
420
255
176
1
290
0
176
1
 90
50
176
1
 90
50
176
1
 90
50
176
1
290
0
176
1
 90
50
176
1
 62
256
176
0
 40
1.0
176
0
 90
2
176
1
  1
strokes_ogs.tif
176
1
290
0
176
1
 40
1.0
176
1
 40
1.0
176
1
  0
VISUALSTYLE
  5
5D
102
{ACAD_REACTORS
330
16
102
}
330
16
100
AcDbVisualStyle
  2
ColorChange
 70
16
177
3
291
1
 70
58
 90
2
176
1
 90
2
176
1
 90
0
176
1
 90
2
176
1
 40
0.6
176
1
 40
30.0
176
1
 62
7
420
16777215
176
1
 90
1
176
1
 90
4
176
1
 62
7
176
1
 62
257
176
1
 90
1
176
1
 90
1
176
1
 40
1.0
176
1
 90
8
176
1
 62
7
176
1
 40
1.0
176
1
 90
1
176
1
 90
6
176
1
 90
2
176
1
 62
7
176
1
 90
5
176
1
 90
0
176
1
 90
0
176
1
290
0
176
1
 90
1
176
1
 40
0.0
176
1
 90
0
176
1
290
0
176
1
290
1
176
1
290
1
176
1
290
0
176
1
290
0
176
1
290
0
176
1
290
0
176
1
290
0
176
1
290
0
176
1
 90
50
176
1
 40
0.0
176
1
 40
1.0
176
1
 90
0
176
1
 62
18
420
0
176
1
 90
50
176
1
 90
3
176
1
 62
5
420
255
176
1
290
0
176
1
 90
50
176
1
 90
50
176
1
 90
50
176
1
290
0
176
1
 90
50
176
1
 62
256
176
0
 40
1.0
176
0
 90
2
176
1
  1
strokes_ogs.tif
176
1
290
0
176
1
 40
1.0
176
1
 40
1.0
176
1
  0
VISUALSTYLE
  5
5E
102
{ACAD_REACTORS
330
16
102
}
330
16
100
AcDbVisualStyle
  2
Conceptual
 70
9
177
3
291
0
 70
58
 90
2
176
1
 90
2
176
1
 90
0
176
1
 90
3
176
1
 40
0.6
176
1
 40
30.0
176
1
 62
7
420
16777215
176
1
 90
1
176
1
 90
4
176
1
 62
7
176
1
 62
257
176
1
 90
1
176
1
 90
1
176
1
 40
1.0
176
1
 90
8
176
1
 62
7
176
1
 40
1.0
176
1
 90
1
176
1
 90
6
176
1
 90
2
176
1
 62
7
176
1
 90
5
176
1
 90
0
176
1
 90
0
176
1
290
0
176
1
 90
1
176
1
 40
0.0
176
1
 90
0
176
1
290
0
176
1
290
1
176
1
290
1
176
1
290
0
176
1
290
0
176
1
290
0
176
1
290
0
176
1
290
0
176
1
290
0
176
1
 90
50
176
1
 40
0.0
176
1
 40
1.0
176
1
 90
0
176
1
 62
18
420
0
176
1
 90
50
176
1
 90
3
176
1
 62
5
420
255
176
1
290
0
176
1
 90
50
176
1
 90
50
176
1
 90
50
176
1
290
0
176
1
 90
50
176
1
 62
256
176
0
 40
1.0
176
0
 90
2
176
1
  1
strokes_ogs.tif
176
1
290
0
176
1
 40
1.0
176
1
 40
1.0
176
1
  0
VISUALSTYLE
  5
5F
102
{ACAD_REACTORS
330
16
102
}
330
16
100
AcDbVisualStyle
  2
Dim
 70
11
177
3
291
1
 70
58
 90
2
176
1
 90
2
176
1
 90
0
176
1
 90
2
176
1
 40
0.6
176
1
 40
30.0
176
1
 62
7
420
16777215
176
1
 90
1
176
1
 90
4
176
1
 62
7
176
1
 62
257
176
1
 90
1
176
1
 90
1
176
1
 40
1.0
176
1
 90
8
176
1
 62
7
176
1
 40
1.0
176
1
 90
1
176
1
 90
6
176
1
 90
2
176
1
 62
7
176
1
 90
5
176
1
 90
0
176
1
 90
0
176
1
290
0
176
1
 90
1
176
1
 40
0.0
176
1
 90
0
176
1
290
0
176
1
290
1
176
1
290
1
176
1
290
0
176
1
290
0
176
1
290
0
176
1
290
0
176
1
290
0
176
1
290
0
176
1
 90
50
176
1
 40
0.0
176
1
 40
1.0
176
1
 90
0
176
1
 62
18
420
0
176
1
 90
50
176
1
 90
3
176
1
 62
5
420
255
176
1
290
0
176
1
 90
50
176
1
 90
50
176
1
 90
50
176
1
290
0
176
1
 90
50
176
1
 62
256
176
0
 40
1.0
176
0
 90
2
176
1
  1
strokes_ogs.tif
176
1
290
0
176
1
 40
1.0
176
1
 40
1.0
176
1
  0
VISUALSTYLE
  5
60
102
{ACAD_REACTORS
330
16
102
}
330
16
100
AcDbVisualStyle
  2
EdgeColorOff
 70
22
177
3
291
1
 70
58
 90
2
176
1
 90
2
176
1
 90
0
176
1
 90
2
176
1
 40
0.6
176
1
 40
30.0
176
1
 62
7
420
16777215
176
1
 90
1
176
1
 90
4
176
1
 62
7
176
1
 62
257
176
1
 90
1
176
1
 90
1
176
1
 40
1.0
176
1
 90
8
176
1
 62
7
176
1
 40
1.0
176
1
 90
1
176
1
 90
6
176
1
 90
2
176
1
 62
7
176
1
 90
5
176
1
 90
0
176
1
 90
0
176
1
290
0
176
1
 90
1
176
1
 40
0.0
176
1
 90
0
176
1
290
0
176
1
290
1
176
1
290
1
176
1
290
0
176
1
290
0
176
1
290
0
176
1
290
0
176
1
290
0
176
1
290
0
176
1
 90
50
176
1
 40
0.0
176
1
 40
1.0
176
1
 90
0
176
1
 62
18
420
0
176
1
 90
50
176
1
 90
3
176
1
 62
5
420
255
176
1
290
0
176
1
 90
50
176
1
 90
50
176
1
 90
50
176
1
290
0
176
1
 90
50
176
1
 62
256
176
0
 40
1.0
176
0
 90
2
176
1
  1
strokes_ogs.tif
176
1
290
0
176
1
 40
1.0
176
1
 40
1.0
176
1
  0
VISUALSTYLE
  5
61
102
{ACAD_REACTORS
330
16
102
}
330
16
100
AcDbVisualStyle
  2
Facepattern
 70
15
177
3
291
1
 70
58
 90
2
176
1
 90
2
176
1
 90
0
176
1
 90
2
176
1
 40
0.6
176
1
 40
30.0
176
1
 62
7
420
16777215
176
1
 90
1
176
1
 90
4
176
1
 62
7
176
1
 62
257
176
1
 90
1
176
1
 90
1
176
1
 40
1.0
176
1
 90
8
176
1
 62
7
176
1
 40
1.0
176
1
 90
1
176
1
 90
6
176
1
 90
2
176
1
 62
7
176
1
 90
5
176
1
 90
0
176
1
 90
0
176
1
290
0
176
1
 90
1
176
1
 40
0.0
176
1
 90
0
176
1
290
0
176
1
290
1
176
1
290
1
176
1
290
0
176
1
290
0
176
1
290
0
176
1
290
0
176
1
290
0
176
1
290
0
176
1
 90
50
176
1
 40
0.0
176
1
 40
1.0
176
1
 90
0
176
1
 62
18
420
0
176
1
 90
50
176
1
 90
3
176
1
 62
5
420
255
176
1
290
0
176
1
 90
50
176
1
 90
50
176
1
 90
50
176
1
290
0
176
1
 90
50
176
1
 62
256
176
0
 40
1.0
176
0
 90
2
176
1
  1
strokes_ogs.tif
176
1
290
0
176
1
 40
1.0
176
1
 40
1.0
176
1
  0
VISUALSTYLE
  5
62
102
{ACAD_REACTORS
330
16
102
}
330
16
100
AcDbVisualStyle
  2
Flat
 70
0
177
3
291
1
 70
58
 90
2
176
1
 90
2
176
1
 90
0
176
1
 90
2
176
1
 40
0.6
176
1
 40
30.0
176
1
 62
7
420
16777215
176
1
 90
1
176
1
 90
4
176
1
 62
7
176
1
 62
257
176
1
 90
1
176
1
 90
1
176
1
 40
1.0
176
1
 90
8
176
1
 62
7
176
1
 40
1.0
176
1
 90
1
176
1
 90
6
176
1
 90
2
176
1
 62
7
176
1
 90
5
176
1
 90
0
176
1
 90
0
176
1
290
0
176
1
 90
1
176
1
 40
0.0
176
1
 90
0
176
1
290
0
176
1
290
1
176
1
290
1
176
1
290
0
176
1
290
0
176
1
290
0
176
1
290
0
176
1
290
0
176
1
290
0
176
1
 90
50
176
1
 40
0.0
176
1
 40
1.0
176
1
 90
0
176
1
 62
18
420
0
176
1
 90
50
176
1
 90
3
176
1
 62
5
420
255
176
1
290
0
176
1
 90
50
176
1
 90
50
176
1
 90
50
176
1
290
0
176
1
 90
50
176
1
 62
256
176
0
 40
1.0
176
0
 90
2
176
1
  1
strokes_ogs.tif
176
1
290
0
176
1
 40
1.0
176
1
 40
1.0
176
1
  0
VISUALSTYLE
  5
63
102
{ACAD_REACTORS
330
16
102
}
330
16
100
AcDbVisualStyle
  2
FlatWithEdges
 70
1
177
3
291
1
 70
58
 90
2
176
1
 90
2
176
1
 90
0
176
1
 90
2
176
1
 40
0.6
176
1
 40
30.0
176
1
 62
7
420
16777215
176
1
 90
1
176
1
 90
4
176
1
 62
7
176
1
 62
257
176
1
 90
1
176
1
 90
1
176
1
 40
1.0
176
1
 90
8
176
1
 62
7
176
1
 40
1.0
176
1
 90
1
176
1
 90
6
176
1
 90
2
176
1
 62
7
176
1
 90
5
176
1
 90
0
176
1
 90
0
176
1
290
0
176
1
 90
1
176
1
 40
0.0
176
1
 90
0
176
1
290
0
176
1
290
1
176
1
290
1
176
1
290
0
176
1
290
0
176
1
290
0
176
1
290
0
176
1
290
0
176
1
290
0
176
1
 90
50
176
1
 40
0.0
176
1
 40
1.0
176
1
 90
0
176
1
 62
18
420
0
176
1
 90
50
176
1
 90
3
176
1
 62
5
420
255
176
1
290
0
176
1
 90
50
176
1
 90
50
176
1
 90
50
176
1
290
0
176
1
 90
50
176
1
 62
256
176
0
 40
1.0
176
0
 90
2
176
1
  1
strokes_ogs.tif
176
1
290
0
176
1
 40
1.0
176
1
 40
1.0
176
1
  0
VISUALSTYLE
  5
64
102
{ACAD_REACTORS
330
16
102
}
330
16
100
AcDbVisualStyle
  2
Gouraud
 70
2
177
3
291
1
 70
58
 90
2
176
1
 90
2
176
1
 90
0
176
1
 90
2
176
1
 40
0.6
176
1
 40
30.0
176
1
 62
7
420
16777215
176
1
 90
1
176
1
 90
4
176
1
 62
7
176
1
 62
257
176
1
 90
1
176
1
 90
1
176
1
 40
1.0
176
1
 90
8
176
1
 62
7
176
1
 40
1.0
176
1
 90
1
176
1
 90
6
176
1
 90
2
176
1
 62
7
176
1
 90
5
176
1
 90
0
176
1
 90
0
176
1
290
0
176
1
 90
1
176
1
 40
0.0
176
1
 90
0
176
1
290
0
176
1
290
1
176
1
290
1
176
1
290
0
176
1
290
0
176
1
290
0
176
1
290
0
176
1
290
0
176
1
290
0
176
1
 90
50
176
1
 40
0.0
176
1
 40
1.0
176
1
 90
0
176
1
 62
18
420
0
176
1
 90
50
176
1
 90
3
176
1
 62
5
420
255
176
1
290
0
176
1
 90
50
176
1
 90
50
176
1
 90
50
176
1
290
0
176
1
 90
50
176
1
 62
256
176
0
 40
1.0
176
0
 90
2
176
1
  1
strokes_ogs.tif
176
1
290
0
176
1
 40
1.0
176
1
 40
1.0
176
1
  0
VISUALSTYLE
  5
65
102
{ACAD_REACTORS
330
16
102
}
330
16
100
AcDbVisualStyle
  2
GouraudWithEdges
 70
3
177
3
291
1
 70
58
 90
2
176
1
 90
2
176
1
 90
0
176
1
 90
2
176
1
 40
0.6
176
1
 40
30.0
176
1
 62
7
420
16777215
176
1
 90
1
176
1
 90
4
176
1
 62
7
176
1
 62
257
176
1
 90
1
176
1
 90
1
176
1
 40
1.0
176
1
 90
8
176
1
 62
7
176
1
 40
1.0
176
1
 90
1
176
1
 90
6
176
1
 90
2
176
1
 62
7
176
1
 90
5
176
1
 90
0
176
1
 90
0
176
1
290
0
176
1
 90
1
176
1
 40
0.0
176
1
 90
0
176
1
290
0
176
1
290
1
176
1
290
1
176
1
290
0
176
1
290
0
176
1
290
0
176
1
290
0
176
1
290
0
176
1
290
0
176
1
 90
50
176
1
 40
0.0
176
1
 40
1.0
176
1
 90
0
176
1
 62
18
420
0
176
1
 90
50
176
1
 90
3
176
1
 62
5
420
255
176
1
290
0
176
1
 90
50
176
1
 90
50
176
1
 90
50
176
1
290
0
176
1
 90
50
176
1
 62
256
176
0
 40
1.0
176
0
 90
2
176
1
  1
strokes_ogs.tif
176
1
290
0
176
1
 40
1.0
176
1
 40
1.0
176
1
  0
VISUALSTYLE
  5
66
102
{ACAD_REACTORS
330
16
102
}
330
16
100
AcDbVisualStyle
  2
Hidden
 70
6
177
3
291
0
 70
58
 90
2
176
1
 90
2
176
1
 90
0
176
1
 90
1
176
1
 40
0.6
176
1
 40
30.0
176
1
 62
7
420
16777215
176
1
 90
1
176
1
 90
4
176
1
 62
7
176
1
 62
257
176
1
 90
1
176
1
 90
1
176
1
 40
1.0
176
1
 90
8
176
1
 62
7
176
1
 40
1.0
176
1
 90
1
176
1
 90
6
176
1
 90
2
176
1
 62
7
176
1
 90
5
176
1
 90
0
176
1
 90
0
176
1
290
0
176
1
 90
1
176
1
 40
0.0
176
1
 90
0
176
1
290
0
176
1
290
1
176
1
290
1
176
1
290
0
176
1
290
0
176
1
290
0
176
1
290
0
176
1
290
0
176
1
290
0
176
1
 90
50
176
1
 40
0.0
176
1
 40
1.0
176
1
 90
0
176
1
 62
18
420
0
176
1
 90
50
176
1
 90
3
176
1
 62
5
420
255
176
1
290
0
176
1
 90
50
176
1
 90
50
176
1
 90
50
176
1
290
0
176
1
 90
50
176
1
 62
256
176
0
 40
1.0
176
0
 90
2
176
1
  1
strokes_ogs.tif
176
1
290
0
176
1
 40
1.0
176
1
 40
1.0
176
1
  0
VISUALSTYLE
  5
67
102
{ACAD_REACTORS
330
16
102
}
330
16
100
AcDbVisualStyle
  2
JitterOff
 70
20
177
3
291
1
 70
58
 90
2
176
1
 90
2
176
1
 90
0
176
1
 90
2
176
1
 40
0.6
176
1
 40
30.0
176
1
 62
7
420
16777215
176
1
 90
1
176
1
 90
4
176
1
 62
7
176
1
 62
257
176
1
 90
1
176
1
 90
1
176
1
 40
1.0
176
1
 90
8
176
1
 62
7
176
1
 40
1.0
176
1
 90
1
176
1
 90
6
176
1
 90
2
176
1
 62
7
176
1
 90
5
176
1
 90
0
176
1
 90
0
176
1
290
0
176
1
 90
1
176
1
 40
0.0
176
1
 90
0
176
1
290
0
176
1
290
1
176
1
290
1
176
1
290
0
176
1
290
0
176
1
290
0
176
1
290
0
176
1
290
0
176
1
290
0
176
1
 90
50
176
1
 40
0.0
176
1
 40
1.0
176
1
 90
0
176
1
 62
18
420
0
176
1
 90
50
176
1
 90
3
176
1
 62
5
420
255
176
1
290
0
176
1
 90
50
176
1
 90
50
176
1
 90
50
176
1
290
0
176
1
 90
50
176
1
 62
256
176
0
 40
1.0
176
0
 90
2
176
1
  1
strokes_ogs.tif
176
1
290
0
176
1
 40
1.0
176
1
 40
1.0
176
1
  0
VISUALSTYLE
  5
68
102
{ACAD_REACTORS
330
16
102
}
330
16
100
AcDbVisualStyle
  2
Linepattern
 70
14
177
3
291
1
 70
58
 90
2
176
1
 90
2
176
1
 90
0
176
1
 90
2
176
1
 40
0.6
176
1
 40
30.0
176
1
 62
7
420
16777215
176
1
 90
1
176
1
 90
4
176
1
 62
7
176
1
 62
257
176
1
 90
1
176
1
 90
1
176
1
 40
1.0
176
1
 90
8
176
1
 62
7
176
1
 40
1.0
176
1
 90
1
176
1
 90
6
176
1
 90
2
176
1
 62
7
176
1
 90
5
176
1
 90
0
176
1
 90
0
176
1
290
0
176
1
 90
1
176
1
 40
0.0
176
1
 90
0
176
1
290
0
176
1
290
1
176
1
290
1
176
1
290
0
176
1
290
0
176
1
290
0
176
1
290
0
176
1
290
0
176
1
290
0
176
1
 90
50
176
1
 40
0.0
176
1
 40
1.0
176
1
 90
0
176
1
 62
18
420
0
176
1
 90
50
176
1
 90
3
176
1
 62
5
420
255
176
1
290
0
176
1
 90
50
176
1
 90
50
176
1
 90
50
176
1
290
0
176
1
 90
50
176
1
 62
256
176
0
 40
1.0
176
0
 90
2
176
1
  1
strokes_ogs.tif
176
1
290
0
176
1
 40
1.0
176
1
 40
1.0
176
1
  0
VISUALSTYLE
  5
69
102
{ACAD_REACTORS
330
16
102
}
330
16
100
AcDbVisualStyle
  2
Modeling
 70
10
177
3
291
0
 70
58
 90
2
176
1
 90
2
176
1
 90
0
176
1
 90
2
176
1
 40
0.6
176
1
 40
30.0
176
1
 62
7
420
16777215
176
1
 90
1
176
1
 90
4
176
1
 62
7
176
1
 62
257
176
1
 90
1
176
1
 90
1
176
1
 40
1.0
176
1
 90
8
176
1
 62
7
176
1
 40
1.0
176
1
 90
1
176
1
 90
6
176
1
 90
2
176
1
 62
7
176
1
 90
5
176
1
 90
0
176
1
 90
0
176
1
290
0
176
1
 90
1
176
1
 40
0.0
176
1
 90
0
176
1
290
0
176
1
290
1
176
1
290
1
176
1
290
0
176
1
290
0
176
1
290
0
176
1
290
0
176
1
290
0
176
1
290
0
176
1
 90
50
176
1
 40
0.0
176
1
 40
1.0
176
1
 90
0
176
1
 62
18
420
0
176
1
 90
50
176
1
 90
3
176
1
 62
5
420
255
176
1
290
0
176
1
 90
50
176
1
 90
50
176
1
 90
50
176
1
290
0
176
1
 90
50
176
1
 62
256
176
0
 40
1.0
176
0
 90
2
176
1
  1
strokes_ogs.tif
176
1
290
0
176
1
 40
1.0
176
1
 40
1.0
176
1
  0
VISUALSTYLE
  5
6A
102
{ACAD_REACTORS
330
16
102
}
330
16
100
AcDbVisualStyle
  2
OverhangOff
 70
21
177
3
291
1
 70
58
 90
2
176
1
 90
2
176
1
 90
0
176
1
 90
2
176
1
 40
0.6
176
1
 40
30.0
176
1
 62
7
420
16777215
176
1
 90
1
176
1
 90
4
176
1
 62
7
176
1
 62
257
176
1
 90
1
176
1
 90
1
176
1
 40
1.0
176
1
 90
8
176
1
 62
7
176
1
 40
1.0
176
1
 90
1
176
1
 90
6
176
1
 90
2
176
1
 62
7
176
1
 90
5
176
1
 90
0
176
1
 90
0
176
1
290
0
176
1
 90
1
176
1
 40
0.0
176
1
 90
0
176
1
290
0
176
1
290
1
176
1
290
1
176
1
290
0
176
1
290
0
176
1
290
0
176
1
290
0
176
1
290
0
176
1
290
0
176
1
 90
50
176
1
 40
0.0
176
1
 40
1.0
176
1
 90
0
176
1
 62
18
420
0
176
1
 90
50
176
1
 90
3
176
1
 62
5
420
255
176
1
290
0
176
1
 90
50
176
1
 90
50
176
1
 90
50
176
1
290
0
176
1
 90
50
176
1
 62
256
176
0
 40
1.0
176
0
 90
2
176
1
  1
strokes_ogs.tif
176
1
290
0
176
1
 40
1.0
176
1
 40
1.0
176
1
  0
VISUALSTYLE
  5
6B
102
{ACAD_REACTORS
330
16
102
}
330
16
100
AcDbVisualStyle
  2
Realistic
 70
8
177
3
291
0
 70
58
 90
2
176
1
 90
2
176
1
 90
0
176
1
 90
2
176
1
 40
0.6
176
1
 40
30.0
176
1
 62
7
420
16777215
176
1
 90
1
176
1
 90
4
176
1
 62
7
176
1
 62
257
176
1
 90
1
176
1
 90
1
176
1
 40
1.0
176
1
 90
8
176
1
 62
7
176
1
 40
1.0
176
1
 90
1
176
1
 90
6
176
1
 90
2
176
1
 62
7
176
1
 90
5
176
1
 90
0
176
1
 90
0
176
1
290
0
176
1
 90
1
176
1
 40
0.0
176
1
 90
0
176
1
290
0
176
1
290
1
176
1
290
1
176
1
290
0
176
1
290
0
176
1
290
0
176
1
290
0
176
1
290
0
176
1
290
0
176
1
 90
50
176
1
 40
0.0
176
1
 40
1.0
176
1
 90
0
176
1
 62
18
420
0
176
1
 90
50
176
1
 90
3
176
1
 62
5
420
255
176
1
290
0
176
1
 90
50
176
1
 90
50
176
1
 90
50
176
1
290
0
176
1
 90
50
176
1
 62
256
176
0
 40
1.0
176
0
 90
2
176
1
  1
strokes_ogs.tif
176
1
290
0
176
1
 40
1.0
176
1
 40
1.0
176
1
  0
VISUALSTYLE
  5
6C
102
{ACAD_REACTORS
330
16
102
}
330
16
100
AcDbVisualStyle
  2
Shaded
 70
27
177
3
291
0
 70
58
 90
2
176
1
 90
2
176
1
 90
0
176
1
 90
2
176
1
 40
0.6
176
1
 40
30.0
176
1
 62
7
420
16777215
176
1
 90
1
176
1
 90
4
176
1
 62
7
176
1
 62
257
176
1
 90
1
176
1
 90
1
176
1
 40
1.0
176
1
 90
8
176
1
 62
7
176
1
 40
1.0
176
1
 90
1
176
1
 90
6
176
1
 90
2
176
1
 62
7
176
1
 90
5
176
1
 90
0
176
1
 90
0
176
1
290
0
176
1
 90
1
176
1
 40
0.0
176
1
 90
0
176
1
290
0
176
1
290
1
176
1
290
1
176
1
290
0
176
1
290
0
176
1
290
0
176
1
290
0
176
1
290
0
176
1
290
0
176
1
 90
50
176
1
 40
0.0
176
1
 40
1.0
176
1
 90
0
176
1
 62
18
420
0
176
1
 90
50
176
1
 90
3
176
1
 62
5
420
255
176
1
290
0
176
1
 90
50
176
1
 90
50
176
1
 90
50
176
1
290
0
176
1
 90
50
176
1
 62
256
176
0
 40
1.0
176
0
 90
2
176
1
  1
strokes_ogs.tif
176
1
290
0
176
1
 40
1.0
176
1
 40
1.0
176
1
  0
VISUALSTYLE
  5
6D
102
{ACAD_REACTORS
330
16
102
}
330
16
100
AcDbVisualStyle
  2
Shaded with edges
 70
26
177
3
291
0
 70
58
 90
2
176
1
 90
2
176
1
 90
0
176
1
 90
2
176
1
 40
0.6
176
1
 40
30.0
176
1
 62
7
420
16777215
176
1
 90
1
176
1
 90
4
176
1
 62
7
176
1
 62
257
176
1
 90
1
176
1
 90
1
176
1
 40
1.0
176
1
 90
8
176
1
 62
7
176
1
 40
1.0
176
1
 90
1
176
1
 90
6
176
1
 90
2
176
1
 62
7
176
1
 90
5
176
1
 90
0
176
1
 90
0
176
1
290
0
176
1
 90
1
176
1
 40
0.0
176
1
 90
0
176
1
290
0
176
1
290
1
176
1
290
1
176
1
290
0
176
1
290
0
176
1
290
0
176
1
290
0
176
1
290
0
176
1
290
0
176
1
 90
50
176
1
 40
0.0
176
1
 40
1.0
176
1
 90
0
176
1
 62
18
420
0
176
1
 90
50
176
1
 90
3
176
1
 62
5
420
255
176
1
290
0
176
1
 90
50
176
1
 90
50
176
1
 90
50
176
1
290
0
176
1
 90
50
176
1
 62
256
176
0
 40
1.0
176
0
 90
2
176
1
  1
strokes_ogs.tif
176
1
290
0
176
1
 40
1.0
176
1
 40
1.0
176
1
  0
VISUALSTYLE
  5
6E
102
{ACAD_REACTORS
330
16
102
}
330
16
100
AcDbVisualStyle
  2
Shades of Gray
 70
23
177
3
291
0
 70
58
 90
2
176
1
 90
2
176
1
 90
0
176
1
 90
2
176
1
 40
0.6
176
1
 40
30.0
176
1
 62
7
420
16777215
176
1
 90
1
176
1
 90
4
176
1
 62
7
176
1
 62
257
176
1
 90
1
176
1
 90
1
176
1
 40
1.0
176
1
 90
8
176
1
 62
7
176
1
 40
1.0
176
1
 90
1
176
1
 90
6
176
1
 90
2
176
1
 62
7
176
1
 90
5
176
1
 90
0
176
1
 90
0
176
1
290
0
176
1
 90
1
176
1
 40
0.0
176
1
 90
0
176
1
290
0
176
1
290
1
176
1
290
1
176
1
290
0
176
1
290
0
176
1
290
0
176
1
290
0
176
1
290
0
176
1
290
0
176
1
 90
50
176
1
 40
0.0
176
1
 40
1.0
176
1
 90
0
176
1
 62
18
420
0
176
1
 90
50
176
1
 90
3
176
1
 62
5
420
255
176
1
290
0
176
1
 90
50
176
1
 90
50
176
1
 90
50
176
1
290
0
176
1
 90
50
176
1
 62
256
176
0
 40
1.0
176
0
 90
2
176
1
  1
strokes_ogs.tif
176
1
290
0
176
1
 40
1.0
176
1
 40
1.0
176
1
  0
VISUALSTYLE
  5
6F
102
{ACAD_REACTORS
330
16
102
}
330
16
100
AcDbVisualStyle
  2
Sketchy
 70
24
177
3
291
0
 70
58
 90
2
176
1
 90
2
176
1
 90
0
176
1
 90
1
176
1
 40
0.6
176
1
 40
30.0
176
1
 62
7
420
16777215
176
1
 90
1
176
1
 90
4
176
1
 62
7
176
1
 62
257
176
1
 90
1
176
1
 90
1
176
1
 40
1.0
176
1
 90
8
176
1
 62
7
176
1
 40
1.0
176
1
 90
1
176
1
 90
6
176
1
 90
2
176
1
 62
7
176
1
 90
5
176
1
 90
0
176
1
 90
0
176
1
290
0
176
1
 90
1
176
1
 40
0.0
176
1
 90
0
176
1
290
0
176
1
290
1
176
1
290
1
176
1
290
0
176
1
290
0
176
1
290
0
176
1
290
0
176
1
290
0
176
1
290
0
176
1
 90
50
176
1
 40
0.0
176
1
 40
1.0
176
1
 90
0
176
1
 62
18
420
0
176
1
 90
50
176
1
 90
3
176
1
 62
5
420
255
176
1
290
0
176
1
 90
50
176
1
 90
50
176
1
 90
50
176
1
290
0
176
1
 90
50
176
1
 62
256
176
0
 40
1.0
176
0
 90
2
176
1
  1
strokes_ogs.tif
176
1
290
0
176
1
 40
1.0
176
1
 40
1.0
176
1
  0
VISUALSTYLE
  5
70
102
{ACAD_REACTORS
330
16
102
}
330
16
100
AcDbVisualStyle
  2
Thicken
 70
13
177
3
291
1
 70
58
 90
2
176
1
 90
2
176
1
 90
0
176
1
 90
2
176
1
 40
0.6
176
1
 40
30.0
176
1
 62
7
420
16777215
176
1
 90
1
176
1
 90
4
176
1
 62
7
176
1
 62
257
176
1
 90
1
176
1
 90
1
176
1
 40
1.0
176
1
 90
8
176
1
 62
7
176
1
 40
1.0
176
1
 90
1
176
1
 90
6
176
1
 90
2
176
1
 62
7
176
1
 90
5
176
1
 90
0
176
1
 90
0
176
1
290
0
176
1
 90
1
176
1
 40
0.0
176
1
 90
0
176
1
290
0
176
1
290
1
176
1
290
1
176
1
290
0
176
1
290
0
176
1
290
0
176
1
290
0
176
1
290
0
176
1
290
0
176
1
 90
50
176
1
 40
0.0
176
1
 40
1.0
176
1
 90
0
176
1
 62
18
420
0
176
1
 90
50
176
1
 90
3
176
1
 62
5
420
255
176
1
290
0
176
1
 90
50
176
1
 90
50
176
1
 90
50
176
1
290
0
176
1
 90
50
176
1
 62
256
176
0
 40
1.0
176
0
 90
2
176
1
  1
strokes_ogs.tif
176
1
290
0
176
1
 40
1.0
176
1
 40
1.0
176
1
  0
VISUALSTYLE
  5
71
102
{ACAD_REACTORS
330
16
102
}
330
16
100
AcDbVisualStyle
  2
Wireframe
 70
5
177
3
291
0
 70
58
 90
2
176
1
 90
2
176
1
 90
0
176
1
 90
0
176
1
 40
0.6
176
1
 40
30.0
176
1
 62
7
420
16777215
176
1
 90
1
176
1
 90
4
176
1
 62
7
176
1
 62
257
176
1
 90
1
176
1
 90
1
176
1
 40
1.0
176
1
 90
8
176
1
 62
7
176
1
 40
1.0
176
1
 90
1
176
1
 90
6
176
1
 90
2
176
1
 62
7
176
1
 90
5
176
1
 90
0
176
1
 90
0
176
1
290
0
176
1
 90
1
176
1
 40
0.0
176
1
 90
0
176
1
290
0
176
1
290
1
176
1
290
1
176
1
290
0
176
1
290
0
176
1
290
0
176
1
290
0
176
1
290
0
176
1
290
0
176
1
 90
50
176
1
 40
0.0
176
1
 40
1.0
176
1
 90
0
176
1
 62
18
420
0
176
1
 90
50
176
1
 90
3
176
1
 62
5
420
255
176
1
290
0
176
1
 90
50
176
1
 90
50
176
1
 90
50
176
1
290
0
176
1
 90
50
176
1
 62
256
176
0
 40
1.0
176
0
 90
2
176
1
  1
strokes_ogs.tif
176
1
290
0
176
1
 40
1.0
176
1
 40
1.0
176
1
  0
VISUALSTYLE
  5
72
102
{ACAD_REACTORS
330
16
102
}
330
16
100
AcDbVisualStyle
  2
X-Ray
 70
25
177
3
291
0
 70
58
 90
2
176
1
 90
2
176
1
 90
0
176
1
 90
2
176
1
 40
0.5
176
1
 40
30.0
176
1
 62
7
420
16777215
176
1
 90
1
176
1
 90
4
176
1
 62
7
176
1
 62
257
176
1
 90
1
176
1
 90
1
176
1
 40
1.0
176
1
 90
8
176
1
 62
7
176
1
 40
1.0
176
1
 90
1
176
1
 90
6
176
1
 90
2
176
1
 62
7
176
1
 90
5
176
1
 90
0
176
1
 90
0
176
1
290
0
176
1
 90
1
176
1
 40
0.0
176
1
 90
0
176
1
290
0
176
1
290
1
176
1
290
1
176
1
290
0
176
1
290
0
176
1
290
0
176
1
290
0
176
1
290
0
176
1
290
0
176
1
 90
50
176
1
 40
0.0
176
1
 40
1.0
176
1
 90
0
176
1
 62
18
420
0
176
1
 90
50
176
1
 90
3
176
1
 62
5
420
255
176
1
290
0
176
1
 90
50
176
1
 90
50
176
1
 90
50
176
1
290
0
176
1
 90
50
176
1
 62
256
176
0
 40
1.0
176
0
 90
2
176
1
  1
strokes_ogs.tif
176
1
290
0
176
1
 40
1.0
176
1
 40
1.0
176
1
  0
LAYOUT
  5
2CB
330
D
100
AcDbPlotSettings
  1

  2
DWG to PDF.pc3
  4
ezdxf_(841.00_x_594.00_MM)
  6

 40
0.0
 41
0.0
 42
0.0
 43
0.0
 44
841.0
 45
594.0
 46
0.0
 47
0.0
 48
0.0
 49
0.0
140
0.0
141
0.0
142
1.0
143
1.0
 70
672
 72
1
 73
0
 74
5
  7

 75
16
 76
0
 77
2
 78
300
147
1.0
148
0.0
149
0.0
100
AcDbLayout
  1
A1-LAYOUT
 70
1
 71
3
 10
-0.0
 20
-0.0
 11
841.0
 21
594.0
 12
0.0
 22
0.0
 32
0.0
 14
1e+20
 24
1e+20
 34
1e+20
 15
-1e+20
 25
-1e+20
 35
-1e+20
146
0.0
 13
0.0
 23
0.0
 33
0.0
 16
1.0
 26
0.0
 36
0.0
 17
0.0
 27
1.0
 37
0.0
 76
1
330
2C8
331
2CC
  0
LAYOUT
  5
303
330
D
100
AcDbPlotSettings
  1

  2
DWG to PDF.pc3
  4
ezdxf_(420.00_x_297.00_MM)
  6

 40
0.0
 41
0.0
 42
0.0
 43
0.0
 44
420.0
 45
297.0
 46
0.0
 47
0.0
 48
0.0
 49
0.0
140
0.0
141
0.0
142
1.0
143
1.0
 70
672
 72
1
 73
0
 74
5
  7

 75
16
 76
0
 77
2
 78
300
147
1.0
148
0.0
149
0.0
100
AcDbLayout
  1
A3-LAYOUT
 70
1
 71
4
 10
-0.0
 20
-0.0
 11
420.0
 21
297.0
 12
0.0
 22
0.0
 32
0.0
 14
1e+20
 24
1e+20
 34
1e+20
 15
-1e+20
 25
-1e+20
 35
-1e+20
146
0.0
 13
0.0
 23
0.0
 33
0.0
 16
1.0
 26
0.0
 36
0.0
 17
0.0
 27
1.0
 37
0.0
 76
1
330
300
331
304
  0
DICTIONARYVAR
  5
33B
330
2D
100
DictionaryVariables
280
0
  1
1.3.5 @ 2026-06-30T09:51:30.808113+00:00
  0
ENDSEC
  0
EOF
